<svg width="221" height="89" viewBox="0 0 221 89" fill="none" xmlns="http://www.w3.org/2000/svg">
<path d="M142.138 51.6436C142.138 62.5665 141.742 71.5408 141.029 78.8387C133.109 78.8822 125.196 78.6809 117.282 78.3676C116.599 71.1543 116.219 62.3332 116.219 51.6436C116.219 9.81139 122.783 0 129.941 0C137.1 0 142.138 9.81139 142.138 51.6436Z" fill="black"/>
<path d="M106.611 51.6436C106.611 61.8644 106.266 70.379 105.637 77.4116C97.6184 77.0091 89.5978 76.6134 81.5771 76.3664C81.0054 69.5396 80.6921 61.3635 80.6921 51.6436C80.6921 9.81139 87.2559 0 94.4143 0C101.573 0 106.611 9.81139 106.611 51.6436Z" fill="black"/>
<path d="M83.7567 27.5565C83.7567 27.5565 83.0271 18.374 88.7241 15.8103C93.7579 15.4718 93.8905 25.2626 93.8905 25.9373C93.8905 26.612 94.0895 37.2787 87.9946 35.1861C85.2135 34.3078 84.484 33.3633 83.7544 27.5565H83.7567Z" fill="white"/>
<path d="M120.583 27.2432C120.583 27.2432 119.853 18.0607 125.55 15.497C130.584 15.1585 130.716 24.9493 130.716 25.624C130.716 26.2986 130.915 36.9654 124.82 34.8727C122.039 33.9945 121.31 33.05 120.58 27.2432H120.583Z" fill="white"/>
<path d="M37.2246 63.925V63.0467C37.2246 55.6367 31.1869 50.8065 21.746 50.8065C12.3051 50.8065 5.66352 56.1856 5.66352 65.1874C5.66352 74.1892 11.9209 79.5706 21.746 79.5706C31.5711 79.5706 37.2246 74.6855 37.2246 67.3281V66.395H26.9604V66.889C26.9604 69.7455 24.8746 70.2921 21.5264 70.2921C17.7391 70.2921 15.9277 69.4687 15.9277 65.1874C15.9277 60.9061 17.7391 60.0279 21.5264 60.0279C24.8746 60.0279 26.9604 60.6316 26.9604 63.4859V63.925H37.2246Z" fill="#EF4B8D"/>
<path d="M64.3855 50.8065C57.3048 50.8065 54.231 55.0879 53.3528 59.7534H52.8039V42.2439H42.4848V77.5877C45.9085 77.2126 49.3505 76.9382 52.8039 76.7461V64.7483C52.8039 61.1805 53.9566 60.0279 58.7319 60.0279C63.5073 60.0279 64.9344 61.2354 64.9344 65.0776V76.371L75.2077 76.4351C75.2237 76.4351 75.2398 76.4351 75.2535 76.4351V61.6196C75.2535 55.4721 71.7406 50.8065 64.3855 50.8065Z" fill="#EF4B8D"/>
<path d="M159.627 78.3013V42.0152H149.308V78.7381L159.627 78.3013Z" fill="#EF4B8D"/>
<path d="M165.207 42.0152V78.084C168.654 77.8347 172.096 77.5168 175.526 77.1189V42.0152H165.207Z" fill="#EF4B8D"/>
<path d="M199.815 69.7889L194.436 70.3378V69.6243L199.815 66.8798L210.683 59.9089V51.1267H182.25V60.1285H191.417L197.18 59.6894V60.4029L191.417 63.312L181.427 70.0108V76.8216C191.634 75.5248 201.72 73.5099 211.506 70.5116V69.7889H199.815Z" fill="#EF4B8D"/>
<path d="M3.03343 88.2682C6.88937 86.6467 10.8459 85.2676 14.8666 84.1104C18.8712 82.9577 22.9375 82.0246 27.0359 81.2744C29.3641 80.849 31.7037 80.4808 34.0525 80.1652L33.4144 80.2521C39.3607 79.454 45.3482 78.9897 51.3402 78.7473C57.3323 78.5048 63.5233 78.4819 69.6136 78.5963C75.6903 78.7107 81.7647 78.9302 87.8345 79.1978C93.9043 79.4654 100.059 79.7879 106.172 80.092C112.292 80.3985 118.412 80.6867 124.537 80.9016C130.68 81.1166 136.827 81.2516 142.975 81.2447C149.065 81.2378 155.153 81.0937 161.235 80.7415C167.277 80.3916 173.31 79.8496 179.309 79.0514C185.356 78.2464 191.371 77.2195 197.322 75.861C203.117 74.5368 208.844 72.913 214.454 70.9439C215.826 70.4613 217.192 69.9582 218.55 69.4344C219.152 69.2034 219.65 68.9061 219.986 68.3298C220.288 67.8152 220.416 67.0559 220.229 66.4796C220.041 65.9032 219.68 65.3384 219.124 65.0433C218.568 64.7483 217.866 64.5722 217.274 64.8009C212.435 66.6671 207.495 68.268 202.488 69.622C197.541 70.9622 192.53 72.0645 187.485 72.9633C184.631 73.4734 181.765 73.917 178.891 74.3035L179.529 74.2166C173.72 74.9942 167.878 75.5431 162.031 75.8907C156.141 76.2407 150.248 76.4099 144.349 76.4373C138.449 76.4648 132.548 76.3573 126.652 76.1698C120.756 75.9822 114.817 75.7146 108.903 75.4242C102.984 75.1337 97.065 74.8227 91.1461 74.546C85.241 74.2692 79.3358 74.0291 73.4284 73.8759C67.5988 73.7249 61.7668 73.67 55.9372 73.8004C50.0641 73.9308 44.1932 74.2509 38.3521 74.8616C32.6551 75.4562 26.9764 76.3047 21.3778 77.5214C15.9941 78.6924 10.6836 80.2087 5.52401 82.1412C4.26157 82.6146 3.00598 83.1132 1.76412 83.6369C1.4508 83.7101 1.17864 83.8542 0.947652 84.0669C0.68693 84.2361 0.481096 84.4603 0.330152 84.7416C0.0282628 85.2562 -0.0998107 86.0155 0.0877263 86.5918C0.275263 87.1681 0.636615 87.733 1.19236 88.0281C1.74811 88.3231 2.46396 88.5129 3.04258 88.2705L3.03343 88.2682Z" fill="#7DC8F7"/>
</svg>
