<svg width="247" height="247" viewBox="0 0 247 247" fill="none" xmlns="http://www.w3.org/2000/svg">
<path d="M154.643 108.362C154.643 119.285 154.247 128.259 153.533 135.557C145.613 135.601 137.7 135.399 129.787 135.086C129.103 127.873 128.724 119.052 128.724 108.362C128.724 66.5299 135.287 56.7185 142.446 56.7185C149.604 56.7185 154.643 66.5299 154.643 108.362Z" fill="black"/>
<path d="M119.116 108.362C119.116 118.583 118.77 127.097 118.141 134.13C110.123 133.728 102.102 133.332 94.0819 133.085C93.5101 126.258 93.1968 118.082 93.1968 108.362C93.1968 66.5299 99.7606 56.7185 106.919 56.7185C114.077 56.7185 119.116 66.5299 119.116 108.362Z" fill="black"/>
<path d="M96.2614 84.2751C96.2614 84.2751 95.5318 75.0926 101.229 72.5288C106.263 72.1904 106.395 81.9812 106.395 82.6558C106.395 83.3305 106.594 93.9973 100.499 91.9046C97.7183 91.0264 96.9887 90.0818 96.2591 84.2751H96.2614Z" fill="white"/>
<path d="M133.087 83.9616C133.087 83.9616 132.358 74.7791 138.055 72.2154C143.088 71.8769 143.221 81.6677 143.221 82.3424C143.221 83.017 143.42 93.6838 137.325 91.5911C134.544 90.7129 133.814 89.7684 133.085 83.9616H133.087Z" fill="white"/>
<path d="M49.7293 120.644V119.765C49.7293 112.355 43.6915 107.525 34.2507 107.525C24.8098 107.525 18.1682 112.904 18.1682 121.906C18.1682 130.908 24.4255 136.289 34.2507 136.289C44.0758 136.289 49.7293 131.404 49.7293 124.047V123.114H39.4651V123.608C39.4651 126.464 37.3793 127.011 34.0311 127.011C30.2438 127.011 28.4324 126.187 28.4324 121.906C28.4324 117.625 30.2438 116.746 34.0311 116.746C37.3793 116.746 39.4651 117.35 39.4651 120.204V120.644H49.7293Z" fill="#EF4B8D"/>
<path d="M76.8902 107.525C69.8095 107.525 66.7357 111.806 65.8575 116.472H65.3086V98.9624H54.9895V134.306C58.4132 133.931 61.8552 133.657 65.3086 133.465V121.467C65.3086 117.899 66.4613 116.746 71.2366 116.746C76.0119 116.746 77.4391 117.954 77.4391 121.796V133.09L87.7124 133.154C87.7284 133.154 87.7444 133.154 87.7582 133.154V118.338C87.7582 112.191 84.2453 107.525 76.8902 107.525Z" fill="#EF4B8D"/>
<path d="M172.132 135.02V98.7336H161.812V135.457L172.132 135.02Z" fill="#EF4B8D"/>
<path d="M177.712 98.7336V134.803C181.158 134.553 184.6 134.235 188.031 133.837V98.7336H177.712Z" fill="#EF4B8D"/>
<path d="M212.319 126.507L206.94 127.056V126.343L212.319 123.598L223.187 116.627V107.845H194.755V116.847H203.921L209.685 116.408V117.121L203.921 120.031L193.932 126.729V133.54C204.139 132.243 214.225 130.228 224.011 127.23V126.507H212.319Z" fill="#EF4B8D"/>
<path d="M15.5381 144.987C19.394 143.365 23.3506 141.986 27.3712 140.829C31.3758 139.676 35.4422 138.743 39.5405 137.993C41.8687 137.567 44.2084 137.199 46.5572 136.884L45.9191 136.971C51.8654 136.172 57.8528 135.708 63.8449 135.466C69.8369 135.223 76.0279 135.2 82.1183 135.315C88.1949 135.429 94.2693 135.649 100.339 135.916C106.409 136.184 112.563 136.506 118.677 136.81C124.797 137.117 130.917 137.405 137.041 137.62C143.184 137.835 149.332 137.97 155.48 137.963C161.57 137.956 167.658 137.812 173.739 137.46C179.782 137.11 185.815 136.568 191.814 135.77C197.861 134.965 203.876 133.938 209.826 132.579C215.622 131.255 221.349 129.631 226.959 127.662C228.331 127.18 229.696 126.677 231.055 126.153C231.656 125.922 232.155 125.625 232.491 125.048C232.793 124.534 232.921 123.774 232.733 123.198C232.546 122.622 232.185 122.057 231.629 121.762C231.073 121.467 230.371 121.291 229.779 121.519C224.939 123.386 219.999 124.987 214.993 126.34C210.046 127.681 205.035 128.783 199.99 129.682C197.136 130.192 194.27 130.635 191.395 131.022L192.033 130.935C186.224 131.713 180.383 132.262 174.535 132.609C168.646 132.959 162.752 133.128 156.854 133.156C150.954 133.183 145.053 133.076 139.157 132.888C133.261 132.701 127.322 132.433 121.407 132.143C115.488 131.852 109.57 131.541 103.651 131.264C97.7456 130.988 91.8405 130.748 85.9331 130.594C80.1034 130.443 74.2715 130.388 68.4418 130.519C62.5687 130.649 56.6979 130.969 50.8568 131.58C45.1598 132.175 39.4811 133.023 33.8824 134.24C28.4987 135.411 23.1882 136.927 18.0287 138.86C16.7662 139.333 15.5106 139.832 14.2688 140.355C13.9554 140.429 13.6833 140.573 13.4523 140.785C13.1916 140.955 12.9857 141.179 12.8348 141.46C12.5329 141.975 12.4048 142.734 12.5924 143.31C12.7799 143.887 13.1413 144.451 13.697 144.747C14.2528 145.042 14.9686 145.231 15.5472 144.989L15.5381 144.987Z" fill="#7DC8F7"/>
</svg>
