<svg width="229" height="92" viewBox="0 0 229 92" fill="none" xmlns="http://www.w3.org/2000/svg">
<path d="M135.059 0.555557C127.669 0.555557 120.893 10.6847 120.893 53.8718C120.893 64.9076 121.285 74.0144 121.991 81.4614C130.16 81.7849 138.33 81.9926 146.506 81.9478C147.243 74.4135 147.651 65.1485 147.651 53.8718C147.651 10.6847 142.45 0.555557 135.059 0.555557ZM129.775 36.5578C126.902 35.6511 126.151 34.676 125.398 28.6811C125.398 28.6811 124.647 19.2036 130.526 16.5544C135.723 16.205 135.86 26.3129 135.86 27.0094C135.86 27.706 136.065 38.7182 129.775 36.5578Z" fill="white"/>
<path d="M98.3819 0.555557C90.9917 0.555557 84.2153 10.6847 84.2153 53.8718C84.2153 63.9065 84.5387 72.3475 85.129 79.3954C93.4094 79.6504 101.69 80.0589 109.968 80.4744C110.617 73.214 110.974 64.4236 110.974 53.8718C110.974 10.6847 105.772 0.555557 98.3819 0.555557ZM91.7567 36.8789C88.8855 35.9722 88.1324 34.9971 87.3792 29.0046C87.3792 29.0046 86.6283 19.5247 92.5099 16.8756C97.7067 16.5285 97.8412 26.634 97.8412 27.3306C97.8412 28.0271 98.0467 39.0393 91.7567 36.8789Z" fill="white"/>
<path d="M39.34 66.551V65.6443C39.34 57.9943 33.1066 53.0076 23.36 53.0076C13.6133 53.0076 6.75665 58.561 6.75665 67.8543C6.75665 77.1476 13.2167 82.7033 23.36 82.7033C33.5033 82.7033 39.34 77.66 39.34 70.0643V69.101H28.7433V69.611C28.7433 72.56 26.59 73.1243 23.1333 73.1243C19.2233 73.1243 17.3533 72.2743 17.3533 67.8543C17.3533 63.4343 19.2233 62.5276 23.1333 62.5276C26.59 62.5276 28.7433 63.151 28.7433 66.0976V66.551H39.34Z" fill="white"/>
<path d="M67.3806 53.0076C60.0706 53.0076 56.8972 57.4276 55.9906 62.2443H55.4239V44.1676H44.7706V80.6562C48.3052 80.269 51.8586 79.9857 55.4239 79.7874V67.401C55.4239 63.7176 56.6139 62.5276 61.5439 62.5276C66.4739 62.5276 67.9472 63.7743 67.9472 67.741V79.4001L78.5533 79.4663C78.5699 79.4663 78.5864 79.4663 78.6006 79.4663V64.171C78.6006 57.8243 74.9739 53.0076 67.3806 53.0076Z" fill="white"/>
<path d="M165.707 81.3929V43.9315H155.053V81.8439L165.707 81.3929Z" fill="white"/>
<path d="M171.468 43.9315V81.1686C175.026 80.9112 178.579 80.5831 182.121 80.1722V43.9315H171.468Z" fill="white"/>
<path d="M207.196 72.6049L201.643 73.1715V72.4349L207.196 69.6015L218.416 62.4049V53.3382H189.063V62.6315H198.526L204.476 62.1782V62.9149L198.526 65.9182L188.213 72.8339V79.8653C198.75 78.5265 209.163 76.4464 219.266 73.351V72.6049H207.196Z" fill="white"/>
<path d="M4.04141 91.6826C8.02224 90.0086 12.107 88.5849 16.2578 87.3902C20.3921 86.2002 24.5902 85.2368 28.8213 84.4624C31.2249 84.0232 33.6403 83.6431 36.0652 83.3172L35.4064 83.407C41.5453 82.5829 47.7267 82.1036 53.9128 81.8533C60.0989 81.6031 66.4904 81.5794 72.7781 81.6975C79.0515 81.8156 85.3227 82.0422 91.5891 82.3185C97.8554 82.5947 104.209 82.9277 110.52 83.2417C116.839 83.5581 123.157 83.8556 129.48 84.0775C135.822 84.2995 142.169 84.4388 148.515 84.4317C154.803 84.4246 161.088 84.2758 167.367 83.9122C173.605 83.551 179.833 82.9914 186.026 82.1674C192.269 81.3363 198.479 80.2761 204.623 78.8736C210.606 77.5065 216.518 75.8302 222.31 73.7972C223.726 73.299 225.136 72.7796 226.538 72.2389C227.159 72.0004 227.674 71.6935 228.021 71.0985C228.333 70.5672 228.465 69.7833 228.271 69.1883C228.078 68.5933 227.705 68.0102 227.131 67.7056C226.557 67.401 225.832 67.2192 225.221 67.4553C220.225 69.382 215.125 71.0347 209.956 72.4325C204.849 73.8161 199.676 74.9542 194.467 75.8821C191.521 76.4086 188.562 76.8667 185.594 77.2657L186.253 77.176C180.256 77.9788 174.226 78.5454 168.188 78.9043C162.108 79.2656 156.024 79.4403 149.934 79.4686C143.843 79.4969 137.751 79.386 131.664 79.1924C125.554 78.9988 119.445 78.7225 113.34 78.4226C107.229 78.1228 101.118 77.8017 95.0079 77.516C88.9115 77.2303 82.8152 76.9824 76.7164 76.8242C70.6979 76.6683 64.6771 76.6117 58.6586 76.7463C52.5953 76.8808 46.5343 77.2114 40.504 77.8418C34.6225 78.4557 28.7599 79.3317 22.9799 80.5878C17.4218 81.7967 11.9393 83.3621 6.61266 85.3572C5.30932 85.846 4.01307 86.3607 2.73099 86.9014C2.40752 86.977 2.12655 87.1257 1.88807 87.3453C1.61891 87.52 1.40641 87.7514 1.25057 88.0418C0.938907 88.5731 0.806686 89.357 1.0003 89.952C1.19391 90.547 1.56696 91.1302 2.14071 91.4347C2.71446 91.7393 3.45349 91.9353 4.05085 91.685L4.04141 91.6826Z" fill="white"/>
</svg>
