<svg width="1066" height="834" viewBox="0 0 1066 834" fill="none" xmlns="http://www.w3.org/2000/svg">
<g clip-path="url(#clip0_266_93)">
<path d="M1066 0V729.952C1066 743.133 1060.5 759 1041.36 774.323C1032.98 781.029 1022.01 787.624 1007.72 793.856H807.469C794.118 788.018 781.159 781.372 768.479 774.323C713.158 743.577 663.281 705.227 611.118 692.925C575.323 684.481 541.891 700.995 507.991 723.417C490.094 733.002 472.348 746.587 454.237 760.536C446.987 765.353 439.648 770.01 432.209 774.323C418.291 782.382 404.006 789.261 389.19 793.856H312.903C303.948 790.937 294.779 786.897 285.357 781.564C280.81 778.989 276.452 776.575 272.272 774.323C151.349 708.944 176.837 769.666 93.6411 765.263C7.57818 760.697 0 677.532 0 677.532V0H1066Z" fill="#7DC8F7"/>
<path d="M1066 729.952C1066 743.133 1060.5 759 1041.36 774.323C1032.98 781.029 1022.01 787.624 1007.72 793.856C995.104 799.351 979.923 804.573 961.697 809.299C903.345 824.45 853.178 813.875 807.468 793.856C794.118 788.018 781.159 781.372 768.478 774.323C713.158 743.577 663.28 705.227 611.117 692.925C575.323 684.481 541.89 700.995 507.991 723.417C490.333 735.083 472.55 748.355 454.236 760.536C446.986 765.354 439.648 770.01 432.209 774.323C418.29 782.382 404.005 789.261 389.19 793.856C365.369 801.26 340.159 802.765 312.902 793.856C303.947 790.937 294.778 786.897 285.356 781.564C280.809 778.989 276.451 776.575 272.271 774.323C151.348 708.944 176.836 769.666 93.64 765.263C7.57685 760.697 -0.00134277 677.532 -0.00134277 677.532C89.1436 702.045 44.9375 749.122 159.974 703.641C275.011 658.17 181.825 697.884 301.598 746.193C411.495 790.513 438.738 676.3 555.329 645.181C563.652 642.949 572.43 641.151 581.727 639.879C581.739 639.879 581.752 639.868 581.764 639.868C584.152 639.535 586.576 639.242 589.027 638.98C679.233 629.384 718.248 670.704 766.824 708.732C766.836 708.742 766.862 708.752 766.874 708.772C778.052 717.509 789.735 726.084 802.682 733.811C802.682 733.811 802.707 733.831 802.745 733.861C824.583 746.921 849.995 757.597 882.518 762.707C917.075 768.141 945.278 766.687 968.139 761.495C968.202 761.485 968.265 761.465 968.328 761.445C968.337 761.445 968.345 761.441 968.353 761.435H968.366C968.391 761.425 968.404 761.425 968.404 761.425C1034.99 746.203 1055.96 699.268 1055.96 699.268C1055.96 699.268 1066 712.156 1066 729.952Z" fill="#287CE0"/>
<path d="M555.331 645.184C555.331 645.184 630.531 606.664 802.686 733.812C802.686 733.812 870.925 789.402 968.398 761.421C968.398 761.421 853.47 780.689 785.198 692.824C716.926 604.958 612.025 620.865 555.331 645.184Z" fill="#E1F7FF"/>
</g>
<defs>
<clipPath id="clip0_266_93">
<rect width="1066" height="909" fill="white"/>
</clipPath>
</defs>
</svg>
