<svg width="302" height="341" viewBox="0 0 302 341" fill="none" xmlns="http://www.w3.org/2000/svg">
<g clip-path="url(#clip0_94_1077)">
<path d="M-42.8852 250.921C-42.8852 250.921 -8.04762 276.963 36.9063 241.753C28.7796 224.455 28.2814 225.22 28.2814 225.22C28.2814 225.22 5.55978 250.143 -36.8185 236.777" fill="#E84E31"/>
<path d="M-42.8852 250.921C-42.8852 250.921 -8.04762 276.963 36.9063 241.753C28.7796 224.455 28.2814 225.22 28.2814 225.22C28.2814 225.22 5.55979 250.143 -36.8185 236.777" stroke="#721E0E" stroke-width="3" stroke-miterlimit="10"/>
<path d="M121.003 262.009C121.003 262.009 66.3177 297.867 24.8555 232.876C0.571366 191.413 18.1838 165.043 44.4572 145.278C66.8214 131.216 96.2723 135.66 96.2723 135.66C96.2723 135.66 83.9865 169.308 72.9271 180.459C81.1469 186.18 129.673 190.637 172.404 169.94C180.533 210.078 137.656 253.722 121.003 262.009Z" fill="#E84E31" stroke="#721E0E" stroke-width="3" stroke-miterlimit="10"/>
<path d="M238.515 223.501L167.944 205.322L87.4875 184.593L72.7148 180.788C72.6474 180.741 72.5781 180.699 72.5107 180.651C83.5685 169.499 95.8554 135.853 95.8554 135.853C95.8554 135.853 66.4057 131.411 44.0389 145.471C35.2977 152.044 27.5184 159.353 21.9221 167.701L10.3801 164.727L42.9774 38.1868L271.113 96.961L238.515 223.501Z" fill="white" stroke="black" stroke-width="3" stroke-miterlimit="10"/>
<path d="M72.5107 180.651C72.5781 180.698 72.6474 180.741 72.7148 180.788L21.9221 167.701C27.5184 159.353 35.2977 152.044 44.0389 145.471C66.4057 131.411 95.8554 135.853 95.8554 135.853C95.8554 135.853 83.5685 169.499 72.5107 180.651Z" fill="white" stroke="black" stroke-width="3" stroke-miterlimit="10"/>
<path d="M167.944 205.322C157.251 232.798 132.362 256.342 120.585 262.201C120.585 262.201 65.8988 298.06 24.4382 233.069C8.22966 205.396 10.6828 184.449 21.9221 167.701C27.5184 159.353 35.2977 152.044 44.0389 145.471C66.4057 131.411 95.8554 135.853 95.8554 135.853C95.8554 135.853 83.5685 169.499 72.5107 180.651C72.5781 180.699 72.6474 180.741 72.7148 180.788C75.0819 182.313 80.2955 183.727 87.4875 184.593L167.944 205.322Z" fill="#E84E31" stroke="#721E0E" stroke-width="3" stroke-miterlimit="10"/>
</g>
<defs>
<clipPath id="clip0_94_1077">
<rect width="265.132" height="265.132" fill="white" transform="translate(51.9835) rotate(20.0697)"/>
</clipPath>
</defs>
</svg>
