<svg width="273" height="389" viewBox="0 0 273 389" fill="none" xmlns="http://www.w3.org/2000/svg">
<path d="M161.958 352.055C162.44 356.891 160.28 360.063 160.28 360.063C157.862 363.612 153.863 364.127 149.659 365.465C139.281 368.764 139.754 373.238 129.719 377.57C122.587 380.649 124.056 377.652 108.661 381.294C98.26 383.755 92.7613 386.264 82.9911 385.578C80.182 385.38 80.9617 385.194 76.7649 384.754C61.7944 383.181 58.2094 386.196 49.4016 384.273C46.7903 383.702 48.5809 383.758 35.0541 377.756C21.5534 371.765 20.0463 371.829 16.4203 369.189C15.9278 368.831 3.78503 360.078 4.02751 352.055C4.54978 334.877 46.4135 318.533 82.9948 318.533C126.507 318.533 160.899 341.43 161.962 352.055H161.958Z" fill="#333333" stroke="#333333" stroke-width="5" stroke-miterlimit="10"/>
<path d="M4.02383 102.681C3.47545 108.094 2.81142 116.52 2.81142 126.925C2.81142 136.006 3.31877 137.46 3.37099 147.947C3.4456 162.702 2.45702 163.232 2.81142 174.285C3.22177 187.143 4.55357 186.323 4.61326 197.283C4.67668 208.605 3.25535 208.989 3.18447 222.936C3.1397 231.734 3.69928 232.599 3.46426 241.785C3.21804 251.369 2.55401 252.533 2.62489 259.183C2.72562 268.857 4.16932 269.767 4.85946 279.482C5.59437 289.787 4.05367 289.865 3.74031 307.029C3.60601 314.365 3.87834 314.951 4.0201 329.259C4.11709 339.045 4.07233 346.978 4.0201 352.055H82.9874L82.9874 102.681L4.0201 102.681H4.02383Z" fill="#333333" stroke="#333333" stroke-width="5" stroke-miterlimit="10"/>
<path d="M161.959 102.681C162.507 108.094 163.171 116.52 163.171 126.925C163.171 136.006 162.664 137.46 162.612 147.947C162.537 162.702 163.525 163.232 163.171 174.285C162.761 187.143 161.429 186.323 161.369 197.283C161.306 208.605 162.727 208.989 162.798 222.936C162.843 231.734 162.283 232.599 162.518 241.785C162.764 251.369 163.429 252.532 163.358 259.183C163.257 268.857 161.813 269.767 161.123 279.482C160.388 289.786 161.929 289.865 162.242 307.029C162.377 314.365 162.104 314.951 161.962 329.259C161.865 339.045 161.91 346.978 161.962 352.055C109.318 352.055 135.64 352.055 82.9951 352.055L82.9951 102.681L161.962 102.681H161.959Z" fill="#333333" stroke="#333333" stroke-width="5" stroke-miterlimit="10"/>
<path d="M82.9917 129.501C126.604 129.501 161.959 116.519 161.959 100.504C161.959 84.49 126.604 71.5078 82.9917 71.5078C39.3793 71.5078 4.02441 84.49 4.02441 100.504C4.02441 116.519 39.3793 129.501 82.9917 129.501Z" fill="#333333" stroke="#333333" stroke-width="5" stroke-miterlimit="10"/>
<path d="M164.055 97.928C163.977 103.591 157.881 107.859 149.241 114.279C146.466 116.344 143.728 118.346 139.456 120.08C135.644 121.627 132.305 122.268 120.587 123.584C109.183 124.863 110.545 124.46 105.352 125.154C93.0785 126.798 91.687 128.229 82.9912 128.658C77.3545 128.934 73.0047 128.576 69.5726 128.296C63.3875 127.789 62.4586 127.238 49.8644 125.277C38.6206 123.525 38.02 123.752 34.3492 122.619C30.1226 121.31 27.0896 119.823 21.2104 116.941C15.3274 114.055 12.384 112.609 10.1681 110.779C7.15011 108.281 1.55434 103.848 1.92366 97.9318C2.12511 94.681 4.04259 92.131 4.7663 91.1654C5.78846 89.8047 6.82929 88.8802 11.0075 85.9313C16.5547 82.0132 19.3302 80.0522 21.3484 79.165C24.7245 77.6812 25.646 78.0093 32.2489 76.3466C39.2698 74.5795 39.8069 73.8153 45.5743 72.2383C49.0698 71.2839 54.2403 70.5272 64.5812 69.0173C76.7949 67.2316 79.8353 67.1048 82.9838 67.2055C86.2256 67.3099 86.1958 67.5448 92.6271 68.0518C102.308 68.816 104.195 68.4246 109.12 68.857C116.696 69.5243 121.919 71.3026 131.294 74.4938C139.486 77.2823 143.701 78.7213 148.812 81.823C155.635 85.9686 164.141 91.1356 164.048 97.9318L164.055 97.928Z" fill="#494949"/>
<path d="M78.9291 125.858C75.3627 125.858 72.4603 125.62 69.8975 125.411C66.3498 125.12 64.7084 124.829 61.1122 124.196C58.7545 123.782 55.5239 123.212 50.4616 122.421C46.6378 121.825 44.0302 121.456 42.1276 121.187C38.4904 120.673 37.6249 120.55 35.4836 119.886C31.5255 118.663 28.6344 117.243 22.8708 114.417C17.2302 111.651 14.4062 110.264 12.4925 108.68L12.2276 108.464C9.52674 106.234 5.00163 102.502 5.27769 98.0847C5.43064 95.6093 6.99374 93.5254 7.58316 92.7425C8.31807 91.762 9.02687 91.0761 13.1342 88.172C18.3233 84.5073 21.1771 82.4905 22.8708 81.7449C24.5681 80.9992 25.4 80.8315 27.3996 80.4289C28.7202 80.1604 30.5295 79.7951 33.1893 79.1241C37.2481 78.1026 39.2626 77.3905 41.2136 76.7009C42.7208 76.1677 44.1496 75.6645 46.5856 74.9972C49.8572 74.1024 54.9606 73.3568 65.1262 71.8731C75.3813 70.3744 79.0148 70.0724 81.5516 70.0724C82.0067 70.0724 82.432 70.0799 82.861 70.0948C84.4017 70.1433 85.0918 70.2216 86.3453 70.3632C87.5465 70.4974 89.1917 70.6838 92.3215 70.9299C97.9136 71.3698 100.988 71.4332 103.457 71.4854C105.307 71.5226 106.77 71.5562 108.781 71.7314C115.898 72.3577 120.931 74.0726 130.067 77.1818C138.084 79.9107 142.105 81.2826 146.884 84.1867C153.069 87.9445 160.765 92.6195 160.694 97.8909C160.638 101.995 155.673 105.679 148.16 111.252L147.048 112.08C144.552 113.936 141.971 115.852 138.028 117.452C134.737 118.786 131.992 119.375 120.151 120.706C114.19 121.374 111.791 121.575 110.034 121.724C108.437 121.858 107.382 121.948 104.834 122.287C99.1782 123.044 95.7275 123.767 92.952 124.352C89.658 125.042 87.2779 125.542 82.7938 125.761C81.5068 125.825 80.2049 125.858 78.9216 125.858H78.9291Z" fill="#CCCCCC"/>
<path d="M93.101 343.075C93.101 343.075 104.281 305.377 96.8278 288.948C89.3742 272.515 75.9556 241.184 78.5669 227.368C84.256 197.246 88.9079 193.88 83.0249 165.547C79.3056 147.634 71.035 133.594 78.2871 128.233C80.2233 126.802 80.8873 127.749 103.416 125.422C103.416 125.422 104.337 125.325 118.61 123.801C118.61 123.801 116.211 154.27 111.366 162.326C106.52 170.382 118.819 216.132 116.211 224.185C113.604 232.241 104.285 255.116 108.012 263.169C111.739 271.225 119.147 276.701 118.61 283.468C118.073 290.234 96.8315 343.716 93.1047 343.071L93.101 343.075Z" fill="#494949"/>
<path d="M163.156 100.694C162.914 100.158 162.462 99.7214 161.862 99.3747C162.164 99.0056 162.369 98.6067 162.436 98.178C162.757 96.1425 160.164 94.0734 156.236 92.9066C156.575 92.1833 156.654 91.4676 156.4 90.8152C156.117 90.077 155.445 89.4992 154.509 89.0816C154.154 86.8597 151.647 84.0675 147.868 81.9947C143.895 79.8175 139.699 79.0831 137.263 79.9405C137.173 79.8138 137.091 79.6833 136.994 79.5566C133.748 75.1724 129.011 72.7828 126.411 74.2218C126.19 74.3448 126 74.4977 125.825 74.6617C124.765 73.7483 123.378 72.9282 121.751 72.3242C117.849 70.8778 113.865 71.1275 112.037 72.7716C111.824 72.6448 111.615 72.5181 111.395 72.3988C106.311 69.6102 100.849 69.1778 99.1965 71.4332C99.1294 71.5264 99.0772 71.6271 99.0249 71.7277C98.2042 71.0865 97.2791 70.4714 96.2532 69.9085C91.1685 67.1199 85.707 66.6875 84.0544 68.9429C83.5695 69.6028 83.4762 70.4267 83.7 71.3214C83.6291 71.2729 83.562 71.2207 83.4911 71.1685C78.7832 67.9214 73.4076 66.982 71.4826 69.0697C71.2103 69.3642 71.0312 69.7072 70.923 70.08C70.3336 68.5105 69.3152 67.4256 67.961 67.1609C66.3756 66.8478 64.6521 67.7164 63.1785 69.3381C60.6753 69.1517 57.2022 70.1583 53.9679 72.2012C52.5801 73.0773 51.3976 74.0503 50.4463 75.0419C44.9662 73.2972 39.7248 73.808 38.6281 76.2424C38.1916 77.2117 38.4863 78.3412 39.3294 79.4708C38.0498 79.9965 36.7367 80.6936 35.4721 81.566C35.2855 81.6927 35.1102 81.8269 34.9311 81.9574C35.4758 80.6153 35.4497 79.4 34.711 78.5276C32.8906 76.3728 27.4701 77.1147 22.613 80.1866C18.5654 82.744 16.1928 86.103 16.5584 88.4031C14.1784 88.6492 12.4213 89.4731 11.9065 90.8077C11.6528 91.4638 11.7274 92.1759 12.0706 92.8991C8.14612 94.066 5.55342 96.135 5.87051 98.1705C5.93766 98.5992 6.14283 98.9981 6.445 99.3672C5.84439 99.7139 5.39301 100.15 5.15053 100.687C4.60587 101.895 5.19156 103.349 6.57185 104.747C5.54969 105.753 5.07219 106.831 5.33705 107.845C5.76606 109.474 8.01183 110.544 11.0746 110.831C11.7199 112.59 14.2231 114.339 17.6664 115.439C19.4234 118.194 21.8296 119.819 23.9299 119.364C24.15 119.316 24.3589 119.241 24.5603 119.152C25.7727 120.054 27.3731 120.874 29.2421 121.512C29.0892 121.929 29.0369 122.347 29.1153 122.76C29.6189 125.392 34.8416 126.839 40.7843 125.989C41.0119 125.955 41.232 125.914 41.4558 125.877C42.795 127.551 46.4845 127.942 50.6179 126.954C52.9756 128.103 55.2848 128.61 57.012 128.367C58.3326 130.418 62.7756 131.715 67.92 131.365C69.8225 131.234 71.5871 130.895 73.1091 130.41C74.5155 131.201 75.9145 131.473 77.0858 131.048C77.4999 130.895 77.8543 130.66 78.1639 130.366C79.0816 130.787 80.2083 130.753 81.4057 130.358C85.7219 132.304 90.0008 132.55 91.7392 130.899C93.1233 131.16 94.761 130.571 96.3278 129.374C97.3163 129.575 98.3684 129.721 99.4651 129.795C103.707 130.082 107.471 129.251 109.403 127.801C111.451 129.128 115.588 128.285 119.461 125.803C121.55 126.22 124.195 126.22 126.974 125.698C130.197 125.094 132.92 123.912 134.621 122.544C135.427 122.436 136.252 122.287 137.084 122.086C141.168 121.09 144.365 119.193 145.604 117.262C150.084 117.925 153.867 117.068 154.669 114.995C154.844 114.536 154.859 114.048 154.74 113.552C156.008 112.713 156.889 111.774 157.236 110.835C160.298 110.548 162.544 109.478 162.973 107.848C163.238 106.838 162.761 105.761 161.738 104.75C163.119 103.356 163.704 101.899 163.16 100.691L163.156 100.694ZM66.7934 102.592C67.0881 102.573 67.3903 102.543 67.6924 102.51C67.5096 102.626 67.3268 102.749 67.144 102.868C67.0284 102.771 66.9127 102.681 66.7934 102.588V102.592ZM56.6986 87.5345C56.6315 87.4562 56.5569 87.3817 56.4897 87.3034C56.6464 87.3369 56.7993 87.3705 56.9523 87.4003C56.8665 87.445 56.7844 87.4898 56.6986 87.5345ZM90.262 119.73C90.3739 119.707 90.4895 119.681 90.6052 119.655C90.5082 119.838 90.4075 120.017 90.3179 120.203C89.7472 121.37 89.3405 122.533 89.0906 123.64C89.0048 123.569 88.9153 123.499 88.8295 123.428C89.5196 122.16 89.9934 120.904 90.262 119.726V119.73Z" fill="url(#paint0_radial_112_518)"/>
<path d="M48.7749 115.804C49.2897 118.492 44.7907 121.374 38.7287 122.239C32.6666 123.107 27.3357 121.631 26.8209 118.943C26.3061 116.255 30.8051 113.373 36.8672 112.508C42.9292 111.64 48.2601 113.116 48.7749 115.804Z" fill="url(#paint1_radial_112_518)"/>
<path d="M39.1317 121.691C37.867 119.197 41.4073 115.446 47.0366 113.317C52.666 111.189 58.2543 111.483 59.5152 113.981C60.7798 116.475 57.2396 120.225 51.6102 122.354C45.9809 124.483 40.3926 124.188 39.1317 121.691Z" fill="url(#paint2_radial_112_518)"/>
<path d="M61.9997 103.628C61.3319 106.29 55.9189 107.535 49.9166 106.406C43.9105 105.276 39.5868 102.204 40.2545 99.5424C40.9223 96.8806 46.3353 95.6355 52.3377 96.7651C58.3438 97.8947 62.6674 100.967 61.9997 103.628Z" fill="url(#paint3_radial_112_518)"/>
<path d="M91.0531 126.899C89.3669 129.199 83.7898 128.759 78.6007 125.914C73.4115 123.07 70.5726 118.898 72.2626 116.598C73.9487 114.298 79.5258 114.738 84.715 117.582C89.9041 120.427 92.743 124.598 91.0531 126.899Z" fill="url(#paint4_radial_112_518)"/>
<path d="M91.0714 107.245C90.4037 109.906 84.9907 111.151 78.9883 110.022C72.9822 108.892 68.6586 105.82 69.3263 103.159C69.9941 100.497 75.4071 99.2517 81.4094 100.381C87.4155 101.511 91.7392 104.583 91.0714 107.245Z" fill="url(#paint5_radial_112_518)"/>
<path d="M30.048 109.411C29.3802 112.072 23.9673 113.317 17.9649 112.188C11.9588 111.058 7.63513 107.986 8.30289 105.325C8.97065 102.663 14.3836 101.418 20.386 102.547C26.3921 103.677 30.7157 106.749 30.048 109.411Z" fill="url(#paint6_radial_112_518)"/>
<path d="M41.3663 103.8C42.0676 106.454 37.7775 109.563 31.7826 110.745C25.7914 111.923 20.3672 110.727 19.6659 108.072C18.9646 105.418 23.2547 102.309 29.2496 101.127C35.2408 99.9488 40.6649 101.146 41.3663 103.8Z" fill="url(#paint7_radial_112_518)"/>
<path d="M91.5489 72.2422C92.2502 74.8966 87.9601 78.0057 81.9652 79.1875C75.974 80.3656 70.5499 79.1689 69.8485 76.5145C69.1472 73.8602 73.4373 70.751 79.4322 69.5692C85.4271 68.3875 90.8475 69.5879 91.5489 72.2422Z" fill="url(#paint8_radial_112_518)"/>
<path d="M52.1177 92.8022C50.9762 95.341 45.4065 95.8368 39.6802 93.9094C33.9539 91.982 30.2383 88.3621 31.3836 85.8233C32.5288 83.2846 38.0947 82.7887 43.8211 84.7161C49.5474 86.6435 53.263 90.2634 52.1177 92.8022Z" fill="url(#paint9_radial_112_518)"/>
<path d="M57.2618 78.4419C56.1202 80.9807 50.5506 81.4765 44.8242 79.5491C39.0979 77.6217 35.3823 74.0018 36.5276 71.4631C37.6691 68.9243 43.2388 68.4285 48.9651 70.3558C54.6914 72.2832 58.407 75.9031 57.2618 78.4419Z" fill="url(#paint10_radial_112_518)"/>
<path d="M14.5666 85.1523C12.705 82.9528 15.2194 78.6283 20.181 75.4931C25.1425 72.3578 30.6712 71.601 32.529 73.7968C34.3905 75.9963 31.8761 80.3208 26.9145 83.4561C21.953 86.5913 16.4244 87.3481 14.5666 85.1523Z" fill="url(#paint11_radial_112_518)"/>
<path d="M46.5666 77.0029C44.705 74.8034 47.2194 70.4789 52.181 67.3436C57.1425 64.2084 62.6711 63.4516 64.5289 65.6474C66.3867 67.8432 63.8761 72.1714 58.9145 75.3066C53.953 78.4419 48.4244 79.1987 46.5666 77.0029Z" fill="url(#paint12_radial_112_518)"/>
<path d="M82.5996 91.6614C81.4581 94.2002 75.8885 94.696 70.1622 92.7687C64.4358 90.8413 60.7202 87.2214 61.8655 84.6826C63.0108 82.1438 68.5767 81.648 74.303 83.5754C80.0293 85.5028 83.7449 89.1227 82.5996 91.6614Z" fill="url(#paint13_radial_112_518)"/>
<path d="M64.8833 80.9919C63.7418 83.5306 58.1722 84.0265 52.4458 82.0991C46.7195 80.1717 43.0039 76.5518 44.1492 74.013C45.2945 71.4742 50.8604 70.9784 56.5867 72.9058C62.313 74.8332 66.0286 78.4531 64.8833 80.9919Z" fill="url(#paint14_radial_112_518)"/>
<path d="M24.2471 99.4493C24.9484 102.104 20.6584 105.213 14.6634 106.395C8.66852 107.576 3.2481 106.376 2.54677 103.722C1.84543 101.067 6.13551 97.958 12.1304 96.7763C18.1254 95.5945 23.5458 96.7949 24.2471 99.4493Z" fill="url(#paint15_radial_112_518)"/>
<path d="M30.9507 95.0278C31.6521 97.6822 27.362 100.791 21.3671 101.973C15.3759 103.151 9.95172 101.954 9.25038 99.3001C8.54905 96.6458 12.8391 93.5366 18.834 92.3548C24.829 91.1731 30.2494 92.3735 30.9507 95.0278Z" fill="url(#paint16_radial_112_518)"/>
<path d="M9.25051 86.3341C10.2466 83.7506 15.7826 83.0162 21.6097 84.6975C27.4404 86.3789 31.3575 89.8347 30.3577 92.4182C29.3617 95.0017 23.8256 95.7362 17.9985 94.0548C12.1678 92.3735 8.25073 88.9176 9.25051 86.3341Z" fill="url(#paint17_radial_112_518)"/>
<path d="M31.7489 85.5848C34.9011 85.5848 37.4528 89.8906 37.4528 95.203C37.4528 100.515 34.8974 104.821 31.7489 104.821C28.5966 104.821 26.0449 100.515 26.0449 95.203C26.0449 89.8906 28.6003 85.5848 31.7489 85.5848Z" fill="url(#paint18_radial_112_518)"/>
<path d="M67.1104 109.686C70.0128 108.624 74.3066 111.729 76.6978 116.624C79.0928 121.515 78.6787 126.343 75.7764 127.406C72.8741 128.468 68.5803 125.363 66.189 120.468C63.7978 115.573 64.2081 110.749 67.1104 109.686Z" fill="url(#paint19_radial_112_518)"/>
<path d="M38.9416 88.7536C41.8439 87.6911 46.1377 90.7965 48.529 95.6914C50.924 100.583 50.5099 105.41 47.6075 106.473C44.7052 107.535 40.4114 104.43 38.0201 99.535C35.6252 94.6438 36.0393 89.8161 38.9416 88.7536Z" fill="url(#paint20_radial_112_518)"/>
<path d="M88.1208 86.2036C90.2024 88.2503 88.1506 92.75 83.5397 96.2618C78.9288 99.7699 73.501 100.959 71.4193 98.9124C69.3377 96.8657 71.3895 92.366 76.0004 88.8542C80.6113 85.3462 86.0392 84.1569 88.1208 86.2036Z" fill="url(#paint21_radial_112_518)"/>
<path d="M72.6613 90.0509C75.5636 88.9885 79.8575 92.0939 82.2487 96.9888C84.6437 101.88 84.2296 106.708 81.3273 107.77C78.425 108.833 74.1311 105.727 71.7399 100.832C69.3449 95.9412 69.759 91.1134 72.6613 90.0509Z" fill="url(#paint22_radial_112_518)"/>
<path d="M73.6322 84.8793C74.1291 79.5864 71.991 75.0575 68.8567 74.7636C65.7223 74.4697 62.7785 78.5222 62.2816 83.8151C61.7847 89.108 63.9227 93.637 67.0571 93.9308C70.1915 94.2247 73.1352 90.1722 73.6322 84.8793Z" fill="url(#paint23_radial_112_518)"/>
<path d="M66.4611 62.199C69.5351 62.8029 70.9191 67.4927 69.5537 72.6709C68.1884 77.8491 64.5922 81.5585 61.5219 80.9546C58.448 80.3506 57.064 75.6608 58.4294 70.4826C59.7947 65.3044 63.3909 61.595 66.4611 62.199Z" fill="url(#paint24_radial_112_518)"/>
<path d="M31.3683 94.9794C33.3343 97.1081 31.0326 101.522 26.2277 104.833C21.4228 108.143 15.9353 109.105 13.973 106.972C12.007 104.844 14.3088 100.43 19.1136 97.1192C23.9185 93.8088 29.4061 92.8469 31.3683 94.9794Z" fill="url(#paint25_radial_112_518)"/>
<path d="M45.5632 74.7586C47.5292 76.8873 45.2274 81.3013 40.4225 84.6118C35.6177 87.9222 30.1301 88.8841 28.1678 86.7516C26.2019 84.623 28.5036 80.209 33.3085 76.8985C38.1134 73.588 43.6009 72.6262 45.5632 74.7586Z" fill="url(#paint26_radial_112_518)"/>
<path d="M66.2835 127.743C72.4114 127.362 77.2417 124.847 77.0723 122.127C76.9029 119.406 71.798 117.509 65.6702 117.89C59.5423 118.271 54.712 120.786 54.8814 123.506C55.0508 126.227 60.1557 128.124 66.2835 127.743Z" fill="url(#paint27_radial_112_518)"/>
<path d="M64.2938 78.7287C70.4216 78.3477 75.2519 75.8332 75.0825 73.1125C74.9132 70.3917 69.8083 68.495 63.6804 68.8759C57.5526 69.2569 52.7223 71.7714 52.8917 74.4921C53.061 77.2129 58.1659 79.1096 64.2938 78.7287Z" fill="url(#paint28_radial_112_518)"/>
<path d="M69.5538 113.15C66.8231 114.51 62.1227 111.886 59.0487 107.286C55.9748 102.685 55.6987 97.8537 58.4257 96.4892C61.1565 95.1285 65.8569 97.753 68.9308 102.353C72.0048 106.954 72.2808 111.785 69.5538 113.15Z" fill="url(#paint29_radial_112_518)"/>
<path d="M94.7272 94.491C96.1746 96.9105 92.9216 100.851 87.4639 103.289C82.0062 105.727 76.4067 105.742 74.9592 103.323C73.5118 100.903 76.7648 96.9627 82.2225 94.5245C87.6802 92.0864 93.2797 92.0715 94.7272 94.491Z" fill="url(#paint30_radial_112_518)"/>
<path d="M14.6497 97.4676C20.7459 96.8112 25.4506 94.0785 25.1579 91.3641C24.8652 88.6497 19.686 86.9814 13.5898 87.6378C7.49368 88.2942 2.78902 91.0269 3.0817 93.7413C3.37438 96.4557 8.55357 98.124 14.6497 97.4676Z" fill="url(#paint31_radial_112_518)"/>
<path d="M57.4035 123.726C55.3219 125.773 49.894 124.584 45.2831 121.075C40.6722 117.567 38.6204 113.064 40.7021 111.017C42.7837 108.971 48.2116 110.16 52.8225 113.668C57.4334 117.176 59.4851 121.679 57.4035 123.726Z" fill="url(#paint32_radial_112_518)"/>
<path d="M56.5978 90.2746C54.5162 92.3213 49.0883 91.132 44.4774 87.624C39.8665 84.1159 37.8148 79.6125 39.8964 77.5658C41.978 75.5191 47.4059 76.7084 52.0168 80.2164C56.6277 83.7245 58.6795 88.2279 56.5978 90.2746Z" fill="url(#paint33_radial_112_518)"/>
<path d="M82.152 80.496C80.0704 82.5427 74.6425 81.3535 70.0316 77.8454C65.4207 74.3374 63.369 69.8339 65.4506 67.7872C67.5322 65.7406 72.9601 66.9298 77.571 70.4379C82.1819 73.9459 84.2337 78.4494 82.152 80.496Z" fill="url(#paint34_radial_112_518)"/>
<path d="M52.8115 107.908C53.3263 110.596 48.8274 113.478 42.7653 114.343C36.7032 115.211 31.3723 113.735 30.8575 111.047C30.3427 108.359 34.8417 105.477 40.9038 104.613C46.9658 103.744 52.2967 105.22 52.8115 107.908Z" fill="url(#paint35_radial_112_518)"/>
<path d="M87.4528 76.1417C85.4869 78.2704 79.9993 77.3123 75.1981 74.0018C70.3932 70.6914 68.0915 66.2774 70.0575 64.1487C72.0235 62.02 77.511 62.9781 82.3122 66.2886C87.1171 69.5991 89.4188 74.013 87.4528 76.1417Z" fill="url(#paint36_radial_112_518)"/>
<path d="M87.6841 81.0478C88.1989 83.7357 83.6999 86.6174 77.6378 87.4823C71.5758 88.351 66.2449 86.8747 65.7301 84.1868C65.2153 81.4989 69.7142 78.6171 75.7763 77.7522C81.8384 76.8836 87.1693 78.3599 87.6841 81.0478Z" fill="url(#paint37_radial_112_518)"/>
<path d="M50.1852 108.475C48.1036 110.521 42.6757 109.332 38.0648 105.824C33.4539 102.316 31.4022 97.8127 33.4838 95.766C35.5654 93.7193 40.9933 94.9085 45.6042 98.4166C50.2151 101.925 52.2669 106.428 50.1852 108.475Z" fill="url(#paint38_radial_112_518)"/>
<path d="M23.0943 103.397C21.9527 105.936 16.3831 106.432 10.6568 104.504C4.93044 102.577 1.21486 98.9572 2.36013 96.4184C3.50166 93.8796 9.07129 93.3838 14.7976 95.3112C20.5239 97.2385 24.2395 100.858 23.0943 103.397Z" fill="url(#paint39_radial_112_518)"/>
<path d="M65.2451 97.8052C64.1036 100.344 58.534 100.84 52.8076 98.9124C47.0813 96.985 43.3657 93.3651 44.511 90.8264C45.6525 88.2876 51.2222 87.7918 56.9485 89.7192C62.6748 91.6465 66.3904 95.2664 65.2451 97.8052Z" fill="url(#paint40_radial_112_518)"/>
<path d="M48.0365 115.07C47.1226 112.464 51.1515 109.101 57.0345 107.565C62.9175 106.029 68.4237 106.894 69.334 109.504C70.2479 112.11 66.219 115.472 60.336 117.008C54.453 118.544 48.9468 117.679 48.0365 115.07Z" fill="url(#paint41_radial_112_518)"/>
<path d="M37.8335 81.7039C38.3483 84.3918 33.8493 87.2736 27.7872 88.1385C21.7252 89.0034 16.3943 87.5308 15.8795 84.8429C15.3647 82.155 19.8637 79.2733 25.9257 78.4084C31.9878 77.5397 37.3187 79.016 37.8335 81.7039Z" fill="url(#paint42_radial_112_518)"/>
<path d="M16.111 96.821C19.1663 96.1574 22.8595 99.796 24.3554 104.948C25.8513 110.1 24.5867 114.816 21.5314 115.476C18.4761 116.136 14.7829 112.501 13.287 107.349C11.7911 102.197 13.0557 97.4809 16.111 96.821Z" fill="url(#paint43_radial_112_518)"/>
<path d="M56.568 95.4193C55.7995 92.7761 60.0113 89.5849 65.9689 88.2913C71.9302 86.9977 77.3805 88.09 78.149 90.7332C78.9175 93.3763 74.7057 96.5675 68.7481 97.8611C62.7905 99.1547 57.3365 98.0624 56.568 95.4193Z" fill="url(#paint44_radial_112_518)"/>
<path d="M57.9933 103.621C60.7614 104.926 60.6196 109.761 57.68 114.425C54.7403 119.088 50.1108 121.814 47.3465 120.509C44.5784 119.204 44.7202 114.369 47.6598 109.705C50.5995 105.041 55.229 102.316 57.9933 103.621Z" fill="url(#paint45_radial_112_518)"/>
<path d="M87.5016 109.806C90.2697 111.11 90.1279 115.946 87.1883 120.609C84.2486 125.273 79.6191 127.998 76.8548 126.694C74.0867 125.389 74.2285 120.554 77.1681 115.89C80.1078 111.226 84.7373 108.501 87.5016 109.806Z" fill="url(#paint46_radial_112_518)"/>
<path d="M83.0171 69.9383C84.2818 72.4324 80.7415 76.1827 75.1122 78.3114C69.4829 80.4401 63.8946 80.1456 62.6336 77.6478C61.369 75.1538 64.9093 71.4034 70.5386 69.2747C76.1679 67.146 81.7562 67.4405 83.0171 69.9383Z" fill="url(#paint47_radial_112_518)"/>
<path d="M89.3108 115.327C88.3148 117.91 82.7787 118.645 76.9516 116.963C71.1209 115.282 67.2039 111.826 68.2036 109.243C69.1997 106.659 74.7357 105.925 80.5628 107.606C86.3936 109.287 90.3106 112.743 89.3108 115.327Z" fill="url(#paint48_radial_112_518)"/>
<path d="M77.5485 96.7166C79.5145 98.8453 77.2128 103.259 72.4079 106.57C67.603 109.88 62.1154 110.842 60.1532 108.71C58.1872 106.581 60.4889 102.167 65.2938 98.8565C70.0987 95.546 75.5863 94.5842 77.5485 96.7166Z" fill="url(#paint49_radial_112_518)"/>
<path d="M67.7635 82.2892C69.3377 84.6491 66.3011 88.7126 60.9814 91.3707C55.6617 94.025 50.0697 94.2673 48.4917 91.9075C46.9174 89.5477 49.954 85.4841 55.2737 82.8261C60.5934 80.1717 66.1855 79.9294 67.7635 82.2892Z" fill="url(#paint50_radial_112_518)"/>
<path d="M41.2247 116.113C40.3704 118.734 34.8829 119.696 28.97 118.253C23.0534 116.814 18.9536 113.523 19.8079 110.898C20.6622 108.277 26.1498 107.315 32.0626 108.758C37.9792 110.197 42.079 113.489 41.2247 116.113Z" fill="url(#paint51_radial_112_518)"/>
<path d="M61.8436 122.31C67.9714 121.929 72.8018 119.415 72.6324 116.694C72.463 113.973 67.3581 112.076 61.2302 112.457C55.1024 112.838 50.2721 115.353 50.4415 118.073C50.6108 120.794 55.7157 122.691 61.8436 122.31Z" fill="url(#paint52_radial_112_518)"/>
<path d="M114.608 119.163C115.275 121.825 120.688 123.07 126.691 121.94C132.697 120.811 137.02 117.739 136.353 115.077C135.685 112.415 130.272 111.17 124.27 112.3C118.263 113.429 113.94 116.501 114.608 119.163Z" fill="url(#paint53_radial_112_518)"/>
<path d="M103.983 103.628C104.651 106.29 110.064 107.535 116.066 106.406C122.069 105.276 126.396 102.204 125.728 99.5424C125.06 96.8806 119.647 95.6355 113.645 96.7651C107.639 97.8947 103.315 100.967 103.983 103.628Z" fill="url(#paint54_radial_112_518)"/>
<path d="M89.3409 100.355C90.0087 103.017 95.4217 104.262 101.424 103.133C107.426 102.003 111.754 98.9311 111.086 96.2693C110.418 93.6075 105.005 92.3623 99.0029 93.4919C93.0006 94.6215 88.6732 97.6933 89.3409 100.355Z" fill="url(#paint55_radial_112_518)"/>
<path d="M78.8918 107.245C79.5595 109.906 84.9725 111.151 90.9749 110.022C96.981 108.892 101.305 105.82 100.637 103.159C99.9691 100.497 94.5562 99.2517 88.5538 100.381C82.5477 101.511 78.224 104.583 78.8918 107.245Z" fill="url(#paint56_radial_112_518)"/>
<path d="M104.651 79.5454C105.318 82.2072 110.731 83.4524 116.734 82.3228C122.74 81.1932 127.063 78.1213 126.396 75.4595C125.728 72.7977 120.315 71.5525 114.313 72.6821C108.306 73.8117 103.983 76.8836 104.651 79.5454Z" fill="url(#paint57_radial_112_518)"/>
<path d="M135.935 109.41C136.602 112.072 142.015 113.317 148.018 112.188C154.024 111.058 158.348 107.986 157.68 105.325C157.012 102.663 151.599 101.418 145.597 102.547C139.594 103.677 135.267 106.749 135.935 109.41Z" fill="url(#paint58_radial_112_518)"/>
<path d="M124.616 103.8C123.915 106.454 128.205 109.563 134.2 110.745C140.191 111.923 145.615 110.726 146.316 108.072C147.018 105.418 142.728 102.309 136.733 101.127C130.742 99.9488 125.317 101.145 124.616 103.8Z" fill="url(#paint59_radial_112_518)"/>
<path d="M106.27 94.875C105.569 97.5293 109.859 100.638 115.854 101.82C121.848 103.002 127.269 101.802 127.97 99.1473C128.672 96.493 124.382 93.3838 118.387 92.202C112.395 91.024 106.971 92.2206 106.27 94.875Z" fill="url(#paint60_radial_112_518)"/>
<path d="M113.865 92.8022C115.007 95.341 120.576 95.8368 126.303 93.9094C132.029 91.982 135.744 88.3621 134.599 85.8233C133.458 83.2846 127.888 82.7887 122.162 84.7161C116.435 86.6435 112.72 90.2634 113.865 92.8022Z" fill="url(#paint61_radial_112_518)"/>
<path d="M127.53 75.1202C128.772 72.6188 126.015 69.189 121.367 67.4666C116.722 65.7443 111.947 66.3743 110.705 68.8796C109.463 71.3811 112.22 74.8108 116.868 76.5332C121.512 78.2555 126.287 77.6255 127.53 75.1202Z" fill="url(#paint62_radial_112_518)"/>
<path d="M93.4109 92.8656C94.5524 95.4043 100.122 95.9002 105.848 93.9728C111.575 92.0454 115.29 88.4255 114.145 85.8867C113.004 83.348 107.434 82.8521 101.708 84.7795C95.9812 86.7069 92.2656 90.3268 93.4109 92.8656Z" fill="url(#paint63_radial_112_518)"/>
<path d="M135.569 76.3467C133.883 78.6469 136.718 82.8186 141.907 85.663C147.096 88.5075 152.67 88.9512 154.36 86.6472C156.05 84.3433 153.211 80.1754 148.022 77.3309C142.833 74.4865 137.259 74.0428 135.569 76.3467Z" fill="url(#paint64_radial_112_518)"/>
<path d="M82.8905 64.0145C81.2043 66.3147 84.0395 70.4863 89.2287 73.3308C94.4178 76.1753 99.9912 76.6189 101.681 74.315C103.367 72.0148 100.532 67.8432 95.343 64.9987C90.1538 62.1542 84.5804 61.7106 82.8905 64.0145Z" fill="url(#paint65_radial_112_518)"/>
<path d="M98.3461 66.557C96.6599 68.8572 99.4951 73.0288 104.684 75.8733C109.873 78.7178 115.447 79.1614 117.137 76.8575C118.827 74.5536 115.988 70.3857 110.799 67.5412C105.609 64.6967 100.036 64.2531 98.3461 66.557Z" fill="url(#paint66_radial_112_518)"/>
<path d="M126.123 69.4015C123.467 70.8703 124.001 75.6869 127.313 80.1605C130.626 84.6341 135.461 87.0723 138.117 85.6034C140.773 84.1346 140.24 79.318 136.927 74.8444C133.614 70.3708 128.78 67.9326 126.123 69.4015Z" fill="url(#paint67_radial_112_518)"/>
<path d="M83.3831 91.6614C84.5246 94.2002 90.0942 94.696 95.8206 92.7687C101.547 90.8413 105.262 87.2214 104.117 84.6826C102.976 82.1438 97.406 81.648 91.6797 83.5754C85.9534 85.5028 82.2378 89.1227 83.3831 91.6614Z" fill="url(#paint68_radial_112_518)"/>
<path d="M100.04 78.9414C101.181 81.4802 106.751 81.976 112.477 80.0487C118.204 78.1213 121.919 74.5014 120.774 71.9626C119.632 69.4238 114.063 68.928 108.336 70.8554C102.61 72.7828 98.8946 76.4027 100.04 78.9414Z" fill="url(#paint69_radial_112_518)"/>
<path d="M141.736 99.4492C141.034 102.104 145.324 105.213 151.319 106.395C157.311 107.573 162.735 106.376 163.436 103.722C164.137 101.067 159.847 97.958 153.852 96.7763C147.861 95.5982 142.437 96.7949 141.736 99.4492Z" fill="url(#paint70_radial_112_518)"/>
<path d="M125.247 87.1766C124.546 89.831 128.836 92.9401 134.831 94.1219C140.822 95.3 146.246 94.1033 146.947 91.4489C147.649 88.7946 143.359 85.6854 137.364 84.5036C131.372 83.3256 125.948 84.5223 125.247 87.1766Z" fill="url(#paint71_radial_112_518)"/>
<path d="M135.032 95.0278C134.331 97.6822 138.621 100.791 144.616 101.973C150.607 103.151 156.031 101.954 156.732 99.3001C157.434 96.6458 153.144 93.5366 147.149 92.3548C141.158 91.1768 135.733 92.3735 135.032 95.0278Z" fill="url(#paint72_radial_112_518)"/>
<path d="M156.728 86.3341C155.732 83.7506 150.196 83.0162 144.369 84.6975C138.538 86.3788 134.621 89.8347 135.621 92.4182C136.617 95.0017 142.153 95.7361 147.98 94.0548C153.807 92.3735 157.728 88.9176 156.728 86.3341Z" fill="url(#paint73_radial_112_518)"/>
<path d="M125.881 88.8468C123.799 90.8935 125.851 95.3932 130.462 98.905C135.073 102.413 140.501 103.602 142.582 101.556C144.664 99.5089 142.612 95.0092 138.001 91.4974C133.39 87.9893 127.962 86.8001 125.881 88.8468Z" fill="url(#paint74_radial_112_518)"/>
<path d="M98.8722 109.392C95.9699 108.329 91.676 111.435 89.2848 116.33C86.8898 121.221 87.3039 126.049 90.2062 127.111C93.1086 128.174 97.4024 125.068 99.7936 120.173C102.189 115.282 101.775 110.454 98.8722 109.392Z" fill="url(#paint75_radial_112_518)"/>
<path d="M132.931 101.406C134.174 98.9049 130.604 95.1769 124.959 93.0818C119.311 90.9866 113.727 91.3184 112.485 93.8199C111.242 96.3214 114.812 100.049 120.457 102.145C126.105 104.24 131.689 103.908 132.931 101.406Z" fill="url(#paint76_radial_112_518)"/>
<path d="M93.3213 90.0509C90.419 88.9884 86.1252 92.0939 83.7339 96.9887C81.3427 101.884 81.753 106.708 84.6554 107.77C87.5577 108.833 91.8515 105.727 94.2428 100.832C96.6377 95.9412 96.2236 91.1134 93.3213 90.0509Z" fill="url(#paint77_radial_112_518)"/>
<path d="M98.9343 93.9197C102.069 93.6258 104.207 89.0969 103.71 83.804C103.213 78.5111 100.269 74.4586 97.1347 74.7525C94.0004 75.0463 91.8623 79.5753 92.3592 84.8682C92.8562 90.1611 95.7999 94.2136 98.9343 93.9197Z" fill="url(#paint78_radial_112_518)"/>
<path d="M134.614 94.9794C132.648 97.1081 134.95 101.522 139.755 104.833C144.56 108.143 150.047 109.105 152.009 106.972C153.975 104.844 151.674 100.43 146.869 97.1192C142.064 93.8088 136.576 92.8469 134.614 94.9794Z" fill="url(#paint79_radial_112_518)"/>
<path d="M120.419 74.7586C118.453 76.8873 120.755 81.3013 125.56 84.6118C130.365 87.9222 135.852 88.8841 137.815 86.7516C139.777 84.6192 137.479 80.209 132.674 76.8985C127.869 73.588 122.382 72.6262 120.419 74.7586Z" fill="url(#paint80_radial_112_518)"/>
<path d="M110.15 121.891C110.32 119.17 105.49 116.656 99.3617 116.275C93.2338 115.894 88.1289 117.791 87.9595 120.512C87.7901 123.232 92.6204 125.747 98.7483 126.128C104.876 126.509 109.981 124.612 110.15 121.891Z" fill="url(#paint81_radial_112_518)"/>
<path d="M113.076 74.4777C113.246 71.7569 108.415 69.2425 102.287 68.8615C96.1596 68.4805 91.0547 70.3773 90.8853 73.098C90.7159 75.8188 95.5462 78.3332 101.674 78.7142C107.802 79.0952 112.907 77.1984 113.076 74.4777Z" fill="url(#paint82_radial_112_518)"/>
<path d="M96.4287 113.15C99.1594 114.51 103.86 111.886 106.934 107.286C110.008 102.685 110.284 97.8536 107.557 96.4892C104.826 95.1285 100.126 97.753 97.0517 102.353C93.9777 106.954 93.7017 111.785 96.4287 113.15Z" fill="url(#paint83_radial_112_518)"/>
<path d="M162.906 93.7491C163.199 91.0347 158.494 88.3021 152.398 87.6456C146.302 86.9892 141.122 88.6575 140.83 91.372C140.537 94.0864 145.242 96.819 151.338 97.4754C157.434 98.1318 162.613 96.4635 162.906 93.7491Z" fill="url(#paint84_radial_112_518)"/>
<path d="M108.307 123.726C110.388 125.773 115.816 124.583 120.427 121.075C125.038 117.567 127.09 113.064 125.008 111.017C122.926 108.971 117.498 110.16 112.888 113.668C108.277 117.176 106.225 121.679 108.307 123.726Z" fill="url(#paint85_radial_112_518)"/>
<path d="M109.385 90.2746C111.466 92.3213 116.894 91.132 121.505 87.624C126.116 84.1159 128.168 79.6125 126.086 77.5658C124.005 75.5191 118.577 76.7084 113.966 80.2164C109.355 83.7245 107.303 88.2279 109.385 90.2746Z" fill="url(#paint86_radial_112_518)"/>
<path d="M113.171 107.908C112.656 110.596 117.155 113.478 123.217 114.343C129.279 115.211 134.61 113.735 135.125 111.047C135.64 108.359 131.141 105.477 125.079 104.613C119.017 103.744 113.686 105.22 113.171 107.908Z" fill="url(#paint87_radial_112_518)"/>
<path d="M78.2984 81.0478C77.7836 83.7357 82.2826 86.6174 88.3447 87.4823C94.4067 88.351 99.7376 86.8747 100.252 84.1868C100.767 81.4989 96.2683 78.6171 90.2062 77.7522C84.1441 76.8836 78.8132 78.3599 78.2984 81.0478Z" fill="url(#paint88_radial_112_518)"/>
<path d="M135.236 102.804C135.405 100.083 130.575 97.569 124.447 97.1881C118.319 96.8071 113.214 98.7038 113.045 101.425C112.876 104.145 117.706 106.66 123.834 107.041C129.962 107.422 135.066 105.525 135.236 102.804Z" fill="url(#paint89_radial_112_518)"/>
<path d="M142.888 103.397C144.03 105.936 149.6 106.432 155.326 104.504C161.052 102.577 164.768 98.9572 163.623 96.4184C162.481 93.8796 156.911 93.3838 151.185 95.3112C145.459 97.2385 141.743 100.858 142.888 103.397Z" fill="url(#paint90_radial_112_518)"/>
<path d="M100.04 95.7063C101.181 98.2451 106.751 98.7409 112.477 96.8136C118.204 94.8862 121.919 91.2663 120.774 88.7275C119.632 86.1887 114.063 85.6929 108.336 87.6203C102.61 89.5477 98.8946 93.1676 100.04 95.7063Z" fill="url(#paint91_radial_112_518)"/>
<path d="M117.942 115.07C118.856 112.464 114.827 109.101 108.944 107.565C103.061 106.029 97.5552 106.894 96.6449 109.504C95.731 112.11 99.7599 115.472 105.643 117.008C111.526 118.544 117.032 117.679 117.942 115.07Z" fill="url(#paint92_radial_112_518)"/>
<path d="M128.149 81.7039C127.634 84.3918 132.133 87.2736 138.195 88.1385C144.257 89.0071 149.588 87.5308 150.103 84.8429C150.618 82.155 146.119 79.2733 140.057 78.4084C133.995 77.5435 128.664 79.016 128.149 81.7039Z" fill="url(#paint93_radial_112_518)"/>
<path d="M154.96 111.017C155.956 108.434 152.039 104.978 146.212 103.297C140.381 101.615 134.849 102.35 133.853 104.933C132.857 107.517 136.774 110.973 142.601 112.654C148.432 114.335 153.964 113.601 154.96 111.017Z" fill="url(#paint94_radial_112_518)"/>
<path d="M108.993 96.5675C110.135 94.0287 106.419 90.4088 100.696 88.4814C94.97 86.5541 89.4004 87.0499 88.2588 89.5887C87.1173 92.1274 90.8329 95.7473 96.5555 97.6747C102.282 99.6021 107.851 99.1063 108.993 96.5675Z" fill="url(#paint95_radial_112_518)"/>
<path d="M101.416 108.396C100.748 111.058 105.072 114.13 111.078 115.26C117.084 116.389 122.494 115.144 123.161 112.482C123.829 109.821 119.505 106.749 113.499 105.619C107.493 104.49 102.084 105.735 101.416 108.396Z" fill="url(#paint96_radial_112_518)"/>
<path d="M82.0627 70.9486C80.8204 73.4501 84.3905 77.1781 90.0347 79.2733C95.6827 81.3684 101.267 81.0366 102.51 78.5351C103.752 76.0336 100.182 72.3056 94.5375 70.2105C88.8895 68.1153 83.3049 68.4471 82.0627 70.9486Z" fill="url(#paint97_radial_112_518)"/>
<path d="M82.6705 114.66C84.3679 116.956 89.9412 116.494 95.1154 113.631C100.29 110.767 103.11 106.588 101.413 104.292C99.7151 101.995 94.1418 102.458 88.9676 105.321C83.7934 108.184 80.9731 112.363 82.6705 114.66Z" fill="url(#paint98_radial_112_518)"/>
<path d="M98.3796 81.7897C97.1373 84.2912 100.707 88.0192 106.352 90.1143C112 92.2095 117.584 91.8777 118.826 89.3762C120.069 86.8747 116.499 83.1467 110.854 81.0515C105.206 78.9564 99.6218 79.2882 98.3796 81.7897Z" fill="url(#paint99_radial_112_518)"/>
<path d="M124.758 116.113C125.612 118.734 131.1 119.696 137.013 118.253C142.929 116.814 147.029 113.523 146.175 110.898C145.321 108.277 139.833 107.315 133.92 108.758C128.004 110.197 123.904 113.489 124.758 116.113Z" fill="url(#paint100_radial_112_518)"/>
<path d="M94.0745 120.863C95.216 123.402 100.786 123.898 106.512 121.97C112.238 120.043 115.954 116.423 114.809 113.884C113.667 111.345 108.097 110.85 102.371 112.777C96.6448 114.704 92.9292 118.324 94.0745 120.863Z" fill="url(#paint101_radial_112_518)"/>
<path d="M126.855 89.5886C126.855 89.5886 117.555 91.1395 106.93 93.8572C103.692 94.6848 100.331 95.6205 97.0667 96.6569H97.0593C87.9456 99.5498 79.6266 103.188 76.9929 107.364C76.9929 107.364 73.9338 103.021 68.8827 98.3457C66.3908 96.0418 63.425 93.6559 60.0937 91.6763C55.4641 88.9213 50.1482 86.9492 44.5039 87.0573C44.5039 87.0573 49.5363 83.2808 57.4114 79.7504C62.7871 77.3495 69.4871 75.0605 76.8175 74.177C80.1116 73.7781 83.5362 73.6625 87.0242 73.9533C87.0242 73.9533 88.5836 74.0913 91.1427 74.4902C95.5782 75.1873 103.024 76.671 110.53 79.646C116.391 81.9574 122.296 85.1635 126.859 89.5923L126.855 89.5886Z" fill="#E84E31"/>
<path d="M77.8472 48.3345C77.8472 58.8102 77.4778 67.3287 76.8138 74.1771C75.3365 89.5029 72.4118 96.4967 68.879 98.3458C66.3871 96.0419 63.4213 93.6559 60.09 91.6764C59.0268 88.7536 58.1203 84.8392 57.4077 79.7505C56.3445 72.123 55.729 61.8523 55.729 48.3308C55.729 9.95464 61.3322 0.947754 67.4353 0.947754C73.5384 0.947754 77.8434 9.95091 77.8434 48.3308L77.8472 48.3345Z" fill="black"/>
<path d="M58.3477 26.2349C58.3477 26.2349 57.7247 17.8133 62.5856 15.4572C66.8794 15.1478 66.995 24.1285 66.995 24.7474C66.995 25.3662 67.1629 35.1523 61.9663 33.2323C59.5937 32.4271 58.9707 31.5585 58.3477 26.2349Z" fill="white"/>
<path d="M112.197 48.3343C112.197 61.7961 111.585 72.0258 110.53 79.6421C109.631 86.1885 108.399 90.8001 106.933 93.857C103.695 94.6847 100.334 95.6204 97.0699 96.6568H97.0625C94.4549 93.4805 92.3397 86.6322 91.1422 74.49C90.4632 67.582 90.0864 58.9628 90.0864 48.3343C90.0864 9.95814 95.6896 0.951263 101.793 0.951263C107.896 0.951263 112.201 9.95441 112.201 48.3343H112.197Z" fill="black"/>
<path d="M93.8018 25.9476C93.8018 25.9476 93.1788 17.526 98.0397 15.1699C102.333 14.8605 102.449 23.8412 102.449 24.4601C102.449 25.0789 102.617 34.865 97.4204 32.945C95.0478 32.1398 94.4248 31.2712 93.8018 25.9476Z" fill="white"/>
<path d="M165.202 55.9431C165.219 55.9606 165.238 55.9866 165.259 56.0211C165.281 56.0557 165.31 56.1273 165.347 56.2358C165.389 56.3389 165.406 56.444 165.397 56.5513C165.394 56.6644 165.353 56.8019 165.275 56.9638C165.197 57.1257 165.074 57.2863 164.905 57.4457C164.469 57.8578 163.908 57.9749 163.223 57.7971C162.537 57.6193 161.92 57.2396 161.371 56.6582C161.085 56.3558 160.867 56.0611 160.716 55.7739C160.572 55.4925 160.487 55.1817 160.463 54.8414C160.438 54.5012 160.528 54.1359 160.731 53.7455C160.946 53.3554 161.277 52.9488 161.725 52.5257L162.562 51.7345C162.183 51.3333 162.276 50.8662 162.84 50.3332C162.956 50.2233 163.089 50.1139 163.239 50.005C163.39 49.896 163.505 49.8144 163.586 49.7601L163.724 49.6791C163.844 49.8297 164 50.018 164.192 50.2441L165.718 48.8017C166.321 49.2885 166.774 49.6918 167.076 50.0116C167.373 50.3256 167.507 50.683 167.479 51.084C167.462 51.4854 167.279 51.8509 166.93 52.1805C166.854 52.252 166.692 52.3945 166.442 52.6082L167.543 53.5985C167.528 53.9433 167.302 54.3217 166.866 54.7338C166.279 55.2888 165.559 55.1157 164.708 54.2144L164.609 54.1098C164.453 54.2242 164.302 54.3501 164.157 54.4875C163.738 54.8831 163.586 55.2466 163.701 55.5781C163.738 55.6754 163.787 55.756 163.847 55.8199C164.034 56.0176 164.238 56.1281 164.458 56.1513C164.684 56.169 164.863 56.1372 164.995 56.0561L165.202 55.9431Z" fill="#EF4B8D"/>
<path d="M173.448 60.8079C173.719 61.1442 173.902 61.4795 173.997 61.814C174.092 62.1484 174.119 62.4301 174.077 62.6589C174.042 62.8827 173.955 63.1066 173.818 63.3308C173.68 63.555 173.557 63.7155 173.45 63.8121C173.355 63.9099 173.244 64.0091 173.12 64.1095L170.351 66.2197C169.811 66.0595 169.397 65.8019 169.111 65.447C168.795 65.0547 168.634 64.645 168.628 64.2177C168.628 63.7966 168.824 63.4279 169.216 63.1115C170.243 62.2827 170.764 61.8777 170.78 61.8963C171.134 61.61 171.194 61.3206 170.958 61.0279C170.872 60.9221 170.764 60.8706 170.633 60.8737C170.513 60.8779 170.417 60.8989 170.345 60.9367C170.272 60.9745 170.205 61.0185 170.143 61.0687L169.087 61.92L167.929 62.8543C167.872 62.8595 167.792 62.8567 167.691 62.8459C167.596 62.83 167.425 62.7576 167.177 62.6287C166.934 62.506 166.722 62.3326 166.541 62.1084C165.848 61.2491 165.997 60.3633 166.988 59.451C169.759 57.2671 171.372 56.0174 171.826 55.7019C172.321 55.8686 172.746 56.173 173.103 56.6151C173.263 56.8143 173.385 56.9838 173.466 57.1234C173.548 57.263 173.611 57.4233 173.654 57.6043C173.703 57.7802 173.685 57.9546 173.598 58.1274C173.511 58.3001 173.362 58.4719 173.15 58.6427L171.516 59.9612C172.331 59.9404 172.975 60.2226 173.448 60.8079Z" fill="#EF4B8D"/>
<path d="M179.472 71.8249C179.235 71.9895 178.712 72.3296 177.901 72.8453C177.101 73.3629 176.505 73.7589 176.111 74.0331C176.069 74.0428 176.011 74.044 175.938 74.0366C175.864 74.0292 175.723 73.9666 175.514 73.8487C175.312 73.7263 175.123 73.5459 174.948 73.3076L174.913 73.2583C174.648 72.8775 174.55 72.5122 174.618 72.1624C174.691 71.8192 174.893 71.5277 175.223 71.288C175.192 71.2998 175.147 71.3118 175.087 71.3241C175.028 71.3364 174.909 71.341 174.732 71.3379C174.554 71.3348 174.378 71.3062 174.204 71.252C174.03 71.1978 173.829 71.0842 173.601 70.9113C173.378 70.7449 173.173 70.5271 172.985 70.2579C172.574 69.667 172.452 69.0159 172.62 68.3045C172.792 67.5998 173.174 67.0417 173.765 66.6304C174.493 66.123 175.254 65.9202 176.046 66.0218C176.849 66.1255 177.507 66.545 178.019 67.2803C178.467 67.9238 178.668 68.4657 178.624 68.906C178.763 68.77 178.846 68.6585 178.874 68.5714C179.316 68.6335 179.739 68.9534 180.141 69.5312C180.415 69.9251 180.472 70.329 180.312 70.7428C180.156 71.1631 179.876 71.5239 179.472 71.8249ZM175.347 70.1637C175.516 70.4066 175.726 70.5333 175.977 70.5438C176.235 70.5497 176.511 70.4498 176.807 70.2442C177.082 70.0522 177.256 69.8678 177.328 69.691C177.405 69.5208 177.358 69.3143 177.189 69.0713C176.792 68.5001 176.284 68.4293 175.667 68.859C175.431 69.0235 175.277 69.223 175.206 69.4575C175.136 69.6919 175.183 69.9273 175.347 70.1637Z" fill="#EF4B8D"/>
<path d="M182.57 79.3721C182.582 79.3927 182.595 79.4222 182.609 79.4606C182.622 79.499 182.635 79.5752 182.647 79.6891C182.666 79.7989 182.66 79.9052 182.629 80.008C182.601 80.1178 182.532 80.2432 182.42 80.3844C182.309 80.5256 182.154 80.6558 181.955 80.775C181.44 81.0831 180.867 81.0764 180.236 80.7547C179.606 80.433 179.085 79.9289 178.674 79.2425C178.46 78.8855 178.311 78.5506 178.226 78.2377C178.146 77.9317 178.13 77.6099 178.18 77.2725C178.23 76.935 178.396 76.5977 178.679 76.2605C178.973 75.926 179.384 75.6006 179.913 75.2842L180.901 74.6925C180.618 74.2189 180.809 73.7828 181.475 73.3843C181.612 73.3021 181.766 73.224 181.936 73.1501C182.106 73.0762 182.237 73.0215 182.327 72.9859L182.479 72.9367C182.564 73.1096 182.676 73.3272 182.814 73.5894L184.616 72.5108C185.1 73.1164 185.455 73.6079 185.681 73.9854C185.902 74.3561 185.956 74.7342 185.842 75.1196C185.739 75.5077 185.481 75.8251 185.069 76.0716C184.98 76.125 184.791 76.2291 184.501 76.3838L185.362 77.5886C185.272 77.9219 184.97 78.2427 184.455 78.5508C183.762 78.9658 183.097 78.6413 182.46 77.5774L182.386 77.4538C182.209 77.5319 182.035 77.6222 181.863 77.7249C181.369 78.0208 181.142 78.343 181.183 78.6915C181.198 78.7944 181.228 78.8836 181.273 78.9591C181.413 79.1925 181.588 79.3443 181.798 79.4145C182.014 79.4806 182.196 79.4883 182.343 79.4377L182.57 79.3721Z" fill="#EF4B8D"/>
<path d="M190.32 80.3281C190.346 80.3596 190.374 80.4036 190.404 80.46C190.518 80.6717 190.536 80.8842 190.459 81.0974C190.386 81.3177 190.25 81.5039 190.05 81.656C190.011 81.6856 189.953 81.7212 189.876 81.7627C189.537 81.9435 189.155 81.9931 188.731 81.9115C188.313 81.8261 188.025 81.6763 187.865 81.4623C187.858 81.4482 187.847 81.436 187.832 81.4256C187.824 81.4115 187.817 81.3974 187.809 81.3833C187.757 81.2845 187.727 81.1779 187.72 81.0635C187.721 80.9454 187.734 80.852 187.761 80.7833L187.807 80.6908C188.149 80.9071 188.464 81.0203 188.75 81.0305C188.68 80.6781 188.794 80.3905 189.092 80.1678C189.117 80.1456 189.153 80.1214 189.203 80.095C189.393 79.9933 189.595 79.9628 189.807 80.0036C190.019 80.0445 190.19 80.1526 190.32 80.3281Z" fill="#EF4B8D"/>
<path d="M188.193 87.5054C188.161 87.5298 188.14 87.5705 188.132 87.6276C188.127 87.692 188.136 87.7673 188.16 87.8536C188.187 87.9472 188.21 88.0335 188.23 88.1126C188.257 88.1883 188.289 88.2748 188.327 88.3721C188.372 88.466 188.399 88.5327 188.409 88.5723C188.443 88.6624 188.477 88.7614 188.511 88.8694C188.548 88.9847 188.579 89.1516 188.603 89.3704C188.638 89.5929 188.639 89.8005 188.607 89.9931C188.578 90.1929 188.488 90.3952 188.338 90.5998C188.191 90.8117 187.987 90.9796 187.727 91.1034C186.42 91.726 185.283 91.0225 184.316 88.9929C184.106 88.5523 183.96 88.1792 183.876 87.8734C183.796 87.5749 183.781 87.3294 183.831 87.1372C183.885 86.9521 183.957 86.8068 184.049 86.7012C184.144 86.6028 184.289 86.4983 184.484 86.3875C184.686 86.2912 184.882 86.2735 185.07 86.3344C185.262 86.4024 185.402 86.491 185.489 86.6L185.615 86.7796C185.592 87.4197 185.688 87.9672 185.905 88.4222C186.07 88.7689 186.2 88.9199 186.294 88.8752C186.337 88.8546 186.349 88.7868 186.33 88.6719C186.318 88.5536 186.295 88.4405 186.261 88.3325L186.195 88.1648C186.167 88.107 186.135 88.0295 186.097 87.9321C186.07 87.8386 186.038 87.659 186 87.3935C185.969 87.1245 185.969 86.8722 185.998 86.6366C186.035 86.3976 186.146 86.1457 186.33 85.8808C186.514 85.616 186.775 85.4027 187.115 85.241C187.454 85.0794 187.788 85.0178 188.117 85.0563C188.456 85.0986 188.738 85.2078 188.964 85.3839C189.197 85.5565 189.399 85.7393 189.571 85.9323C189.753 86.129 189.886 86.3051 189.968 86.4605L190.109 86.6994C190.336 87.1761 190.494 87.6014 190.584 87.9753C190.68 88.3457 190.723 88.631 190.712 88.8312C190.712 89.0351 190.656 89.2166 190.546 89.3755C190.446 89.5382 190.351 89.6455 190.261 89.6974C190.181 89.7531 190.069 89.8154 189.924 89.8842C189.773 89.9564 189.61 89.9587 189.436 89.8909C189.269 89.8197 189.136 89.7277 189.038 89.6149L188.897 89.4565C188.951 89.0318 188.817 88.4799 188.494 87.801C188.383 87.5698 188.283 87.4713 188.193 87.5054Z" fill="#EF4B8D"/>
<path d="M195.436 99.9179C195.574 100.327 195.629 100.706 195.601 101.052C195.574 101.399 195.501 101.672 195.383 101.872C195.272 102.07 195.113 102.25 194.905 102.412C194.698 102.574 194.528 102.682 194.394 102.735C194.27 102.794 194.132 102.848 193.98 102.899L190.65 103.914C190.199 103.575 189.901 103.19 189.756 102.758C189.596 102.28 189.588 101.84 189.732 101.437C189.878 101.042 190.19 100.765 190.668 100.605C191.919 100.185 192.549 99.987 192.556 100.01C192.989 99.8648 193.145 99.6141 193.026 99.2576C192.983 99.1287 192.899 99.0428 192.775 99C192.661 98.9622 192.564 98.9485 192.483 98.9587C192.402 98.9689 192.323 98.9868 192.247 99.0122L190.962 99.4431L189.551 99.9159C189.495 99.9008 189.422 99.8705 189.331 99.8251C189.247 99.7772 189.111 99.6497 188.924 99.4425C188.739 99.2429 188.601 99.0066 188.509 98.7336C188.158 97.6868 188.606 96.9081 189.853 96.3976C193.21 95.3146 195.157 94.7043 195.694 94.5669C196.099 94.8951 196.392 95.3285 196.572 95.8671C196.654 96.1098 196.708 96.3108 196.736 96.4702C196.764 96.6295 196.767 96.8015 196.745 96.9862C196.73 97.1684 196.652 97.3254 196.51 97.4572C196.369 97.5889 196.169 97.698 195.911 97.7845L193.92 98.4517C194.692 98.7161 195.198 99.2048 195.436 99.9179Z" fill="#EF4B8D"/>
<path d="M197.929 108.058C198.038 108.558 198.079 109.012 198.053 109.419C198.028 109.834 197.943 110.175 197.797 110.445C197.651 110.714 197.491 110.941 197.319 111.126C197.148 111.319 196.936 111.475 196.684 111.595C196.44 111.714 196.241 111.798 196.088 111.848C195.935 111.897 195.769 111.942 195.589 111.981C195.37 112.029 195.156 112.063 194.948 112.083C194.74 112.104 194.462 112.087 194.114 112.032C193.768 111.984 193.459 111.879 193.186 111.718C192.915 111.564 192.648 111.294 192.384 110.909C192.122 110.533 191.929 110.059 191.805 109.488C191.342 107.362 192.155 106.072 194.242 105.618C194.43 105.577 194.624 105.547 194.824 105.528C195.027 105.517 195.297 105.536 195.635 105.585C195.975 105.642 196.28 105.748 196.551 105.902C196.832 106.062 197.101 106.322 197.36 106.684C197.62 107.053 197.81 107.511 197.929 108.058ZM193.949 109.071C193.998 109.298 194.135 109.473 194.358 109.596C194.581 109.719 194.83 109.751 195.103 109.692C195.369 109.634 195.574 109.504 195.718 109.3C195.862 109.097 195.91 108.882 195.861 108.655C195.808 108.413 195.673 108.225 195.456 108.092C195.24 107.967 195 107.934 194.734 107.992C194.46 108.051 194.247 108.183 194.095 108.388C193.945 108.601 193.896 108.829 193.949 109.071Z" fill="#EF4B8D"/>
<path d="M198.657 113.939C199.163 114.383 199.436 114.952 199.475 115.647C199.523 116.502 199.227 117 198.586 117.14C198.301 117.204 197.958 117.292 197.555 117.403C197.161 117.521 196.838 117.62 196.586 117.698L196.208 117.816L199.416 118.427C199.583 118.546 199.681 118.861 199.71 119.372C199.743 119.947 199.683 120.387 199.532 120.692C199.381 120.997 199.075 121.239 198.612 121.417C198.15 121.604 197.457 121.743 196.532 121.836L199.676 122.595C199.832 122.795 199.92 123.074 199.94 123.434C199.966 123.897 199.869 124.291 199.647 124.616C199.425 124.949 199.099 125.128 198.667 125.152C198.46 125.164 198.161 125.133 197.773 125.059C197.392 124.984 196.96 124.86 196.478 124.687C195.995 124.514 195.539 124.308 195.108 124.068C194.678 123.828 194.312 123.52 194.01 123.145C193.709 122.777 193.546 122.382 193.522 121.958C193.504 121.631 193.538 121.32 193.626 121.027C193.917 120.081 194.788 119.547 196.239 119.424C196.159 119.421 196.055 119.415 195.926 119.406C195.797 119.397 195.566 119.35 195.233 119.265C194.907 119.179 194.612 119.06 194.347 118.907C194.09 118.761 193.849 118.526 193.622 118.203C193.403 117.878 193.282 117.497 193.257 117.057C193.232 116.618 193.401 116.208 193.764 115.827C194.127 115.454 194.575 115.156 195.108 114.933C195.64 114.711 196.174 114.52 196.71 114.362C197.246 114.203 197.704 114.093 198.085 114.031L198.657 113.939Z" fill="#EF4B8D"/>
<path d="M198.353 132.174C198.819 132.66 199.042 133.25 199.021 133.946C198.996 134.802 198.658 135.272 198.007 135.357C197.718 135.396 197.368 135.454 196.958 135.53C196.555 135.614 196.225 135.684 195.967 135.741L195.58 135.826L198.724 136.711C198.88 136.843 198.95 137.165 198.935 137.677C198.918 138.253 198.821 138.686 198.645 138.977C198.468 139.268 198.142 139.483 197.665 139.621C197.189 139.767 196.486 139.846 195.557 139.859L198.624 140.885C198.762 141.098 198.826 141.384 198.815 141.743C198.802 142.207 198.67 142.592 198.421 142.896C198.172 143.209 197.831 143.359 197.399 143.346C197.191 143.34 196.897 143.284 196.516 143.176C196.143 143.069 195.724 142.909 195.258 142.695C194.792 142.481 194.355 142.236 193.947 141.96C193.539 141.684 193.201 141.346 192.932 140.946C192.664 140.554 192.536 140.146 192.548 139.722C192.558 139.394 192.619 139.088 192.731 138.803C193.102 137.885 194.016 137.428 195.473 137.431C195.393 137.421 195.29 137.406 195.162 137.386C195.035 137.366 194.808 137.299 194.484 137.186C194.167 137.072 193.883 136.928 193.632 136.753C193.389 136.585 193.168 136.331 192.97 135.989C192.78 135.647 192.692 135.256 192.705 134.816C192.718 134.377 192.921 133.982 193.316 133.634C193.71 133.293 194.182 133.035 194.731 132.859C195.281 132.683 195.829 132.539 196.377 132.428C196.924 132.316 197.391 132.245 197.776 132.217L198.353 132.174Z" fill="#EF4B8D"/>
<path d="M192.929 149.536C192.871 148.971 192.913 148.472 193.053 148.04C193.203 147.614 193.426 147.278 193.723 147.031C194.019 146.783 194.334 146.595 194.666 146.464C194.999 146.334 195.356 146.249 195.738 146.21C196.104 146.173 196.472 146.196 196.842 146.279C197.221 146.369 197.578 146.517 197.913 146.724C198.248 146.931 198.531 147.224 198.763 147.603C198.995 147.989 199.137 148.433 199.188 148.934C199.291 149.945 199.152 150.715 198.772 151.245C198.392 151.782 197.837 152.088 197.104 152.162C196.786 152.195 196.513 152.154 196.284 152.041C196.064 151.935 195.898 151.763 195.785 151.525C195.681 151.294 195.603 151.081 195.551 150.885C195.508 150.697 195.472 150.463 195.443 150.185C195.418 149.938 195.422 149.704 195.456 149.484C195.491 149.271 195.532 149.118 195.578 149.025L195.649 148.885C195.331 148.925 195.109 149.073 194.982 149.327C194.863 149.58 194.822 149.886 194.858 150.244C194.902 150.674 195.054 151.177 195.314 151.754C195.132 151.869 194.946 151.936 194.755 151.955C194.341 151.998 193.955 151.836 193.596 151.47C193.245 151.104 193.023 150.459 192.929 149.536ZM197.724 149.361C197.702 149.146 197.6 148.98 197.419 148.861C197.247 148.75 197.046 148.706 196.815 148.73C196.711 148.741 196.624 148.753 196.553 148.769C196.448 148.997 196.413 149.286 196.449 149.636C196.477 149.834 196.557 149.987 196.688 150.094C196.821 150.209 196.971 150.258 197.138 150.241C197.329 150.222 197.475 150.122 197.578 149.943C197.689 149.771 197.737 149.577 197.724 149.361Z" fill="#EF4B8D"/>
<path d="M200.219 158.129C200.515 158.474 200.734 158.921 200.876 159.471C200.994 159.928 201.013 160.32 200.932 160.646C200.861 160.979 200.666 161.186 200.349 161.268C200.374 161.27 200.404 161.274 200.439 161.282C200.482 161.287 200.556 161.318 200.661 161.373C200.776 161.434 200.882 161.51 200.98 161.601C201.08 161.699 201.184 161.845 201.292 162.041C201.4 162.236 201.489 162.465 201.557 162.728C201.727 163.387 201.625 163.983 201.251 164.518C200.878 165.06 200.41 165.404 199.844 165.55C198.713 165.843 197.987 165.365 197.665 164.118C197.576 163.777 197.516 163.417 197.484 163.037L198.89 162.624C199.254 162.53 199.396 162.328 199.316 162.018C199.272 161.848 199.188 161.75 199.066 161.723C198.944 161.697 198.786 161.709 198.592 161.759L195.615 162.516C195.562 162.505 195.493 162.477 195.407 162.433C195.331 162.395 195.201 162.259 195.017 162.026C194.842 161.798 194.708 161.502 194.614 161.138C194.522 160.782 194.49 160.481 194.517 160.234C194.546 159.995 194.647 159.795 194.821 159.635C194.996 159.482 195.196 159.36 195.42 159.269C195.645 159.178 195.962 159.08 196.373 158.974C196.799 158.864 197.332 158.738 197.973 158.597C198.614 158.456 199.147 158.344 199.571 158.259L200.219 158.129Z" fill="#EF4B8D"/>
<path d="M203.899 170.264C204.086 170.74 204.199 171.181 204.238 171.587C204.28 172 204.251 172.351 204.149 172.641C204.048 172.93 203.927 173.179 203.786 173.389C203.648 173.607 203.464 173.795 203.234 173.954C203.012 174.11 202.829 174.225 202.686 174.298C202.543 174.372 202.386 174.442 202.215 174.509C202.006 174.591 201.801 174.659 201.598 174.713C201.396 174.766 201.119 174.794 200.767 174.794C200.418 174.803 200.096 174.749 199.801 174.632C199.509 174.524 199.202 174.3 198.88 173.963C198.561 173.632 198.295 173.195 198.081 172.652C197.286 170.627 197.882 169.223 199.87 168.442C200.049 168.372 200.236 168.312 200.431 168.261C200.629 168.218 200.898 168.193 201.24 168.188C201.585 168.19 201.903 168.246 202.195 168.354C202.497 168.468 202.805 168.682 203.118 168.997C203.434 169.32 203.694 169.742 203.899 170.264ZM200.132 171.898C200.217 172.114 200.379 172.265 200.619 172.351C200.859 172.437 201.11 172.429 201.37 172.327C201.623 172.227 201.805 172.066 201.915 171.842C202.025 171.619 202.037 171.399 201.952 171.183C201.862 170.952 201.699 170.788 201.463 170.692C201.23 170.603 200.987 170.608 200.734 170.707C200.474 170.81 200.285 170.974 200.167 171.201C200.053 171.435 200.041 171.667 200.132 171.898Z" fill="#EF4B8D"/>
<path d="M207.62 174.646C208.055 174.863 208.423 175.264 208.723 175.847C209.242 176.857 209.082 177.578 208.243 178.01L202.501 180.962C202.483 180.962 202.456 180.962 202.42 180.962C202.392 180.959 202.324 180.94 202.216 180.906C202.119 180.875 202.02 180.822 201.919 180.748C201.822 180.681 201.702 180.563 201.561 180.392C201.423 180.229 201.294 180.03 201.173 179.796C200.858 179.184 200.822 178.667 201.064 178.246C201.317 177.828 201.892 177.389 202.789 176.928C203.301 176.664 203.957 176.34 204.758 175.956C205.562 175.578 206.242 175.265 206.798 175.015L207.62 174.646Z" fill="#EF4B8D"/>
<path d="M209.772 178.815C210.223 178.997 210.621 179.367 210.966 179.925C211.563 180.891 211.461 181.623 210.658 182.119L205.166 185.514C205.149 185.516 205.122 185.518 205.086 185.521C205.057 185.52 204.988 185.507 204.878 185.481C204.779 185.458 204.676 185.413 204.569 185.347C204.467 185.288 204.339 185.179 204.184 185.021C204.034 184.869 203.89 184.681 203.751 184.457C203.389 183.871 203.312 183.359 203.52 182.92C203.74 182.484 204.278 182 205.135 181.47C205.625 181.167 206.254 180.793 207.022 180.346C207.794 179.906 208.447 179.54 208.981 179.248L209.772 178.815Z" fill="#EF4B8D"/>
<path d="M210.786 190.949C210.99 191.185 211.13 191.408 211.206 191.618C211.286 191.834 211.307 192.017 211.268 192.167C211.234 192.323 211.188 192.448 211.13 192.54C211.072 192.632 211.004 192.712 210.925 192.78C210.653 193.016 210.354 193.104 210.03 193.047C209.699 192.994 209.397 192.811 209.125 192.496C208.958 192.302 208.82 192.094 208.712 191.87C208.603 191.647 208.556 191.402 208.569 191.137C208.583 190.871 208.696 190.647 208.908 190.464C208.974 190.406 209.054 190.358 209.148 190.32C209.241 190.281 209.368 190.251 209.529 190.228C209.7 190.207 209.895 190.255 210.114 190.373C210.337 190.497 210.561 190.689 210.786 190.949ZM215.563 186.456C215.626 186.529 215.683 186.607 215.733 186.69C215.795 186.774 215.849 186.891 215.895 187.042C215.947 187.187 215.97 187.331 215.966 187.472C215.972 187.615 215.929 187.779 215.836 187.965C215.754 188.152 215.625 188.332 215.448 188.507C215.13 188.824 214.759 189.166 214.335 189.532C214.154 189.689 213.918 189.887 213.628 190.127C213.344 190.373 213.114 190.571 212.938 190.723C212.466 191.131 212.205 191.367 212.155 191.432C211.873 191.411 211.541 191.18 211.159 190.738C210.714 190.224 210.501 189.811 210.518 189.5C210.535 189.19 210.708 188.865 211.039 188.526C211.162 188.399 211.484 188.11 212.004 187.66C212.337 187.373 212.77 187.004 213.301 186.555C213.833 186.106 214.211 185.785 214.435 185.591C214.763 185.678 215.139 185.966 215.563 186.456Z" fill="#EF4B8D"/>
<defs>
<radialGradient id="paint0_radial_112_518" cx="0" cy="0" r="1" gradientUnits="userSpaceOnUse" gradientTransform="translate(219.099 61.9678) scale(0.417816 0.363257)">
<stop/>
<stop offset="1" stop-opacity="0.5"/>
</radialGradient>
<radialGradient id="paint1_radial_112_518" cx="0" cy="0" r="1" gradientUnits="userSpaceOnUse" gradientTransform="translate(35.7102 117.254) rotate(-8.13463) scale(10.449 4.28134)">
<stop stop-color="#B3B3B3"/>
<stop offset="0.32" stop-color="#CCCCCC"/>
<stop offset="1" stop-color="#E6E6E6"/>
</radialGradient>
<radialGradient id="paint2_radial_112_518" cx="0" cy="0" r="1" gradientUnits="userSpaceOnUse" gradientTransform="translate(59.5793 113.952) rotate(159.273) scale(10.2393 4.38608)">
<stop stop-color="#B3B3B3"/>
<stop offset="0.32" stop-color="#CCCCCC"/>
<stop offset="1" stop-color="#E6E6E6"/>
</radialGradient>
<radialGradient id="paint3_radial_112_518" cx="0" cy="0" r="1" gradientUnits="userSpaceOnUse" gradientTransform="translate(53.2969 101.48) rotate(10.6331) scale(10.3444 4.28138)">
<stop stop-color="#B3B3B3"/>
<stop offset="0.32" stop-color="#CCCCCC"/>
<stop offset="1" stop-color="#E6E6E6"/>
</radialGradient>
<radialGradient id="paint4_radial_112_518" cx="0" cy="0" r="1" gradientUnits="userSpaceOnUse" gradientTransform="translate(87.6551 125.511) rotate(28.7339) scale(10.0296 4.49082)">
<stop stop-color="#B3B3B3"/>
<stop offset="0.32" stop-color="#CCCCCC"/>
<stop offset="1" stop-color="#E6E6E6"/>
</radialGradient>
<radialGradient id="paint5_radial_112_518" cx="0" cy="0" r="1" gradientUnits="userSpaceOnUse" gradientTransform="translate(82.1898 105.069) rotate(10.633) scale(10.3444 4.28138)">
<stop stop-color="#B3B3B3"/>
<stop offset="0.32" stop-color="#CCCCCC"/>
<stop offset="1" stop-color="#E6E6E6"/>
</radialGradient>
<radialGradient id="paint6_radial_112_518" cx="0" cy="0" r="1" gradientUnits="userSpaceOnUse" gradientTransform="translate(21.8025 107.301) rotate(10.6331) scale(10.3444 4.28138)">
<stop stop-color="#B3B3B3"/>
<stop offset="0.32" stop-color="#CCCCCC"/>
<stop offset="1" stop-color="#E6E6E6"/>
</radialGradient>
<radialGradient id="paint7_radial_112_518" cx="0" cy="0" r="1" gradientUnits="userSpaceOnUse" gradientTransform="translate(25.7687 106.303) rotate(-11.1327) scale(10.3444 4.28139)">
<stop stop-color="#B3B3B3"/>
<stop offset="0.32" stop-color="#CCCCCC"/>
<stop offset="1" stop-color="#E6E6E6"/>
</radialGradient>
<radialGradient id="paint8_radial_112_518" cx="0" cy="0" r="1" gradientUnits="userSpaceOnUse" gradientTransform="translate(76.3827 74.7594) rotate(-11.1328) scale(10.3444 4.28139)">
<stop stop-color="#B3B3B3"/>
<stop offset="0.32" stop-color="#CCCCCC"/>
<stop offset="1" stop-color="#E6E6E6"/>
</radialGradient>
<radialGradient id="paint9_radial_112_518" cx="0" cy="0" r="1" gradientUnits="userSpaceOnUse" gradientTransform="translate(45.6789 90.847) rotate(18.5984) scale(10.2395 4.38601)">
<stop stop-color="#B3B3B3"/>
<stop offset="0.32" stop-color="#CCCCCC"/>
<stop offset="1" stop-color="#E6E6E6"/>
</radialGradient>
<radialGradient id="paint10_radial_112_518" cx="0" cy="0" r="1" gradientUnits="userSpaceOnUse" gradientTransform="translate(50.1577 76.2332) rotate(18.5984) scale(10.2395 4.38601)">
<stop stop-color="#B3B3B3"/>
<stop offset="0.32" stop-color="#CCCCCC"/>
<stop offset="1" stop-color="#E6E6E6"/>
</radialGradient>
<radialGradient id="paint11_radial_112_518" cx="0" cy="0" r="1" gradientUnits="userSpaceOnUse" gradientTransform="translate(35.1705 72.326) rotate(147.707) scale(10.0293 4.49099)">
<stop stop-color="#B3B3B3"/>
<stop offset="0.32" stop-color="#CCCCCC"/>
<stop offset="1" stop-color="#E6E6E6"/>
</radialGradient>
<radialGradient id="paint12_radial_112_518" cx="0" cy="0" r="1" gradientUnits="userSpaceOnUse" gradientTransform="translate(66.7266 64.4476) rotate(147.707) scale(10.0293 4.49098)">
<stop stop-color="#B3B3B3"/>
<stop offset="0.32" stop-color="#CCCCCC"/>
<stop offset="1" stop-color="#E6E6E6"/>
</radialGradient>
<radialGradient id="paint13_radial_112_518" cx="0" cy="0" r="1" gradientUnits="userSpaceOnUse" gradientTransform="translate(75.598 89.498) rotate(18.5984) scale(10.2395 4.38601)">
<stop stop-color="#B3B3B3"/>
<stop offset="0.32" stop-color="#CCCCCC"/>
<stop offset="1" stop-color="#E6E6E6"/>
</radialGradient>
<radialGradient id="paint14_radial_112_518" cx="0" cy="0" r="1" gradientUnits="userSpaceOnUse" gradientTransform="translate(57.7588 78.774) rotate(18.5984) scale(10.2395 4.38601)">
<stop stop-color="#B3B3B3"/>
<stop offset="0.32" stop-color="#CCCCCC"/>
<stop offset="1" stop-color="#E6E6E6"/>
</radialGradient>
<radialGradient id="paint15_radial_112_518" cx="0" cy="0" r="1" gradientUnits="userSpaceOnUse" gradientTransform="translate(8.93609 101.934) rotate(-11.1328) scale(10.3444 4.28139)">
<stop stop-color="#B3B3B3"/>
<stop offset="0.32" stop-color="#CCCCCC"/>
<stop offset="1" stop-color="#E6E6E6"/>
</radialGradient>
<radialGradient id="paint16_radial_112_518" cx="0" cy="0" r="1" gradientUnits="userSpaceOnUse" gradientTransform="translate(15.7056 97.5085) rotate(-11.1327) scale(10.3444 4.28139)">
<stop stop-color="#B3B3B3"/>
<stop offset="0.32" stop-color="#CCCCCC"/>
<stop offset="1" stop-color="#E6E6E6"/>
</radialGradient>
<radialGradient id="paint17_radial_112_518" cx="0" cy="0" r="1" gradientUnits="userSpaceOnUse" gradientTransform="translate(10.0328 85.6265) rotate(-163.92) scale(10.3441 4.38593)">
<stop stop-color="#B3B3B3"/>
<stop offset="0.32" stop-color="#CCCCCC"/>
<stop offset="1" stop-color="#E6E6E6"/>
</radialGradient>
<radialGradient id="paint18_radial_112_518" cx="0" cy="0" r="1" gradientUnits="userSpaceOnUse" gradientTransform="translate(32.6567 93.6852) rotate(-90) scale(9.08468 5.01558)">
<stop stop-color="#B3B3B3"/>
<stop offset="0.32" stop-color="#CCCCCC"/>
<stop offset="1" stop-color="#E6E6E6"/>
</radialGradient>
<radialGradient id="paint19_radial_112_518" cx="0" cy="0" r="1" gradientUnits="userSpaceOnUse" gradientTransform="translate(64.639 106.88) rotate(-116.065) scale(9.29472 4.80599)">
<stop stop-color="#B3B3B3"/>
<stop offset="0.32" stop-color="#CCCCCC"/>
<stop offset="1" stop-color="#E6E6E6"/>
</radialGradient>
<radialGradient id="paint20_radial_112_518" cx="0" cy="0" r="1" gradientUnits="userSpaceOnUse" gradientTransform="translate(36.8338 86.5468) rotate(-116.065) scale(9.29472 4.80598)">
<stop stop-color="#B3B3B3"/>
<stop offset="0.32" stop-color="#CCCCCC"/>
<stop offset="1" stop-color="#E6E6E6"/>
</radialGradient>
<radialGradient id="paint21_radial_112_518" cx="0" cy="0" r="1" gradientUnits="userSpaceOnUse" gradientTransform="translate(69.7372 101.182) rotate(-37.2616) scale(9.81978 4.59568)">
<stop stop-color="#B3B3B3"/>
<stop offset="0.32" stop-color="#CCCCCC"/>
<stop offset="1" stop-color="#E6E6E6"/>
</radialGradient>
<radialGradient id="paint22_radial_112_518" cx="0" cy="0" r="1" gradientUnits="userSpaceOnUse" gradientTransform="translate(69.8215 86.61) rotate(-116.065) scale(9.29472 4.80599)">
<stop stop-color="#B3B3B3"/>
<stop offset="0.32" stop-color="#CCCCCC"/>
<stop offset="1" stop-color="#E6E6E6"/>
</radialGradient>
<radialGradient id="paint23_radial_112_518" cx="0" cy="0" r="1" gradientUnits="userSpaceOnUse" gradientTransform="translate(69.0312 85.4533) rotate(-85.2769) scale(9.08471 5.01556)">
<stop stop-color="#B3B3B3"/>
<stop offset="0.32" stop-color="#CCCCCC"/>
<stop offset="1" stop-color="#E6E6E6"/>
</radialGradient>
<radialGradient id="paint24_radial_112_518" cx="0" cy="0" r="1" gradientUnits="userSpaceOnUse" gradientTransform="translate(61.7491 78.5698) rotate(-75.2506) scale(9.08507 4.91089)">
<stop stop-color="#B3B3B3"/>
<stop offset="0.32" stop-color="#CCCCCC"/>
<stop offset="1" stop-color="#E6E6E6"/>
</radialGradient>
<radialGradient id="paint25_radial_112_518" cx="0" cy="0" r="1" gradientUnits="userSpaceOnUse" gradientTransform="translate(14.9921 105.744) rotate(-34.5821) scale(9.92454 4.4911)">
<stop stop-color="#B3B3B3"/>
<stop offset="0.32" stop-color="#CCCCCC"/>
<stop offset="1" stop-color="#E6E6E6"/>
</radialGradient>
<radialGradient id="paint26_radial_112_518" cx="0" cy="0" r="1" gradientUnits="userSpaceOnUse" gradientTransform="translate(29.6808 85.2133) rotate(-34.5821) scale(9.92455 4.4911)">
<stop stop-color="#B3B3B3"/>
<stop offset="0.32" stop-color="#CCCCCC"/>
<stop offset="1" stop-color="#E6E6E6"/>
</radialGradient>
<radialGradient id="paint27_radial_112_518" cx="0" cy="0" r="1" gradientUnits="userSpaceOnUse" gradientTransform="translate(64.5812 122.621) rotate(-3.87742) scale(10.4491 4.2813)">
<stop stop-color="#B3B3B3"/>
<stop offset="0.32" stop-color="#CCCCCC"/>
<stop offset="1" stop-color="#E6E6E6"/>
</radialGradient>
<radialGradient id="paint28_radial_112_518" cx="0" cy="0" r="1" gradientUnits="userSpaceOnUse" gradientTransform="translate(63.1303 73.666) rotate(-3.87742) scale(10.4491 4.2813)">
<stop stop-color="#B3B3B3"/>
<stop offset="0.32" stop-color="#CCCCCC"/>
<stop offset="1" stop-color="#E6E6E6"/>
</radialGradient>
<radialGradient id="paint29_radial_112_518" cx="0" cy="0" r="1" gradientUnits="userSpaceOnUse" gradientTransform="translate(68.5558 112.59) rotate(56.2623) scale(9.39988 4.80562)">
<stop stop-color="#B3B3B3"/>
<stop offset="0.32" stop-color="#CCCCCC"/>
<stop offset="1" stop-color="#E6E6E6"/>
</radialGradient>
<radialGradient id="paint30_radial_112_518" cx="0" cy="0" r="1" gradientUnits="userSpaceOnUse" gradientTransform="translate(76.4138 102.179) rotate(-24.0757) scale(10.1345 4.3862)">
<stop stop-color="#B3B3B3"/>
<stop offset="0.32" stop-color="#CCCCCC"/>
<stop offset="1" stop-color="#E6E6E6"/>
</radialGradient>
<radialGradient id="paint31_radial_112_518" cx="0" cy="0" r="1" gradientUnits="userSpaceOnUse" gradientTransform="translate(12.162 92.4229) rotate(-6.69556) scale(10.449 4.28132)">
<stop stop-color="#B3B3B3"/>
<stop offset="0.32" stop-color="#CCCCCC"/>
<stop offset="1" stop-color="#E6E6E6"/>
</radialGradient>
<radialGradient id="paint32_radial_112_518" cx="0" cy="0" r="1" gradientUnits="userSpaceOnUse" gradientTransform="translate(56.2408 123.641) rotate(37.2615) scale(9.81979 4.59568)">
<stop stop-color="#B3B3B3"/>
<stop offset="0.32" stop-color="#CCCCCC"/>
<stop offset="1" stop-color="#E6E6E6"/>
</radialGradient>
<radialGradient id="paint33_radial_112_518" cx="0" cy="0" r="1" gradientUnits="userSpaceOnUse" gradientTransform="translate(54.1468 89.0683) rotate(37.2616) scale(9.81978 4.59568)">
<stop stop-color="#B3B3B3"/>
<stop offset="0.32" stop-color="#CCCCCC"/>
<stop offset="1" stop-color="#E6E6E6"/>
</radialGradient>
<radialGradient id="paint34_radial_112_518" cx="0" cy="0" r="1" gradientUnits="userSpaceOnUse" gradientTransform="translate(78.4563 78.2206) rotate(37.2616) scale(0.175291 0.0820364)">
<stop stop-color="#B3B3B3"/>
<stop offset="0.32" stop-color="#CCCCCC"/>
<stop offset="1" stop-color="#E6E6E6"/>
</radialGradient>
<radialGradient id="paint35_radial_112_518" cx="0" cy="0" r="1" gradientUnits="userSpaceOnUse" gradientTransform="translate(39.932 109.359) rotate(-8.13463) scale(0.186523 0.0764253)">
<stop stop-color="#B3B3B3"/>
<stop offset="0.32" stop-color="#CCCCCC"/>
<stop offset="1" stop-color="#E6E6E6"/>
</radialGradient>
<radialGradient id="paint36_radial_112_518" cx="0" cy="0" r="1" gradientUnits="userSpaceOnUse" gradientTransform="translate(83.8344 73.2608) rotate(34.5821) scale(9.92455 4.4911)">
<stop stop-color="#B3B3B3"/>
<stop offset="0.32" stop-color="#CCCCCC"/>
<stop offset="1" stop-color="#E6E6E6"/>
</radialGradient>
<radialGradient id="paint37_radial_112_518" cx="0" cy="0" r="1" gradientUnits="userSpaceOnUse" gradientTransform="translate(75.4271 82.4827) rotate(-8.13464) scale(10.449 4.28134)">
<stop stop-color="#B3B3B3"/>
<stop offset="0.32" stop-color="#CCCCCC"/>
<stop offset="1" stop-color="#E6E6E6"/>
</radialGradient>
<radialGradient id="paint38_radial_112_518" cx="0" cy="0" r="1" gradientUnits="userSpaceOnUse" gradientTransform="translate(47.9869 107.495) rotate(37.2616) scale(9.81978 4.59568)">
<stop stop-color="#B3B3B3"/>
<stop offset="0.32" stop-color="#CCCCCC"/>
<stop offset="1" stop-color="#E6E6E6"/>
</radialGradient>
<radialGradient id="paint39_radial_112_518" cx="0" cy="0" r="1" gradientUnits="userSpaceOnUse" gradientTransform="translate(17.6587 101.822) rotate(18.5984) scale(10.2395 4.38601)">
<stop stop-color="#B3B3B3"/>
<stop offset="0.32" stop-color="#CCCCCC"/>
<stop offset="1" stop-color="#E6E6E6"/>
</radialGradient>
<radialGradient id="paint40_radial_112_518" cx="0" cy="0" r="1" gradientUnits="userSpaceOnUse" gradientTransform="translate(58.8716 95.8785) rotate(18.5984) scale(10.2395 4.38601)">
<stop stop-color="#B3B3B3"/>
<stop offset="0.32" stop-color="#CCCCCC"/>
<stop offset="1" stop-color="#E6E6E6"/>
</radialGradient>
<radialGradient id="paint41_radial_112_518" cx="0" cy="0" r="1" gradientUnits="userSpaceOnUse" gradientTransform="translate(66.3755 109.184) rotate(165.349) scale(10.3442 4.38589)">
<stop stop-color="#B3B3B3"/>
<stop offset="0.32" stop-color="#CCCCCC"/>
<stop offset="1" stop-color="#E6E6E6"/>
</radialGradient>
<radialGradient id="paint42_radial_112_518" cx="0" cy="0" r="1" gradientUnits="userSpaceOnUse" gradientTransform="translate(25.5552 83.1583) rotate(-8.13464) scale(10.449 4.28134)">
<stop stop-color="#B3B3B3"/>
<stop offset="0.32" stop-color="#CCCCCC"/>
<stop offset="1" stop-color="#E6E6E6"/>
</radialGradient>
<radialGradient id="paint43_radial_112_518" cx="0" cy="0" r="1" gradientUnits="userSpaceOnUse" gradientTransform="translate(17.0354 100.692) rotate(-106.2) scale(9.08515 4.91084)">
<stop stop-color="#B3B3B3"/>
<stop offset="0.32" stop-color="#CCCCCC"/>
<stop offset="1" stop-color="#E6E6E6"/>
</radialGradient>
<radialGradient id="paint44_radial_112_518" cx="0" cy="0" r="1" gradientUnits="userSpaceOnUse" gradientTransform="translate(75.9546 92.5099) rotate(167.748) scale(10.3443 4.28142)">
<stop stop-color="#B3B3B3"/>
<stop offset="0.32" stop-color="#CCCCCC"/>
<stop offset="1" stop-color="#E6E6E6"/>
</radialGradient>
<radialGradient id="paint45_radial_112_518" cx="0" cy="0" r="1" gradientUnits="userSpaceOnUse" gradientTransform="translate(47.3542 121.121) rotate(-57.7727) scale(9.39973 4.80569)">
<stop stop-color="#B3B3B3"/>
<stop offset="0.32" stop-color="#CCCCCC"/>
<stop offset="1" stop-color="#E6E6E6"/>
</radialGradient>
<radialGradient id="paint46_radial_112_518" cx="0" cy="0" r="1" gradientUnits="userSpaceOnUse" gradientTransform="translate(76.0392 128.704) rotate(-57.7727) scale(9.39973 4.80569)">
<stop stop-color="#B3B3B3"/>
<stop offset="0.32" stop-color="#CCCCCC"/>
<stop offset="1" stop-color="#E6E6E6"/>
</radialGradient>
<radialGradient id="paint47_radial_112_518" cx="0" cy="0" r="1" gradientUnits="userSpaceOnUse" gradientTransform="translate(66.8354 76.0499) rotate(-20.7273) scale(10.2393 4.38607)">
<stop stop-color="#B3B3B3"/>
<stop offset="0.32" stop-color="#CCCCCC"/>
<stop offset="1" stop-color="#E6E6E6"/>
</radialGradient>
<radialGradient id="paint48_radial_112_518" cx="0" cy="0" r="1" gradientUnits="userSpaceOnUse" gradientTransform="translate(84.7322 114.552) rotate(16.0798) scale(10.3441 4.38593)">
<stop stop-color="#B3B3B3"/>
<stop offset="0.32" stop-color="#CCCCCC"/>
<stop offset="1" stop-color="#E6E6E6"/>
</radialGradient>
<radialGradient id="paint49_radial_112_518" cx="0" cy="0" r="1" gradientUnits="userSpaceOnUse" gradientTransform="translate(59.3708 108.594) rotate(-34.5821) scale(9.92455 4.4911)">
<stop stop-color="#B3B3B3"/>
<stop offset="0.32" stop-color="#CCCCCC"/>
<stop offset="1" stop-color="#E6E6E6"/>
</radialGradient>
<radialGradient id="paint50_radial_112_518" cx="0" cy="0" r="1" gradientUnits="userSpaceOnUse" gradientTransform="translate(50.9593 89.8212) rotate(-26.5247) scale(10.1343 4.38629)">
<stop stop-color="#B3B3B3"/>
<stop offset="0.32" stop-color="#CCCCCC"/>
<stop offset="1" stop-color="#E6E6E6"/>
</radialGradient>
<radialGradient id="paint51_radial_112_518" cx="0" cy="0" r="1" gradientUnits="userSpaceOnUse" gradientTransform="translate(34.6721 115.251) rotate(13.6812) scale(10.3443 4.38587)">
<stop stop-color="#B3B3B3"/>
<stop offset="0.32" stop-color="#CCCCCC"/>
<stop offset="1" stop-color="#E6E6E6"/>
</radialGradient>
<radialGradient id="paint52_radial_112_518" cx="0" cy="0" r="1" gradientUnits="userSpaceOnUse" gradientTransform="translate(60.3506 117.208) rotate(-3.87742) scale(10.4491 4.2813)">
<stop stop-color="#B3B3B3"/>
<stop offset="0.32" stop-color="#CCCCCC"/>
<stop offset="1" stop-color="#E6E6E6"/>
</radialGradient>
<radialGradient id="paint53_radial_112_518" cx="0" cy="0" r="1" gradientUnits="userSpaceOnUse" gradientTransform="translate(121.8 117.15) rotate(169.367) scale(10.3444 4.28139)">
<stop stop-color="#B3B3B3"/>
<stop offset="0.32" stop-color="#CCCCCC"/>
<stop offset="1" stop-color="#E6E6E6"/>
</radialGradient>
<radialGradient id="paint54_radial_112_518" cx="0" cy="0" r="1" gradientUnits="userSpaceOnUse" gradientTransform="translate(111.703 101.59) rotate(169.367) scale(10.3444 4.28138)">
<stop stop-color="#B3B3B3"/>
<stop offset="0.32" stop-color="#CCCCCC"/>
<stop offset="1" stop-color="#E6E6E6"/>
</radialGradient>
<radialGradient id="paint55_radial_112_518" cx="0" cy="0" r="1" gradientUnits="userSpaceOnUse" gradientTransform="translate(97.2908 98.2992) rotate(169.367) scale(10.3444 4.28138)">
<stop stop-color="#B3B3B3"/>
<stop offset="0.32" stop-color="#CCCCCC"/>
<stop offset="1" stop-color="#E6E6E6"/>
</radialGradient>
<radialGradient id="paint56_radial_112_518" cx="0" cy="0" r="1" gradientUnits="userSpaceOnUse" gradientTransform="translate(86.749 105.183) rotate(169.367) scale(10.3444 4.28138)">
<stop stop-color="#B3B3B3"/>
<stop offset="0.32" stop-color="#CCCCCC"/>
<stop offset="1" stop-color="#E6E6E6"/>
</radialGradient>
<radialGradient id="paint57_radial_112_518" cx="0" cy="0" r="1" gradientUnits="userSpaceOnUse" gradientTransform="translate(113.026 77.4877) rotate(169.367) scale(10.3444 4.28138)">
<stop stop-color="#B3B3B3"/>
<stop offset="0.32" stop-color="#CCCCCC"/>
<stop offset="1" stop-color="#E6E6E6"/>
</radialGradient>
<radialGradient id="paint58_radial_112_518" cx="0" cy="0" r="1" gradientUnits="userSpaceOnUse" gradientTransform="translate(143.193 107.41) rotate(169.367) scale(10.3444 4.28138)">
<stop stop-color="#B3B3B3"/>
<stop offset="0.32" stop-color="#CCCCCC"/>
<stop offset="1" stop-color="#E6E6E6"/>
</radialGradient>
<radialGradient id="paint59_radial_112_518" cx="0" cy="0" r="1" gradientUnits="userSpaceOnUse" gradientTransform="translate(139.235 106.2) rotate(-168.867) scale(10.3444 4.28139)">
<stop stop-color="#B3B3B3"/>
<stop offset="0.32" stop-color="#CCCCCC"/>
<stop offset="1" stop-color="#E6E6E6"/>
</radialGradient>
<radialGradient id="paint60_radial_112_518" cx="0" cy="0" r="1" gradientUnits="userSpaceOnUse" gradientTransform="translate(120.801 97.2851) rotate(-168.867) scale(10.3444 4.28139)">
<stop stop-color="#B3B3B3"/>
<stop offset="0.32" stop-color="#CCCCCC"/>
<stop offset="1" stop-color="#E6E6E6"/>
</radialGradient>
<radialGradient id="paint61_radial_112_518" cx="0" cy="0" r="1" gradientUnits="userSpaceOnUse" gradientTransform="translate(118.549 91.5035) rotate(161.402) scale(10.2395 4.38601)">
<stop stop-color="#B3B3B3"/>
<stop offset="0.32" stop-color="#CCCCCC"/>
<stop offset="1" stop-color="#E6E6E6"/>
</radialGradient>
<radialGradient id="paint62_radial_112_518" cx="0" cy="0" r="1" gradientUnits="userSpaceOnUse" gradientTransform="translate(107.725 67.6649) rotate(20.3575) scale(8.46312 4.38606)">
<stop stop-color="#B3B3B3"/>
<stop offset="0.32" stop-color="#CCCCCC"/>
<stop offset="1" stop-color="#E6E6E6"/>
</radialGradient>
<radialGradient id="paint63_radial_112_518" cx="0" cy="0" r="1" gradientUnits="userSpaceOnUse" gradientTransform="translate(98.4396 91.4396) rotate(161.402) scale(10.2395 4.38601)">
<stop stop-color="#B3B3B3"/>
<stop offset="0.32" stop-color="#CCCCCC"/>
<stop offset="1" stop-color="#E6E6E6"/>
</radialGradient>
<radialGradient id="paint64_radial_112_518" cx="0" cy="0" r="1" gradientUnits="userSpaceOnUse" gradientTransform="translate(150.218 84.7075) rotate(-151.266) scale(10.0296 4.49082)">
<stop stop-color="#B3B3B3"/>
<stop offset="0.32" stop-color="#CCCCCC"/>
<stop offset="1" stop-color="#E6E6E6"/>
</radialGradient>
<radialGradient id="paint65_radial_112_518" cx="0" cy="0" r="1" gradientUnits="userSpaceOnUse" gradientTransform="translate(98.4579 72.9322) rotate(-151.266) scale(10.0296 4.49082)">
<stop stop-color="#B3B3B3"/>
<stop offset="0.32" stop-color="#CCCCCC"/>
<stop offset="1" stop-color="#E6E6E6"/>
</radialGradient>
<radialGradient id="paint66_radial_112_518" cx="0" cy="0" r="1" gradientUnits="userSpaceOnUse" gradientTransform="translate(113.594 75.281) rotate(-151.266) scale(10.0296 4.49082)">
<stop stop-color="#B3B3B3"/>
<stop offset="0.32" stop-color="#CCCCCC"/>
<stop offset="1" stop-color="#E6E6E6"/>
</radialGradient>
<radialGradient id="paint67_radial_112_518" cx="0" cy="0" r="1" gradientUnits="userSpaceOnUse" gradientTransform="translate(135.656 81.6147) rotate(-126.508) scale(9.50461 4.701)">
<stop stop-color="#B3B3B3"/>
<stop offset="0.32" stop-color="#CCCCCC"/>
<stop offset="1" stop-color="#E6E6E6"/>
</radialGradient>
<radialGradient id="paint68_radial_112_518" cx="0" cy="0" r="1" gradientUnits="userSpaceOnUse" gradientTransform="translate(88.6335 90.1508) rotate(161.402) scale(10.2395 4.38601)">
<stop stop-color="#B3B3B3"/>
<stop offset="0.32" stop-color="#CCCCCC"/>
<stop offset="1" stop-color="#E6E6E6"/>
</radialGradient>
<radialGradient id="paint69_radial_112_518" cx="0" cy="0" r="1" gradientUnits="userSpaceOnUse" gradientTransform="translate(105.518 77.3416) rotate(161.402) scale(10.2395 4.38601)">
<stop stop-color="#B3B3B3"/>
<stop offset="0.32" stop-color="#CCCCCC"/>
<stop offset="1" stop-color="#E6E6E6"/>
</radialGradient>
<radialGradient id="paint70_radial_112_518" cx="0" cy="0" r="1" gradientUnits="userSpaceOnUse" gradientTransform="translate(156.061 101.829) rotate(-168.867) scale(10.3444 4.28139)">
<stop stop-color="#B3B3B3"/>
<stop offset="0.32" stop-color="#CCCCCC"/>
<stop offset="1" stop-color="#E6E6E6"/>
</radialGradient>
<radialGradient id="paint71_radial_112_518" cx="0" cy="0" r="1" gradientUnits="userSpaceOnUse" gradientTransform="translate(139.375 89.561) rotate(-168.867) scale(10.3444 4.28139)">
<stop stop-color="#B3B3B3"/>
<stop offset="0.32" stop-color="#CCCCCC"/>
<stop offset="1" stop-color="#E6E6E6"/>
</radialGradient>
<radialGradient id="paint72_radial_112_518" cx="0" cy="0" r="1" gradientUnits="userSpaceOnUse" gradientTransform="translate(149.295 97.4086) rotate(-168.867) scale(10.3444 4.28139)">
<stop stop-color="#B3B3B3"/>
<stop offset="0.32" stop-color="#CCCCCC"/>
<stop offset="1" stop-color="#E6E6E6"/>
</radialGradient>
<radialGradient id="paint73_radial_112_518" cx="0" cy="0" r="1" gradientUnits="userSpaceOnUse" gradientTransform="translate(155.087 85.9921) rotate(-16.0798) scale(10.3441 4.38593)">
<stop stop-color="#B3B3B3"/>
<stop offset="0.32" stop-color="#CCCCCC"/>
<stop offset="1" stop-color="#E6E6E6"/>
</radialGradient>
<radialGradient id="paint74_radial_112_518" cx="0" cy="0" r="1" gradientUnits="userSpaceOnUse" gradientTransform="translate(138.198 98.5903) rotate(-142.738) scale(9.81979 4.59568)">
<stop stop-color="#B3B3B3"/>
<stop offset="0.32" stop-color="#CCCCCC"/>
<stop offset="1" stop-color="#E6E6E6"/>
</radialGradient>
<radialGradient id="paint75_radial_112_518" cx="0" cy="0" r="1" gradientUnits="userSpaceOnUse" gradientTransform="translate(99.0346 110.456) rotate(-63.9349) scale(9.29473 4.80599)">
<stop stop-color="#B3B3B3"/>
<stop offset="0.32" stop-color="#CCCCCC"/>
<stop offset="1" stop-color="#E6E6E6"/>
</radialGradient>
<radialGradient id="paint76_radial_112_518" cx="0" cy="0" r="1" gradientUnits="userSpaceOnUse" gradientTransform="translate(111.875 93.4987) rotate(20.3575) scale(10.2393 4.38606)">
<stop stop-color="#B3B3B3"/>
<stop offset="0.32" stop-color="#CCCCCC"/>
<stop offset="1" stop-color="#E6E6E6"/>
</radialGradient>
<radialGradient id="paint77_radial_112_518" cx="0" cy="0" r="1" gradientUnits="userSpaceOnUse" gradientTransform="translate(93.8522 90.4858) rotate(-63.9349) scale(9.29472 4.80598)">
<stop stop-color="#B3B3B3"/>
<stop offset="0.32" stop-color="#CCCCCC"/>
<stop offset="1" stop-color="#E6E6E6"/>
</radialGradient>
<radialGradient id="paint78_radial_112_518" cx="0" cy="0" r="1" gradientUnits="userSpaceOnUse" gradientTransform="translate(97.3806 84.4214) rotate(-94.7231) scale(9.08472 5.01556)">
<stop stop-color="#B3B3B3"/>
<stop offset="0.32" stop-color="#CCCCCC"/>
<stop offset="1" stop-color="#E6E6E6"/>
</radialGradient>
<radialGradient id="paint79_radial_112_518" cx="0" cy="0" r="1" gradientUnits="userSpaceOnUse" gradientTransform="translate(147.617 103.656) rotate(-145.418) scale(9.92455 4.4911)">
<stop stop-color="#B3B3B3"/>
<stop offset="0.32" stop-color="#CCCCCC"/>
<stop offset="1" stop-color="#E6E6E6"/>
</radialGradient>
<radialGradient id="paint80_radial_112_518" cx="0" cy="0" r="1" gradientUnits="userSpaceOnUse" gradientTransform="translate(132.925 83.1251) rotate(-145.418) scale(0.177161 0.0801695)">
<stop stop-color="#B3B3B3"/>
<stop offset="0.32" stop-color="#CCCCCC"/>
<stop offset="1" stop-color="#E6E6E6"/>
</radialGradient>
<radialGradient id="paint81_radial_112_518" cx="0" cy="0" r="1" gradientUnits="userSpaceOnUse" gradientTransform="translate(100.437 121.024) rotate(-176.123) scale(10.4491 4.2813)">
<stop stop-color="#B3B3B3"/>
<stop offset="0.32" stop-color="#CCCCCC"/>
<stop offset="1" stop-color="#E6E6E6"/>
</radialGradient>
<radialGradient id="paint82_radial_112_518" cx="0" cy="0" r="1" gradientUnits="userSpaceOnUse" gradientTransform="translate(102.839 73.6658) rotate(-176.123) scale(10.4491 4.2813)">
<stop stop-color="#B3B3B3"/>
<stop offset="0.32" stop-color="#CCCCCC"/>
<stop offset="1" stop-color="#E6E6E6"/>
</radialGradient>
<radialGradient id="paint83_radial_112_518" cx="0" cy="0" r="1" gradientUnits="userSpaceOnUse" gradientTransform="translate(94.7827 117.079) rotate(123.738) scale(9.39988 4.80562)">
<stop stop-color="#B3B3B3"/>
<stop offset="0.32" stop-color="#CCCCCC"/>
<stop offset="1" stop-color="#E6E6E6"/>
</radialGradient>
<radialGradient id="paint84_radial_112_518" cx="0" cy="0" r="1" gradientUnits="userSpaceOnUse" gradientTransform="translate(153.832 92.4603) rotate(-173.304) scale(10.449 4.28133)">
<stop stop-color="#B3B3B3"/>
<stop offset="0.32" stop-color="#CCCCCC"/>
<stop offset="1" stop-color="#E6E6E6"/>
</radialGradient>
<radialGradient id="paint85_radial_112_518" cx="0" cy="0" r="1" gradientUnits="userSpaceOnUse" gradientTransform="translate(105.999 126.633) rotate(142.738) scale(9.81978 4.59568)">
<stop stop-color="#B3B3B3"/>
<stop offset="0.32" stop-color="#CCCCCC"/>
<stop offset="1" stop-color="#E6E6E6"/>
</radialGradient>
<radialGradient id="paint86_radial_112_518" cx="0" cy="0" r="1" gradientUnits="userSpaceOnUse" gradientTransform="translate(108.355 92.0681) rotate(142.738) scale(9.81979 4.59568)">
<stop stop-color="#B3B3B3"/>
<stop offset="0.32" stop-color="#CCCCCC"/>
<stop offset="1" stop-color="#E6E6E6"/>
</radialGradient>
<radialGradient id="paint87_radial_112_518" cx="0" cy="0" r="1" gradientUnits="userSpaceOnUse" gradientTransform="translate(126.062 109.401) rotate(-171.865) scale(10.449 4.28134)">
<stop stop-color="#B3B3B3"/>
<stop offset="0.32" stop-color="#CCCCCC"/>
<stop offset="1" stop-color="#E6E6E6"/>
</radialGradient>
<radialGradient id="paint88_radial_112_518" cx="0" cy="0" r="1" gradientUnits="userSpaceOnUse" gradientTransform="translate(90.5627 82.5255) rotate(-171.865) scale(10.449 4.28134)">
<stop stop-color="#B3B3B3"/>
<stop offset="0.32" stop-color="#CCCCCC"/>
<stop offset="1" stop-color="#E6E6E6"/>
</radialGradient>
<radialGradient id="paint89_radial_112_518" cx="0" cy="0" r="1" gradientUnits="userSpaceOnUse" gradientTransform="translate(125.432 101.946) rotate(-176.123) scale(10.4491 4.2813)">
<stop stop-color="#B3B3B3"/>
<stop offset="0.32" stop-color="#CCCCCC"/>
<stop offset="1" stop-color="#E6E6E6"/>
</radialGradient>
<radialGradient id="paint90_radial_112_518" cx="0" cy="0" r="1" gradientUnits="userSpaceOnUse" gradientTransform="translate(146.572 102.473) rotate(161.402) scale(10.2395 4.38601)">
<stop stop-color="#B3B3B3"/>
<stop offset="0.32" stop-color="#CCCCCC"/>
<stop offset="1" stop-color="#E6E6E6"/>
</radialGradient>
<radialGradient id="paint91_radial_112_518" cx="0" cy="0" r="1" gradientUnits="userSpaceOnUse" gradientTransform="translate(104.759 94.3936) rotate(161.402) scale(10.2395 4.38601)">
<stop stop-color="#B3B3B3"/>
<stop offset="0.32" stop-color="#CCCCCC"/>
<stop offset="1" stop-color="#E6E6E6"/>
</radialGradient>
<radialGradient id="paint92_radial_112_518" cx="0" cy="0" r="1" gradientUnits="userSpaceOnUse" gradientTransform="translate(98.7212 108.819) rotate(14.6506) scale(10.3442 4.38589)">
<stop stop-color="#B3B3B3"/>
<stop offset="0.32" stop-color="#CCCCCC"/>
<stop offset="1" stop-color="#E6E6E6"/>
</radialGradient>
<radialGradient id="paint93_radial_112_518" cx="0" cy="0" r="1" gradientUnits="userSpaceOnUse" gradientTransform="translate(140.439 83.2038) rotate(-171.865) scale(10.449 4.28134)">
<stop stop-color="#B3B3B3"/>
<stop offset="0.32" stop-color="#CCCCCC"/>
<stop offset="1" stop-color="#E6E6E6"/>
</radialGradient>
<radialGradient id="paint94_radial_112_518" cx="0" cy="0" r="1" gradientUnits="userSpaceOnUse" gradientTransform="translate(136.898 104.96) rotate(16.0798) scale(10.3441 4.38593)">
<stop stop-color="#B3B3B3"/>
<stop offset="0.32" stop-color="#CCCCCC"/>
<stop offset="1" stop-color="#E6E6E6"/>
</radialGradient>
<radialGradient id="paint95_radial_112_518" cx="0" cy="0" r="1" gradientUnits="userSpaceOnUse" gradientTransform="translate(87.4254 88.8416) rotate(18.5984) scale(10.2395 4.38601)">
<stop stop-color="#B3B3B3"/>
<stop offset="0.32" stop-color="#CCCCCC"/>
<stop offset="1" stop-color="#E6E6E6"/>
</radialGradient>
<radialGradient id="paint96_radial_112_518" cx="0" cy="0" r="1" gradientUnits="userSpaceOnUse" gradientTransform="translate(115.925 110.71) rotate(-169.367) scale(0.184656 0.076426)">
<stop stop-color="#B3B3B3"/>
<stop offset="0.32" stop-color="#CCCCCC"/>
<stop offset="1" stop-color="#E6E6E6"/>
</radialGradient>
<radialGradient id="paint97_radial_112_518" cx="0" cy="0" r="1" gradientUnits="userSpaceOnUse" gradientTransform="translate(96.0454 76.1717) rotate(-159.642) scale(10.2393 4.38606)">
<stop stop-color="#B3B3B3"/>
<stop offset="0.32" stop-color="#CCCCCC"/>
<stop offset="1" stop-color="#E6E6E6"/>
</radialGradient>
<radialGradient id="paint98_radial_112_518" cx="0" cy="0" r="1" gradientUnits="userSpaceOnUse" gradientTransform="translate(84.6998 114.03) rotate(151.056) scale(10.0296 4.49083)">
<stop stop-color="#B3B3B3"/>
<stop offset="0.32" stop-color="#CCCCCC"/>
<stop offset="1" stop-color="#E6E6E6"/>
</radialGradient>
<radialGradient id="paint99_radial_112_518" cx="0" cy="0" r="1" gradientUnits="userSpaceOnUse" gradientTransform="translate(112.323 86.9954) rotate(-159.642) scale(10.2393 4.38606)">
<stop stop-color="#B3B3B3"/>
<stop offset="0.32" stop-color="#CCCCCC"/>
<stop offset="1" stop-color="#E6E6E6"/>
</radialGradient>
<radialGradient id="paint100_radial_112_518" cx="0" cy="0" r="1" gradientUnits="userSpaceOnUse" gradientTransform="translate(130.409 115.603) rotate(166.319) scale(10.3443 4.38587)">
<stop stop-color="#B3B3B3"/>
<stop offset="0.32" stop-color="#CCCCCC"/>
<stop offset="1" stop-color="#E6E6E6"/>
</radialGradient>
<radialGradient id="paint101_radial_112_518" cx="0" cy="0" r="1" gradientUnits="userSpaceOnUse" gradientTransform="translate(97.3247 120.117) rotate(161.402) scale(10.2395 4.386)">
<stop stop-color="#B3B3B3"/>
<stop offset="0.32" stop-color="#CCCCCC"/>
<stop offset="1" stop-color="#E6E6E6"/>
</radialGradient>
</defs>
</svg>
