<svg width="455" height="469" viewBox="0 0 455 469" fill="none" xmlns="http://www.w3.org/2000/svg">
<path d="M348.646 340.438C352.116 343.839 352.494 347.658 352.494 347.658C352.915 351.932 350.177 354.891 347.81 358.615C341.963 367.802 345.196 370.931 340.275 380.691C336.777 387.628 335.983 384.385 326.506 397.054C320.105 405.612 317.495 411.064 309.559 416.804C307.277 418.454 307.756 417.811 304.253 420.165C291.758 428.56 290.942 433.173 282.951 437.346C280.582 438.583 281.991 437.478 267.763 441.548C253.563 445.61 252.447 446.626 247.972 446.926C247.365 446.967 232.434 448.039 227.475 441.729C216.858 428.213 238.495 388.824 266.562 365.362C299.947 337.455 341.019 332.966 348.649 340.436L348.646 340.438Z" fill="#333333" stroke="#333333" stroke-width="5" stroke-miterlimit="10"/>
<path d="M67.5334 250.401C70.5844 254.906 75.4786 261.796 82.1519 269.779C87.9764 276.747 89.2981 277.537 96.064 285.549C105.585 296.822 105.166 297.863 112.527 306.116C121.089 315.718 121.584 314.235 128.66 322.606C135.97 331.252 135.126 332.458 144.016 343.203C149.624 349.982 150.608 350.287 156.319 357.486C162.278 364.997 162.514 366.316 166.834 371.373C173.116 378.731 174.807 378.503 181.568 385.514C188.74 392.948 187.608 393.997 198.376 407.366C202.979 413.081 203.563 413.356 212.848 424.243C219.199 431.689 224.253 437.804 227.469 441.733L288.056 391.087L128.117 199.757L67.5306 250.404L67.5334 250.401Z" fill="#333333" stroke="#333333" stroke-width="5" stroke-miterlimit="10"/>
<path d="M188.707 149.108C192.6 152.91 198.513 158.948 205.186 166.931C211.01 173.899 211.554 175.34 218.239 183.419C227.646 194.788 228.744 194.56 235.561 203.268C243.493 213.396 241.945 213.621 248.929 222.069C256.142 230.796 257.478 230.179 266.477 240.834C272.155 247.556 272.28 248.578 278.352 255.475C284.688 262.671 285.943 263.137 290.154 268.286C296.282 275.773 295.758 277.396 301.459 285.293C307.504 293.67 308.736 292.742 319.985 305.71C324.793 311.253 324.96 311.876 334.028 322.945C340.23 330.515 345.352 336.573 348.649 340.436C308.257 374.2 328.453 357.318 288.062 391.082L128.123 199.752L188.71 149.106L188.707 149.108Z" fill="#333333" stroke="#333333" stroke-width="5" stroke-miterlimit="10"/>
<path d="M145.321 220.331C178.782 192.36 197.582 159.724 187.311 147.438C177.04 135.151 141.588 147.866 108.127 175.837C74.6655 203.808 55.866 236.444 66.137 248.731C76.4079 261.017 111.86 248.303 145.321 220.331Z" fill="#333333" stroke="#333333" stroke-width="5" stroke-miterlimit="10"/>
<path d="M187.267 144.116C190.839 148.511 188.9 155.696 186.388 166.163C185.583 169.527 184.767 172.819 182.601 176.889C180.668 180.521 178.518 183.155 170.372 191.679C162.442 199.975 163.229 198.792 159.689 202.655C151.327 211.788 151.178 213.779 144.781 219.685C140.633 223.512 137.066 226.027 134.254 228.014C129.183 231.592 128.116 231.764 117.196 238.337C107.445 244.204 107.13 244.763 103.587 246.248C99.5051 247.955 96.2241 248.759 89.8651 250.319C83.5008 251.878 80.3148 252.656 77.4407 252.673C73.5232 252.692 66.387 252.88 62.8759 248.104C60.9455 245.481 60.7812 242.294 60.7172 241.089C60.6287 239.39 60.8343 238.013 62.1487 233.071C63.8918 226.507 64.7636 223.222 65.743 221.247C67.3817 217.943 68.299 217.604 72.2987 212.094C76.552 206.235 76.474 205.304 79.8876 200.395C81.9574 197.421 85.439 193.524 92.4046 185.734C100.63 176.53 102.882 174.483 105.362 172.541C107.916 170.542 108.044 170.741 113.303 167.005C121.221 161.383 122.418 159.872 126.474 157.045C132.715 152.698 137.862 150.713 147.102 147.149C155.175 144.034 159.333 142.434 165.243 141.536C173.137 140.341 182.977 138.85 187.264 144.124L187.267 144.116Z" fill="#494949"/>
<path d="M139.868 220.142C137.132 222.43 134.752 224.108 132.652 225.592C129.743 227.644 128.298 228.473 125.132 230.294C123.058 231.488 120.213 233.123 115.822 235.763C112.506 237.758 110.269 239.147 108.637 240.161C105.516 242.099 104.773 242.56 102.705 243.424C98.8837 245.025 95.7545 245.789 89.5201 247.318C83.4183 248.813 80.3622 249.56 77.8777 249.572L77.5358 249.576C74.0338 249.598 68.1685 249.637 65.547 246.07C64.0767 244.073 63.9394 241.472 63.8896 240.493C63.8246 239.269 63.9284 238.288 65.2171 233.426C66.8481 227.286 67.7441 223.909 68.5654 222.25C69.3895 220.59 69.9201 219.927 71.196 218.336C72.0371 217.283 73.1909 215.842 74.8013 213.622C77.2602 210.235 78.3491 208.396 79.4037 206.616C80.2181 205.24 80.9916 203.938 82.4326 201.863C84.3689 199.079 87.8062 195.233 94.654 187.575C101.561 179.848 104.155 177.286 106.101 175.659C106.451 175.367 106.782 175.1 107.12 174.836C108.334 173.886 108.913 173.503 109.966 172.808C110.974 172.14 112.355 171.228 114.914 169.41C119.487 166.161 121.886 164.238 123.814 162.694C125.258 161.536 126.401 160.624 128.057 159.468C133.919 155.384 138.88 153.472 147.884 149.998C155.785 146.95 159.75 145.423 165.279 144.587C172.435 143.503 181.338 142.154 184.664 146.244C187.254 149.429 185.807 155.439 183.617 164.534L183.295 165.882C182.571 168.907 181.819 172.033 179.819 175.789C178.151 178.923 176.422 181.136 168.191 189.751C164.045 194.087 162.334 195.779 161.082 197.021C159.943 198.148 159.19 198.894 157.453 200.788C153.599 204.996 151.415 207.764 149.661 209.993C147.576 212.635 146.071 214.545 142.771 217.589C141.824 218.463 140.847 219.324 139.862 220.147L139.868 220.142Z" fill="#CCCCCC"/>
<path d="M290.055 377.71C290.055 377.71 274.456 341.616 258.2 333.792C241.942 325.964 211.552 310.532 204.695 298.257C189.741 271.497 191.151 265.931 168.465 247.966C154.123 236.608 138.773 231.14 140.899 222.376C141.466 220.036 142.583 220.337 158.376 204.103C158.376 204.103 159.021 203.438 168.993 193.114C168.993 193.114 186.695 218.029 188.144 227.318C189.593 236.607 228.372 263.82 231.535 271.671C234.702 279.524 242.223 303.052 250.247 306.84C258.273 310.631 267.47 310.081 271.397 315.617C275.325 321.152 293.329 375.809 290.056 377.705L290.055 377.71Z" fill="#494949"/>
<path d="M188.351 146.816C187.821 146.559 187.195 146.514 186.512 146.633C186.507 146.156 186.409 145.719 186.185 145.347C185.126 143.579 181.81 143.655 178.047 145.279C177.844 144.506 177.445 143.907 176.832 143.569C176.141 143.184 175.255 143.172 174.269 143.452C172.572 141.975 168.858 141.44 164.629 142.273C160.184 143.151 156.493 145.279 155.174 147.5C155.024 147.46 154.878 147.412 154.722 147.377C149.42 146.095 144.252 147.3 143.18 150.072C143.09 150.307 143.042 150.547 143.013 150.785C141.614 150.764 140.024 151.025 138.388 151.604C134.467 152.997 131.57 155.744 131.222 158.178C130.978 158.217 130.736 158.254 130.491 158.303C124.801 159.425 120.334 162.596 120.512 165.386C120.52 165.501 120.545 165.612 120.569 165.722C119.529 165.757 118.424 165.878 117.276 166.104C111.586 167.226 107.119 170.397 107.297 173.187C107.349 174.005 107.805 174.697 108.551 175.239C108.465 175.248 108.38 175.251 108.293 175.256C102.598 175.784 97.871 178.511 97.7331 181.348C97.7131 181.748 97.7956 182.126 97.9517 182.482C96.4929 181.656 95.0157 181.476 93.807 182.142C92.3897 182.918 91.6245 184.69 91.534 186.88C89.4939 188.342 87.4748 191.342 86.3036 194.984C85.8007 196.546 85.5174 198.051 85.4236 199.422C80.1 201.598 76.4062 205.351 77.1261 207.922C77.4129 208.946 78.3634 209.624 79.7348 209.95C79.0902 211.174 78.5298 212.551 78.119 214.031C78.0572 214.248 78.0088 214.463 77.9551 214.678C77.5122 213.299 76.7127 212.384 75.5865 212.188C72.8077 211.702 69.1248 215.748 67.3684 221.22C65.9031 225.778 66.2371 229.877 67.9928 231.407C66.3245 233.123 65.5048 234.882 65.9658 236.236C66.192 236.902 66.7059 237.4 67.4331 237.735C65.1705 241.147 64.5083 244.398 66.057 245.756C66.3835 246.042 66.7968 246.216 67.2653 246.306C67.0269 246.957 66.9603 247.581 67.1186 248.148C67.4754 249.424 68.8572 250.164 70.8129 250.352C70.6742 251.78 70.9988 252.912 71.8524 253.521C73.2264 254.495 75.6357 253.876 78.1696 252.132C79.7933 253.068 82.8352 252.804 86.1824 251.439C89.2974 252.426 92.186 252.13 93.5057 250.434C93.6435 250.256 93.756 250.065 93.8531 249.867C95.362 249.781 97.1159 249.384 98.9587 248.675C99.1092 249.093 99.3369 249.447 99.6624 249.714C101.737 251.41 106.672 249.171 110.686 244.707C110.839 244.535 110.982 244.363 111.129 244.191C113.23 244.616 116.312 242.55 118.85 239.141C121.395 238.51 123.492 237.418 124.662 236.124C126.99 236.85 131.231 234.996 134.953 231.428C136.329 230.107 137.466 228.716 138.323 227.367C139.908 227.072 141.156 226.383 141.782 225.306C142.002 224.923 142.123 224.516 142.172 224.091C143.146 223.826 143.989 223.078 144.655 222.006C149.214 220.731 152.655 218.176 152.93 215.794C154.159 215.106 155.037 213.604 155.472 211.681C156.36 211.201 157.26 210.638 158.149 209.992C161.588 207.492 163.943 204.44 164.495 202.088C166.918 201.792 169.551 198.493 170.93 194.104C172.801 193.085 174.83 191.388 176.627 189.205C178.713 186.675 180.045 184.022 180.472 181.881C181.021 181.281 181.558 180.638 182.067 179.95C184.563 176.566 185.799 173.06 185.51 170.784C189.374 168.42 191.726 165.336 191.012 163.231C190.852 162.767 190.55 162.382 190.141 162.078C190.576 160.621 190.649 159.336 190.313 158.393C192.478 156.208 193.515 153.947 192.799 152.422C192.355 151.477 191.297 150.956 189.865 150.837C190.03 148.882 189.544 147.388 188.352 146.81L188.351 146.816ZM115.635 210.075C115.849 209.871 116.062 209.655 116.272 209.435C116.206 209.641 116.145 209.853 116.081 210.062C115.93 210.061 115.784 210.067 115.633 210.072L115.635 210.075ZM98.2329 204.996C98.1311 204.979 98.0261 204.97 97.9243 204.953C98.0661 204.878 98.2049 204.806 98.3414 204.731C98.3043 204.82 98.27 204.907 98.2329 204.996ZM144.633 208.172C144.704 208.083 144.776 207.988 144.848 207.894C144.891 208.097 144.928 208.299 144.979 208.499C145.29 209.76 145.724 210.914 146.242 211.923C146.131 211.924 146.017 211.927 145.905 211.928C145.622 210.513 145.18 209.245 144.63 208.169L144.633 208.172Z" fill="url(#paint0_radial_325_145)"/>
<path d="M110.285 231.768C112.404 233.5 110.8 238.596 106.704 243.148C102.61 247.702 97.5727 249.989 95.4539 248.256C93.335 246.524 94.9385 241.428 99.0349 236.876C103.129 232.322 108.166 230.036 110.285 231.768Z" fill="url(#paint1_radial_325_145)"/>
<path d="M106.661 242.469C104.091 241.367 104.402 236.219 107.356 230.975C110.31 225.732 114.786 222.373 117.356 223.481C119.925 224.584 119.615 229.732 116.661 234.975C113.707 240.219 109.231 243.577 106.661 242.469Z" fill="url(#paint2_radial_325_145)"/>
<path d="M112.622 213.945C113.817 216.415 110.462 220.842 105.133 223.825C99.8001 226.811 94.5126 227.227 93.3178 224.756C92.1229 222.286 95.4774 217.859 100.807 214.876C106.14 211.89 111.427 211.474 112.622 213.945Z" fill="url(#paint3_radial_325_145)"/>
<path d="M149.837 213.165C150.019 216.011 145.458 219.251 139.652 220.396C133.847 221.542 128.993 220.162 128.814 217.313C128.633 214.467 133.194 211.228 138.999 210.082C144.805 208.936 149.659 210.316 149.837 213.165Z" fill="url(#paint4_radial_325_145)"/>
<path d="M137.246 198.074C138.441 200.544 135.087 204.971 129.757 207.954C124.424 210.94 119.137 211.356 117.942 208.885C116.747 206.415 120.102 201.988 125.431 199.005C130.764 196.019 136.051 195.603 137.246 198.074Z" fill="url(#paint5_radial_325_145)"/>
<path d="M91.8158 238.873C93.0106 241.344 89.6561 245.771 84.3264 248.754C78.9938 251.739 73.7064 252.155 72.5115 249.685C71.3167 247.214 74.6711 242.787 80.0008 239.804C85.3334 236.819 90.6209 236.403 91.8158 238.873Z" fill="url(#paint6_radial_325_145)"/>
<path d="M96.9012 227.31C99.1417 228.896 97.8443 234.033 94.0027 238.785C90.1616 243.531 85.2324 246.092 82.9919 244.505C80.7514 242.919 82.0489 237.782 85.8905 233.03C89.7316 228.284 94.6607 225.723 96.9012 227.31Z" fill="url(#paint7_radial_325_145)"/>
<path d="M115.164 170.912C117.404 172.499 116.107 177.636 112.265 182.387C108.424 187.134 103.495 189.694 101.254 188.108C99.0138 186.521 100.311 181.384 104.153 176.632C107.994 171.881 112.923 169.325 115.164 170.912Z" fill="url(#paint8_radial_325_145)"/>
<path d="M98.0967 211.976C98.8491 214.656 94.8939 218.609 89.2642 220.803C83.6346 222.996 78.4622 222.602 77.7127 219.92C76.9631 217.237 80.9155 213.287 86.5451 211.093C92.1747 208.899 97.3471 209.294 98.0967 211.976Z" fill="url(#paint9_radial_325_145)"/>
<path d="M92.8335 197.659C93.5859 200.339 89.6307 204.292 84.0011 206.486C78.3714 208.68 73.199 208.285 72.4495 205.603C71.697 202.923 75.6523 198.97 81.2819 196.776C86.9115 194.583 92.0839 194.977 92.8335 197.659Z" fill="url(#paint10_radial_325_145)"/>
<path d="M64.3795 230.191C61.5406 229.697 60.6961 224.767 62.492 219.179C64.2879 213.592 68.0443 209.465 70.878 209.958C73.7169 210.452 74.5613 215.382 72.7654 220.97C70.9695 226.558 67.2132 230.684 64.3795 230.191Z" fill="url(#paint11_radial_325_145)"/>
<path d="M83.7047 203.415C80.8658 202.921 80.0213 197.99 81.8172 192.403C83.6131 186.815 87.3695 182.689 90.2031 183.182C93.0368 183.675 93.8865 188.606 92.0906 194.194C90.2947 199.781 86.5384 203.908 83.7047 203.415Z" fill="url(#paint12_radial_325_145)"/>
<path d="M120.752 191.551C121.504 194.231 117.549 198.184 111.92 200.378C106.29 202.572 101.118 202.177 100.368 199.495C99.6183 196.813 103.571 192.862 109.2 190.668C114.83 188.475 120.002 188.869 120.752 191.551Z" fill="url(#paint13_radial_325_145)"/>
<path d="M100.316 194.728C101.069 197.408 97.1136 201.36 91.484 203.554C85.8544 205.748 80.682 205.354 79.9324 202.671C79.1828 199.989 83.1352 196.039 88.7648 193.845C94.3944 191.651 99.5668 192.045 100.316 194.728Z" fill="url(#paint14_radial_325_145)"/>
<path d="M80.9763 234.951C83.2168 236.538 81.9194 241.675 78.0778 246.426C74.2362 251.178 69.3075 253.733 67.067 252.147C64.8266 250.56 66.124 245.423 69.9656 240.671C73.8072 235.92 78.7358 233.364 80.9763 234.951Z" fill="url(#paint15_radial_325_145)"/>
<path d="M83.2839 227.259C85.5244 228.846 84.227 233.983 80.3854 238.734C76.5443 243.481 71.6151 246.042 69.3747 244.455C67.1342 242.868 68.4316 237.731 72.2732 232.98C76.1148 228.228 81.0435 225.673 83.2839 227.259Z" fill="url(#paint16_radial_325_145)"/>
<path d="M61.0588 234.507C60.1661 231.886 63.9425 227.772 69.4916 225.325C75.0436 222.875 80.2653 223.014 81.1552 225.638C82.048 228.259 78.2715 232.373 72.7224 234.82C67.1705 237.269 61.9487 237.13 61.0588 234.507Z" fill="url(#paint17_radial_325_145)"/>
<path d="M77.8402 219.502C80.2587 217.481 84.978 219.148 88.3852 223.224C91.7924 227.3 92.5934 232.242 90.1777 234.261C87.7592 236.283 83.0398 234.616 79.6326 230.54C76.2255 226.464 75.4245 221.522 77.8402 219.502Z" fill="url(#paint18_radial_325_145)"/>
<path d="M120.429 215.315C121.974 212.638 127.26 212.267 132.234 214.489C137.209 216.705 139.987 220.675 138.442 223.352C136.897 226.028 131.61 226.4 126.636 224.178C121.662 221.956 118.883 217.991 120.429 215.315Z" fill="url(#paint19_radial_325_145)"/>
<path d="M85.3907 217.321C86.9361 214.644 92.2222 214.273 97.1962 216.495C102.171 218.711 104.949 222.681 103.404 225.358C101.859 228.034 96.5726 228.405 91.5985 226.184C86.624 223.967 83.8454 219.997 85.3907 217.321Z" fill="url(#paint20_radial_325_145)"/>
<path d="M121.488 183.823C124.397 184.058 125.709 188.826 124.424 194.478C123.136 200.126 119.734 204.52 116.824 204.285C113.915 204.05 112.603 199.281 113.888 193.63C115.176 187.981 118.578 183.587 121.488 183.823Z" fill="url(#paint21_radial_325_145)"/>
<path d="M112.094 196.689C113.639 194.013 118.926 193.641 123.9 195.863C128.874 198.08 131.653 202.05 130.107 204.726C128.562 207.403 123.276 207.774 118.302 205.552C113.327 203.336 110.549 199.366 112.094 196.689Z" fill="url(#paint22_radial_325_145)"/>
<path d="M109.522 192.099C106.508 187.719 101.963 185.616 99.3701 187.401C96.7768 189.185 97.1173 194.183 100.131 198.562C103.144 202.942 107.689 205.045 110.282 203.261C112.876 201.476 112.535 196.479 109.522 192.099Z" fill="url(#paint23_radial_325_145)"/>
<path d="M89.474 179.297C92.2198 177.788 96.2896 180.499 98.5631 185.348C100.837 190.196 100.457 195.349 97.7136 196.854C94.9678 198.363 90.8981 195.652 88.6246 190.803C86.351 185.955 86.7311 180.802 89.474 179.297Z" fill="url(#paint24_radial_325_145)"/>
<path d="M83.5735 226.954C86.4471 227.327 87.5121 232.189 85.9488 237.811C84.3855 243.433 80.7921 247.69 77.919 247.313C75.0453 246.94 73.9803 242.077 75.5436 236.456C77.1069 230.834 80.7003 226.577 83.5735 226.954Z" fill="url(#paint25_radial_325_145)"/>
<path d="M81.4953 202.336C84.3689 202.708 85.4339 207.571 83.8706 213.193C82.3073 218.814 78.7139 223.072 75.8407 222.694C72.9671 222.322 71.9021 217.459 73.4654 211.838C75.0287 206.216 78.6221 201.959 81.4953 202.336Z" fill="url(#paint26_radial_325_145)"/>
<path d="M131.375 229.699C135.832 225.476 137.925 220.449 136.05 218.47C134.175 216.491 129.042 218.31 124.585 222.533C120.128 226.755 118.035 231.782 119.91 233.761C121.784 235.74 126.918 233.921 131.375 229.699Z" fill="url(#paint27_radial_325_145)"/>
<path d="M98.4124 193.369C102.87 189.147 104.963 184.12 103.088 182.141C101.213 180.162 96.0799 181.981 91.6227 186.203C87.1655 190.426 85.0722 195.453 86.9471 197.432C88.8221 199.41 93.9553 197.592 98.4124 193.369Z" fill="url(#paint28_radial_325_145)"/>
<path d="M124.525 216.405C123.302 219.2 118.012 220.201 112.704 218.643C107.395 217.085 104.084 213.555 105.301 210.759C106.524 207.964 111.813 206.963 117.122 208.521C122.431 210.079 125.742 213.609 124.525 216.405Z" fill="url(#paint29_radial_325_145)"/>
<path d="M131.872 185.944C134.534 186.872 134.565 191.981 131.942 197.352C129.318 202.723 125.032 206.326 122.369 205.398C119.707 204.47 119.675 199.36 122.299 193.99C124.923 188.619 129.209 185.016 131.872 185.944Z" fill="url(#paint30_radial_325_145)"/>
<path d="M72.342 239.586C76.5982 235.173 78.4552 230.059 76.4897 228.164C74.5243 226.269 69.4806 228.311 65.2244 232.724C60.9682 237.137 59.1112 242.251 61.0766 244.146C63.0421 246.041 68.0858 244 72.342 239.586Z" fill="url(#paint31_radial_325_145)"/>
<path d="M121.986 232.312C121.701 235.217 116.774 237.786 110.986 238.052C105.199 238.318 100.736 236.178 101.021 233.273C101.305 230.368 106.232 227.799 112.02 227.533C117.808 227.267 122.27 229.407 121.986 232.312Z" fill="url(#paint32_radial_325_145)"/>
<path d="M99.913 207.164C99.6286 210.069 94.7014 212.638 88.9138 212.903C83.1262 213.169 78.6637 211.03 78.9481 208.125C79.2326 205.219 84.1598 202.65 89.9474 202.385C95.735 202.119 100.197 204.258 99.913 207.164Z" fill="url(#paint33_radial_325_145)"/>
<path d="M113.247 183.272C112.963 186.177 108.036 188.746 102.248 189.011C96.4605 189.277 91.998 187.138 92.2825 184.232C92.5669 181.327 97.4941 178.758 103.282 178.493C109.069 178.227 113.532 180.366 113.247 183.272Z" fill="url(#paint34_radial_325_145)"/>
<path d="M108.317 223.121C110.436 224.853 108.833 229.95 104.736 234.501C100.642 239.056 95.6055 241.342 93.4866 239.61C91.3677 237.878 92.9712 232.781 97.0676 228.23C101.162 223.675 106.198 221.389 108.317 223.121Z" fill="url(#paint35_radial_325_145)"/>
<path d="M114.522 176.531C114.379 179.425 109.554 182.21 103.747 182.749C97.9375 183.291 93.3406 181.38 93.4837 178.486C93.6269 175.592 98.4516 172.808 104.258 172.268C110.068 171.727 114.665 173.637 114.522 176.531Z" fill="url(#paint36_radial_325_145)"/>
<path d="M117.846 180.147C119.965 181.879 118.361 186.975 114.265 191.527C110.171 196.081 105.134 198.367 103.015 196.635C100.896 194.903 102.5 189.807 106.596 185.255C110.69 180.701 115.727 178.415 117.846 180.147Z" fill="url(#paint37_radial_325_145)"/>
<path d="M106.666 225.24C106.381 228.146 101.454 230.714 95.6665 230.98C89.8789 231.246 85.4164 229.107 85.7008 226.201C85.9852 223.296 90.9125 220.727 96.7001 220.461C102.488 220.196 106.95 222.335 106.666 225.24Z" fill="url(#paint38_radial_325_145)"/>
<path d="M82.624 238.72C83.3764 241.4 79.4212 245.352 73.7916 247.546C68.162 249.74 62.9896 249.346 62.24 246.663C61.4876 243.983 65.4428 240.031 71.0724 237.837C76.702 235.643 81.8744 236.037 82.624 238.72Z" fill="url(#paint39_radial_325_145)"/>
<path d="M111.377 207.395C112.13 210.075 108.175 214.028 102.545 216.221C96.9154 218.415 91.743 218.021 90.9934 215.339C90.241 212.659 94.1962 208.706 99.8258 206.512C105.455 204.318 110.628 204.713 111.377 207.395Z" fill="url(#paint40_radial_325_145)"/>
<path d="M109.247 231.678C106.874 230.265 107.809 225.101 111.337 220.15C114.866 215.198 119.645 212.33 122.017 213.749C124.39 215.162 123.455 220.326 119.927 225.277C116.398 230.229 111.619 233.097 109.247 231.678Z" fill="url(#paint41_radial_325_145)"/>
<path d="M80.0192 212.623C82.1381 214.355 80.5346 219.451 76.4382 224.003C72.3419 228.554 67.3074 230.844 65.1885 229.111C63.0696 227.379 64.6731 222.283 68.7695 217.731C72.8634 213.177 77.9004 210.891 80.0192 212.623Z" fill="url(#paint42_radial_325_145)"/>
<path d="M73.0483 238.153C74.9669 235.684 80.134 236.107 84.5861 239.101C89.0382 242.094 91.0926 246.524 89.1716 248.989C87.2507 251.455 82.0859 251.035 77.6338 248.042C73.1817 245.048 71.1274 240.619 73.0483 238.153Z" fill="url(#paint43_radial_325_145)"/>
<path d="M103.19 211.13C100.905 209.595 102.09 204.445 105.831 199.632C109.575 194.816 114.457 192.158 116.742 193.693C119.027 195.228 117.842 200.378 114.101 205.192C110.36 210.005 105.475 212.665 103.19 211.13Z" fill="url(#paint44_radial_325_145)"/>
<path d="M109.543 216.508C112.504 215.734 115.496 219.535 116.232 224.998C116.968 230.462 115.164 235.522 112.206 236.294C109.245 237.068 106.253 233.267 105.517 227.804C104.781 222.34 106.586 217.28 109.543 216.508Z" fill="url(#paint45_radial_325_145)"/>
<path d="M136.15 202.328C139.11 201.554 142.103 205.355 142.839 210.818C143.574 216.282 141.77 221.342 138.812 222.114C135.852 222.888 132.859 219.087 132.124 213.624C131.388 208.16 133.192 203.1 136.15 202.328Z" fill="url(#paint46_radial_325_145)"/>
<path d="M107.14 174.616C109.71 175.719 109.399 180.867 106.445 186.11C103.492 191.354 99.0151 194.712 96.4457 193.605C93.8759 192.502 94.1868 187.354 97.1405 182.11C100.094 176.867 104.571 173.509 107.14 174.616Z" fill="url(#paint47_radial_325_145)"/>
<path d="M141.079 205.404C141.972 208.025 138.195 212.139 132.646 214.586C127.094 217.036 121.873 216.896 120.983 214.273C120.09 211.652 123.866 207.538 129.416 205.091C134.968 202.641 140.189 202.78 141.079 205.404Z" fill="url(#paint48_radial_325_145)"/>
<path d="M120.119 198.669C122.992 199.041 124.057 203.904 122.494 209.526C120.931 215.147 117.337 219.405 114.464 219.027C111.59 218.655 110.526 213.792 112.089 208.171C113.652 202.549 117.246 198.292 120.119 198.669Z" fill="url(#paint49_radial_325_145)"/>
<path d="M103.358 193.876C106.079 194.676 106.356 199.742 103.979 205.193C101.6 210.641 97.4649 214.414 94.7407 213.615C92.0194 212.814 91.743 207.749 94.1197 202.298C96.4988 196.85 100.634 193.077 103.358 193.876Z" fill="url(#paint50_radial_325_145)"/>
<path d="M104.69 236.848C105.715 239.407 102.122 243.664 96.6601 246.35C91.1978 249.04 85.941 249.144 84.9132 246.582C83.8877 244.024 87.4811 239.766 92.943 237.081C98.4054 234.39 103.662 234.286 104.69 236.848Z" fill="url(#paint51_radial_325_145)"/>
<path d="M124.484 228.378C128.941 224.156 131.034 219.128 129.159 217.15C127.284 215.171 122.151 216.99 117.694 221.212C113.237 225.434 111.143 230.462 113.018 232.44C114.893 234.419 120.027 232.6 124.484 228.378Z" fill="url(#paint52_radial_325_145)"/>
<path d="M162.948 192.123C165.167 193.737 170.119 191.221 174 186.504C177.884 181.786 179.231 176.656 177.011 175.042C174.792 173.428 169.84 175.944 165.959 180.66C162.076 185.379 160.728 190.509 162.948 192.123Z" fill="url(#paint53_radial_325_145)"/>
<path d="M144.833 187.019C147.053 188.633 152.004 186.116 155.885 181.4C159.766 176.683 161.116 171.551 158.896 169.937C156.677 168.323 151.725 170.84 147.844 175.556C143.961 180.275 142.614 185.405 144.833 187.019Z" fill="url(#paint54_radial_325_145)"/>
<path d="M131.5 193.898C133.719 195.512 138.671 192.996 142.552 188.279C146.432 183.563 147.782 178.431 145.563 176.817C143.343 175.203 138.392 177.719 134.511 182.435C130.63 187.152 129.28 192.284 131.5 193.898Z" fill="url(#paint55_radial_325_145)"/>
<path d="M127.901 205.885C130.121 207.499 135.072 204.983 138.953 200.267C142.837 195.548 144.184 190.418 141.965 188.804C139.745 187.19 134.793 189.706 130.913 194.423C127.029 199.141 125.682 204.271 127.901 205.885Z" fill="url(#paint56_radial_325_145)"/>
<path d="M129.9 168.113C132.119 169.727 137.071 167.21 140.952 162.494C144.835 157.775 146.182 152.645 143.963 151.031C141.743 149.418 136.792 151.934 132.911 156.65C129.027 161.369 127.68 166.499 129.9 168.113Z" fill="url(#paint57_radial_325_145)"/>
<path d="M173.056 170.962C175.276 172.576 180.227 170.06 184.108 165.343C187.992 160.625 189.339 155.495 187.119 153.881C184.9 152.267 179.948 154.783 176.067 159.499C172.187 164.216 170.837 169.348 173.056 170.962Z" fill="url(#paint58_radial_325_145)"/>
<path d="M160.774 173.916C161.938 176.403 167.224 176.037 172.581 173.099C177.934 170.16 181.328 165.763 180.163 163.277C178.999 160.79 173.713 161.156 168.356 164.094C163.004 167.033 159.61 171.43 160.774 173.916Z" fill="url(#paint59_radial_325_145)"/>
<path d="M140.974 178.836C142.138 181.322 147.423 180.956 152.781 178.018C158.138 175.08 161.527 170.682 160.363 168.196C159.199 165.71 153.913 166.076 148.556 169.014C143.203 171.953 139.809 176.35 140.974 178.836Z" fill="url(#paint60_radial_325_145)"/>
<path d="M145.472 172.374C147.976 173.59 152.567 170.398 155.724 165.247C158.882 160.095 159.411 154.935 156.904 153.722C154.4 152.506 149.808 155.698 146.651 160.849C143.494 166.001 142.965 171.161 145.472 172.374Z" fill="url(#paint61_radial_325_145)"/>
<path d="M144.615 150.044C143.964 147.328 139.649 146.465 134.978 148.124C130.31 149.782 127.051 153.328 127.704 156.046C128.355 158.762 132.67 159.626 137.341 157.966C142.009 156.309 145.269 152.763 144.615 150.044Z" fill="url(#paint62_radial_325_145)"/>
<path d="M129.819 185.541C132.323 186.757 136.914 183.565 140.072 178.414C143.229 173.262 143.758 168.102 141.251 166.889C138.747 165.673 134.156 168.865 130.998 174.016C127.841 179.168 127.312 184.328 129.819 185.541Z" fill="url(#paint63_radial_325_145)"/>
<path d="M151.57 145.829C151.751 148.675 156.602 150.057 162.408 148.912C168.214 147.766 172.774 144.532 172.593 141.68C172.412 138.829 167.561 137.452 161.755 138.597C155.949 139.743 151.389 142.977 151.57 145.829Z" fill="url(#paint64_radial_325_145)"/>
<path d="M103.243 170.153C103.425 172.999 108.276 174.381 114.081 173.236C119.887 172.09 124.448 168.856 124.267 166.004C124.085 163.158 119.234 161.776 113.429 162.922C107.623 164.067 103.062 167.301 103.243 170.153Z" fill="url(#paint65_radial_325_145)"/>
<path d="M116.732 162.191C116.914 165.037 121.765 166.42 127.57 165.274C133.376 164.128 137.937 160.894 137.755 158.042C137.574 155.191 132.723 153.814 126.917 154.96C121.112 156.105 116.551 159.34 116.732 162.191Z" fill="url(#paint66_radial_325_145)"/>
<path d="M139.868 146.558C138.773 149.389 142.271 152.742 147.682 154.05C153.093 155.357 158.366 154.127 159.462 151.297C160.557 148.466 157.059 145.113 151.648 143.805C146.237 142.498 140.964 143.728 139.868 146.558Z" fill="url(#paint67_radial_325_145)"/>
<path d="M121.353 191.049C123.857 192.264 128.448 189.073 131.606 183.921C134.763 178.77 135.292 173.609 132.785 172.396C130.281 171.18 125.69 174.372 122.532 179.523C119.375 184.675 118.846 189.835 121.353 191.049Z" fill="url(#paint68_radial_325_145)"/>
<path d="M125.975 170.607C128.479 171.822 133.07 168.631 136.227 163.479C139.385 158.328 139.914 153.167 137.407 151.954C134.903 150.738 130.311 153.93 127.154 159.082C123.997 164.233 123.468 169.393 125.975 170.607Z" fill="url(#paint69_radial_325_145)"/>
<path d="M171.118 159.599C172.282 162.085 177.568 161.719 182.926 158.781C188.278 155.843 191.672 151.446 190.508 148.959C189.343 146.473 184.058 146.839 178.7 149.777C173.348 152.716 169.954 157.113 171.118 159.599Z" fill="url(#paint70_radial_325_145)"/>
<path d="M150.596 160.758C151.76 163.245 157.046 162.879 162.403 159.94C167.756 157.002 171.15 152.605 169.986 150.118C168.821 147.632 163.536 147.998 158.178 150.936C152.826 153.875 149.432 158.272 150.596 160.758Z" fill="url(#paint71_radial_325_145)"/>
<path d="M163.139 160.506C164.303 162.993 169.589 162.627 174.946 159.688C180.299 156.75 183.693 152.353 182.528 149.866C181.364 147.38 176.079 147.746 170.721 150.684C165.369 153.623 161.975 158.02 163.139 160.506Z" fill="url(#paint72_radial_325_145)"/>
<path d="M174.21 139.921C171.789 138.577 167.07 141.565 163.678 146.592C160.282 151.621 159.494 156.785 161.918 158.126C164.339 159.469 169.057 156.482 172.45 151.455C175.842 146.428 176.634 141.262 174.21 139.921Z" fill="url(#paint73_radial_325_145)"/>
<path d="M152.154 161.633C151.869 164.538 156.33 166.675 162.12 166.412C167.907 166.146 172.834 163.577 173.119 160.672C173.403 157.767 168.943 155.63 163.153 155.893C157.366 156.159 152.438 158.728 152.154 161.633Z" fill="url(#paint74_radial_325_145)"/>
<path d="M144.608 194.718C141.7 195.764 140.398 200.901 141.702 206.19C143.002 211.479 146.416 214.917 149.324 213.871C152.232 212.825 153.535 207.688 152.23 202.399C150.931 197.11 147.517 193.672 144.608 194.718Z" fill="url(#paint75_radial_325_145)"/>
<path d="M165.619 166.747C164.967 164.031 159.837 163.46 154.163 165.473C148.486 167.488 144.414 171.324 145.065 174.04C145.717 176.756 150.847 177.327 156.521 175.314C162.198 173.299 166.27 169.463 165.619 166.747Z" fill="url(#paint76_radial_325_145)"/>
<path d="M127.945 183.439C125.037 184.486 123.734 189.622 125.039 194.911C126.343 200.201 129.752 203.639 132.66 202.592C135.569 201.546 136.871 196.41 135.567 191.12C134.267 185.832 130.853 182.393 127.945 183.439Z" fill="url(#paint77_radial_325_145)"/>
<path d="M134.733 182.807C136.949 180.572 135.685 175.725 131.909 171.983C128.133 168.241 123.275 167.02 121.059 169.256C118.843 171.491 120.107 176.337 123.883 180.08C127.659 183.822 132.517 185.043 134.733 182.807Z" fill="url(#paint78_radial_325_145)"/>
<path d="M162.787 160.737C162.644 163.631 167.241 165.541 173.051 165C178.861 164.458 183.688 161.676 183.826 158.782C183.969 155.888 179.372 153.977 173.562 154.519C167.752 155.061 162.925 157.842 162.787 160.737Z" fill="url(#paint79_radial_325_145)"/>
<path d="M138.928 154.327C138.785 157.221 143.382 159.131 149.192 158.59C155.001 158.048 159.828 155.266 159.966 152.372C160.104 149.477 155.512 147.567 149.703 148.109C143.893 148.651 139.066 151.432 138.928 154.327Z" fill="url(#paint80_radial_325_145)"/>
<path d="M161.278 197.075C159.663 194.879 154.345 196.048 149.399 199.685C144.453 203.323 141.753 208.053 143.368 210.249C144.983 212.445 150.301 211.276 155.247 207.638C160.193 204 162.893 199.271 161.278 197.075Z" fill="url(#paint81_radial_325_145)"/>
<path d="M133.114 158.821C131.499 156.625 126.18 157.794 121.234 161.431C116.288 165.069 113.588 169.799 115.203 171.995C116.818 174.191 122.137 173.022 127.083 169.384C132.028 165.746 134.729 161.017 133.114 158.821Z" fill="url(#paint82_radial_325_145)"/>
<path d="M145.144 199.168C148.112 198.461 150.035 193.433 149.443 187.932C148.851 182.43 145.964 178.547 142.996 179.249C140.029 179.956 138.105 184.984 138.697 190.485C139.29 195.986 142.176 199.87 145.144 199.168Z" fill="url(#paint83_radial_325_145)"/>
<path d="M183.705 141.648C182.189 139.377 176.827 140.298 171.728 143.704C166.63 147.11 163.726 151.712 165.243 153.982C166.759 156.253 172.121 155.332 177.22 151.926C182.318 148.52 185.221 143.918 183.705 141.648Z" fill="url(#paint84_radial_325_145)"/>
<path d="M161.04 199.665C163.95 199.901 167.352 195.507 168.64 189.858C169.927 184.209 168.613 179.438 165.703 179.203C162.794 178.968 159.392 183.361 158.104 189.01C156.816 194.659 158.131 199.43 161.04 199.665Z" fill="url(#paint85_radial_325_145)"/>
<path d="M140.413 173.308C143.323 173.544 146.725 169.15 148.012 163.501C149.3 157.852 147.986 153.081 145.076 152.846C142.166 152.611 138.765 157.004 137.477 162.653C136.189 168.302 137.503 173.073 140.413 173.308Z" fill="url(#paint86_radial_325_145)"/>
<path d="M154.628 184.409C155.956 186.802 161.256 186.127 166.462 182.903C171.67 179.681 174.814 175.13 173.485 172.737C172.156 170.345 166.856 171.019 161.65 174.244C156.442 177.465 153.299 182.017 154.628 184.409Z" fill="url(#paint87_radial_325_145)"/>
<path d="M110.645 186.166C111.974 188.559 117.274 187.884 122.479 184.66C127.688 181.439 130.831 176.887 129.502 174.494C128.173 172.102 122.873 172.776 117.667 176.001C112.459 179.222 109.316 183.774 110.645 186.166Z" fill="url(#paint88_radial_325_145)"/>
<path d="M168.283 166.341C166.668 164.145 161.349 165.314 156.404 168.952C151.458 172.59 148.757 177.319 150.372 179.515C151.988 181.711 157.306 180.543 162.252 176.905C167.198 173.267 169.898 168.538 168.283 166.341Z" fill="url(#paint89_radial_325_145)"/>
<path d="M174.535 161.888C177.039 163.104 181.63 159.912 184.787 154.761C187.945 149.61 188.474 144.449 185.967 143.236C183.463 142.02 178.871 145.212 175.714 150.363C172.557 155.515 172.028 160.675 174.535 161.888Z" fill="url(#paint90_radial_325_145)"/>
<path d="M136.727 183.469C139.231 184.685 143.822 181.493 146.98 176.342C150.137 171.191 150.666 166.03 148.159 164.817C145.655 163.601 141.064 166.793 137.906 171.944C134.749 177.096 134.22 182.256 136.727 183.469Z" fill="url(#paint91_radial_325_145)"/>
<path d="M162.881 186.844C161.911 184.258 156.664 184.262 151.165 186.857C145.666 189.452 141.996 193.647 142.971 196.233C143.942 198.818 149.189 198.814 154.688 196.219C160.187 193.625 163.857 189.43 162.881 186.844Z" fill="url(#paint92_radial_325_145)"/>
<path d="M149.313 154.698C150.642 157.09 155.942 156.416 161.148 153.191C166.356 149.97 169.499 145.418 168.17 143.026C166.841 140.633 161.541 141.308 156.335 144.532C151.13 147.756 147.984 152.305 149.313 154.698Z" fill="url(#paint93_radial_325_145)"/>
<path d="M188.684 159.993C187.791 157.372 182.569 157.232 177.02 159.68C171.468 162.129 167.695 166.241 168.588 168.862C169.48 171.483 174.702 171.622 180.251 169.175C185.803 166.725 189.577 162.614 188.684 159.993Z" fill="url(#paint94_radial_325_145)"/>
<path d="M144.148 178.388C143.396 175.708 138.224 175.313 132.597 177.505C126.967 179.699 123.012 183.651 123.764 186.331C124.517 189.011 129.689 189.405 135.316 187.214C140.946 185.02 144.901 181.067 144.148 178.388Z" fill="url(#paint95_radial_325_145)"/>
<path d="M145.922 192.323C147.117 194.793 152.404 194.377 157.737 191.392C163.07 188.406 166.421 183.982 165.226 181.511C164.031 179.041 158.744 179.457 153.411 182.442C148.079 185.428 144.727 189.852 145.922 192.323Z" fill="url(#paint96_radial_325_145)"/>
<path d="M107.055 176.004C107.707 178.72 112.837 179.29 118.511 177.278C124.188 175.263 128.26 171.427 127.609 168.711C126.958 165.995 121.827 165.424 116.153 167.437C110.476 169.452 106.404 173.288 107.055 176.004Z" fill="url(#paint97_radial_325_145)"/>
<path d="M135.556 209.151C138.332 209.824 142.311 205.895 144.445 200.38C146.578 194.865 146.062 189.849 143.287 189.176C140.512 188.503 136.532 192.432 134.398 197.947C132.265 203.463 132.781 208.478 135.556 209.151Z" fill="url(#paint98_radial_325_145)"/>
<path d="M126.528 173.856C127.179 176.572 132.309 177.143 137.983 175.13C143.66 173.116 147.732 169.279 147.081 166.563C146.43 163.847 141.3 163.277 135.625 165.289C129.948 167.304 125.876 171.14 126.528 173.856Z" fill="url(#paint99_radial_325_145)"/>
<path d="M168.78 183.273C171.116 184.736 175.944 181.954 179.555 177.055C183.171 172.156 184.206 167.001 181.867 165.535C179.531 164.073 174.703 166.854 171.092 171.753C167.476 176.652 166.441 181.807 168.78 183.273Z" fill="url(#paint100_radial_325_145)"/>
<path d="M148.285 206.596C150.789 207.812 155.38 204.62 158.537 199.469C161.695 194.317 162.224 189.157 159.717 187.943C157.213 186.728 152.622 189.919 149.464 195.071C146.307 200.222 145.778 205.383 148.285 206.596Z" fill="url(#paint101_radial_325_145)"/>
<path d="M153.377 161.577C153.377 161.577 147.236 168.732 140.827 177.631C138.874 180.343 136.895 183.217 135.055 186.105L135.05 186.11C129.913 194.175 125.864 202.302 126.521 207.195C126.521 207.195 121.388 205.824 114.515 205.477C111.125 205.308 107.319 205.379 103.494 205.997C98.1749 206.852 92.8314 208.749 88.5703 212.452C88.5703 212.452 90.0093 206.327 93.7871 198.567C96.3717 193.277 100.044 187.224 105.102 181.845C107.373 179.426 109.927 177.141 112.789 175.127C112.789 175.127 114.074 174.233 116.293 172.898C120.144 170.588 126.808 166.95 134.475 164.419C140.454 162.434 147.041 161.106 153.382 161.578L153.377 161.577Z" fill="#E84E31"/>
<path d="M89.3172 161.357C96.0359 169.394 101.216 176.167 105.099 181.847C113.795 194.553 116.036 201.795 114.512 205.479C111.122 205.31 107.317 205.381 103.491 205.999C100.801 204.439 97.5946 202.017 93.7843 198.569C88.0765 193.399 81.0171 185.914 72.3449 175.54C47.732 146.096 46.2543 135.592 50.9369 131.678C55.6194 127.763 64.6966 131.91 89.312 161.356L89.3172 161.357Z" fill="black"/>
<path d="M60.1828 156.907C60.1828 156.907 54.3035 150.846 56.5219 145.92C59.6178 142.929 65.4664 149.745 65.8633 150.22C66.2602 150.695 72.6654 158.095 67.447 159.955C65.1102 160.859 64.0751 160.592 60.1828 156.907Z" fill="white"/>
<path d="M115.672 139.326C124.306 149.655 130.398 157.896 134.472 164.416C137.981 170.015 139.994 174.343 140.83 177.629C138.877 180.341 136.898 183.214 135.058 186.103L135.053 186.108C131.015 185.343 125 181.445 116.293 172.898C111.342 168.033 105.525 161.662 98.7081 153.507C74.0951 124.063 72.6175 113.559 77.3 109.645C81.9826 105.731 91.0598 109.877 115.675 139.324L115.672 139.326Z" fill="black"/>
<path d="M87.2008 133.948C87.2008 133.948 81.3216 127.886 83.5399 122.961C86.6358 119.97 92.4845 126.786 92.8814 127.261C93.2783 127.735 99.6834 135.136 94.4651 136.996C92.1282 137.9 91.0932 137.633 87.2008 133.948Z" fill="white"/>
<path d="M161.22 111.169C161.244 111.171 161.275 111.179 161.314 111.192C161.353 111.204 161.421 111.241 161.518 111.3C161.617 111.352 161.697 111.422 161.76 111.51C161.83 111.599 161.887 111.73 161.93 111.905C161.974 112.079 161.983 112.282 161.956 112.512C161.885 113.108 161.53 113.557 160.89 113.86C160.25 114.164 159.533 114.268 158.739 114.175C158.326 114.126 157.969 114.04 157.67 113.916C157.378 113.793 157.114 113.608 156.877 113.363C156.64 113.118 156.474 112.78 156.38 112.35C156.295 111.913 156.288 111.388 156.36 110.777L156.495 109.633C155.947 109.568 155.718 109.15 155.809 108.38C155.828 108.221 155.86 108.051 155.905 107.871C155.951 107.691 155.987 107.555 156.014 107.461L156.068 107.311C156.257 107.349 156.497 107.393 156.79 107.444L157.036 105.358C157.81 105.345 158.416 105.364 158.853 105.416C159.282 105.466 159.615 105.655 159.85 105.98C160.094 106.299 160.188 106.697 160.132 107.174C160.12 107.277 160.087 107.491 160.032 107.814L161.512 107.868C161.722 108.142 161.791 108.578 161.721 109.173C161.626 109.976 160.963 110.305 159.732 110.159L159.589 110.142C159.542 110.33 159.508 110.524 159.484 110.722C159.417 111.294 159.533 111.67 159.834 111.851C159.925 111.902 160.014 111.933 160.101 111.943C160.372 111.975 160.598 111.929 160.782 111.806C160.967 111.674 161.084 111.535 161.134 111.388L161.22 111.169Z" fill="#EF4B8D"/>
<path d="M170.666 109.613C171.09 109.697 171.445 109.837 171.733 110.032C172.02 110.228 172.221 110.427 172.336 110.629C172.453 110.823 172.53 111.051 172.568 111.311C172.606 111.571 172.615 111.773 172.595 111.916C172.584 112.052 172.563 112.199 172.532 112.356L171.761 115.751C171.244 115.975 170.761 116.042 170.314 115.953C169.82 115.855 169.433 115.644 169.155 115.32C168.885 114.997 168.798 114.589 168.896 114.094C169.153 112.799 169.293 112.154 169.317 112.159C169.406 111.712 169.266 111.451 168.897 111.378C168.763 111.352 168.647 111.382 168.549 111.468C168.459 111.549 168.399 111.626 168.368 111.702C168.336 111.777 168.313 111.854 168.298 111.932L168.034 113.262L167.744 114.722C167.704 114.763 167.641 114.812 167.556 114.868C167.473 114.917 167.295 114.972 167.022 115.032C166.757 115.093 166.484 115.096 166.201 115.04C165.118 114.825 164.664 114.05 164.839 112.715C165.565 109.262 166.001 107.269 166.147 106.735C166.633 106.546 167.155 106.507 167.712 106.617C167.963 106.667 168.165 106.719 168.317 106.774C168.469 106.828 168.62 106.911 168.769 107.022C168.92 107.126 169.018 107.271 169.062 107.46C169.106 107.648 169.102 107.875 169.049 108.142L168.641 110.202C169.253 109.663 169.928 109.466 170.666 109.613Z" fill="#EF4B8D"/>
<path d="M182.354 114.201C182.278 114.479 182.095 115.076 181.803 115.992C181.522 116.902 181.318 117.588 181.192 118.051C181.166 118.086 181.122 118.124 181.061 118.165C181 118.206 180.852 118.249 180.616 118.292C180.382 118.328 180.122 118.311 179.834 118.241L179.776 118.225C179.328 118.103 179.019 117.885 178.847 117.573C178.683 117.263 178.65 116.91 178.75 116.514C178.734 116.543 178.707 116.581 178.669 116.629C178.631 116.677 178.543 116.756 178.405 116.868C178.267 116.979 178.113 117.07 177.945 117.14C177.777 117.211 177.55 117.252 177.264 117.266C176.986 117.281 176.689 117.246 176.373 117.159C175.678 116.97 175.167 116.548 174.839 115.895C174.519 115.244 174.454 114.571 174.644 113.876C174.878 113.02 175.331 112.376 176.004 111.946C176.687 111.511 177.46 111.411 178.325 111.647C179.081 111.853 179.583 112.139 179.832 112.506C179.851 112.312 179.844 112.173 179.808 112.089C180.188 111.852 180.717 111.827 181.397 112.012C181.86 112.139 182.162 112.412 182.305 112.832C182.455 113.255 182.471 113.711 182.354 114.201ZM178.124 115.572C178.41 115.65 178.652 115.613 178.851 115.46C179.053 115.299 179.201 115.045 179.296 114.698C179.384 114.374 179.399 114.121 179.341 113.939C179.29 113.759 179.122 113.631 178.837 113.553C178.165 113.369 177.731 113.641 177.533 114.366C177.457 114.644 177.467 114.895 177.563 115.121C177.659 115.346 177.846 115.496 178.124 115.572Z" fill="#EF4B8D"/>
<path d="M189.571 118.006C189.594 118.014 189.623 118.028 189.658 118.049C189.693 118.069 189.752 118.119 189.834 118.199C189.919 118.271 189.982 118.356 190.024 118.456C190.073 118.558 190.101 118.698 190.106 118.878C190.111 119.058 190.075 119.257 189.999 119.476C189.802 120.043 189.358 120.405 188.668 120.563C187.977 120.721 187.254 120.668 186.499 120.405C186.106 120.268 185.777 120.107 185.511 119.921C185.253 119.738 185.035 119.501 184.857 119.21C184.678 118.919 184.59 118.554 184.59 118.113C184.601 117.668 184.708 117.155 184.911 116.573L185.29 115.485C184.768 115.304 184.635 114.847 184.891 114.114C184.943 113.963 185.011 113.804 185.094 113.638C185.178 113.472 185.242 113.347 185.289 113.261L185.374 113.126C185.551 113.204 185.776 113.299 186.05 113.412L186.741 111.429C187.5 111.583 188.088 111.733 188.503 111.877C188.911 112.02 189.195 112.275 189.354 112.644C189.524 113.008 189.53 113.417 189.372 113.87C189.338 113.968 189.259 114.17 189.136 114.474L190.57 114.846C190.715 115.159 190.689 115.599 190.491 116.166C190.225 116.929 189.507 117.107 188.336 116.699L188.2 116.651C188.114 116.825 188.039 117.006 187.973 117.195C187.783 117.739 187.816 118.131 188.071 118.373C188.148 118.442 188.229 118.491 188.312 118.52C188.569 118.61 188.8 118.614 189.006 118.533C189.215 118.445 189.359 118.334 189.439 118.201L189.571 118.006Z" fill="#EF4B8D"/>
<path d="M196.131 113.768C196.171 113.776 196.221 113.791 196.28 113.815C196.503 113.905 196.653 114.057 196.731 114.269C196.816 114.485 196.831 114.715 196.775 114.96C196.765 115.008 196.743 115.072 196.71 115.154C196.566 115.51 196.305 115.793 195.927 116.002C195.552 116.204 195.234 116.275 194.975 116.213C194.96 116.207 194.943 116.205 194.926 116.206C194.911 116.2 194.896 116.194 194.881 116.188C194.777 116.146 194.686 116.083 194.608 116C194.532 115.909 194.483 115.829 194.459 115.759L194.435 115.658C194.836 115.605 195.15 115.49 195.377 115.314C195.097 115.089 195 114.795 195.086 114.433C195.09 114.4 195.103 114.358 195.124 114.306C195.205 114.106 195.34 113.953 195.529 113.848C195.718 113.743 195.919 113.717 196.131 113.768Z" fill="#EF4B8D"/>
<path d="M199.102 120.638C199.093 120.678 199.103 120.722 199.134 120.772C199.171 120.824 199.227 120.876 199.3 120.927C199.381 120.982 199.454 121.033 199.52 121.081C199.589 121.121 199.67 121.167 199.761 121.218C199.855 121.261 199.919 121.295 199.952 121.319C200.036 121.366 200.125 121.42 200.221 121.481C200.323 121.546 200.454 121.654 200.613 121.807C200.782 121.955 200.917 122.113 201.015 122.282C201.121 122.453 201.182 122.666 201.198 122.92C201.221 123.177 201.172 123.436 201.052 123.698C200.448 125.014 199.125 125.204 197.082 124.266C196.638 124.063 196.286 123.871 196.026 123.69C195.773 123.512 195.604 123.333 195.519 123.154C195.442 122.977 195.404 122.819 195.407 122.679C195.417 122.543 195.461 122.37 195.54 122.16C195.633 121.956 195.772 121.817 195.955 121.743C196.146 121.672 196.31 121.65 196.447 121.678L196.658 121.735C197.051 122.241 197.477 122.599 197.935 122.809C198.284 122.969 198.48 123.002 198.523 122.908C198.543 122.864 198.509 122.804 198.421 122.729C198.336 122.646 198.246 122.573 198.15 122.512L197.992 122.426C197.934 122.399 197.859 122.361 197.768 122.31C197.687 122.256 197.547 122.139 197.348 121.959C197.152 121.772 196.99 121.579 196.861 121.379C196.736 121.172 196.659 120.908 196.631 120.587C196.602 120.266 196.666 119.934 196.823 119.593C196.979 119.251 197.196 118.99 197.473 118.808C197.76 118.623 198.047 118.526 198.333 118.516C198.622 118.5 198.895 118.51 199.15 118.548C199.416 118.582 199.631 118.632 199.794 118.698L200.055 118.791C200.535 119.012 200.929 119.236 201.238 119.466C201.549 119.688 201.765 119.88 201.885 120.04C202.016 120.197 202.09 120.372 202.107 120.564C202.135 120.753 202.13 120.896 202.094 120.994C202.069 121.088 202.023 121.208 201.956 121.353C201.886 121.506 201.763 121.612 201.586 121.672C201.412 121.724 201.251 121.739 201.104 121.715L200.893 121.684C200.663 121.323 200.206 120.986 199.522 120.673C199.29 120.566 199.15 120.554 199.102 120.638Z" fill="#EF4B8D"/>
<path d="M212.62 125.516C212.988 125.743 213.273 125.998 213.475 126.281C213.676 126.564 213.795 126.821 213.833 127.05C213.874 127.273 213.867 127.513 213.813 127.771C213.758 128.028 213.696 128.22 213.627 128.347C213.57 128.471 213.499 128.601 213.415 128.738L211.511 131.652C210.948 131.682 210.472 131.577 210.084 131.338C209.655 131.074 209.366 130.742 209.218 130.341C209.077 129.944 209.138 129.531 209.402 129.102C210.093 127.978 210.449 127.422 210.47 127.434C210.708 127.046 210.668 126.753 210.347 126.556C210.232 126.485 210.112 126.473 209.99 126.519C209.878 126.563 209.795 126.615 209.739 126.675C209.683 126.735 209.635 126.799 209.593 126.867L208.883 128.022L208.103 129.29C208.051 129.314 207.975 129.338 207.876 129.361C207.781 129.378 207.596 129.367 207.319 129.329C207.049 129.294 206.791 129.202 206.546 129.051C205.605 128.473 205.45 127.588 206.079 126.397C207.96 123.412 209.063 121.695 209.386 121.246C209.907 121.238 210.41 121.383 210.894 121.68C211.112 121.814 211.283 121.933 211.407 122.038C211.53 122.142 211.643 122.272 211.744 122.428C211.849 122.577 211.89 122.748 211.866 122.94C211.842 123.132 211.759 123.343 211.616 123.575L210.517 125.364C211.279 125.072 211.98 125.123 212.62 125.516Z" fill="#EF4B8D"/>
<path d="M219.753 130.164C220.158 130.478 220.48 130.799 220.721 131.128C220.968 131.462 221.122 131.779 221.183 132.079C221.243 132.379 221.267 132.656 221.253 132.908C221.245 133.166 221.183 133.422 221.067 133.676C220.956 133.924 220.857 134.116 220.772 134.252C220.686 134.388 220.587 134.529 220.474 134.674C220.337 134.851 220.195 135.014 220.048 135.164C219.902 135.313 219.677 135.478 219.375 135.659C219.079 135.844 218.775 135.962 218.462 136.013C218.155 136.069 217.777 136.033 217.328 135.907C216.885 135.786 216.433 135.547 215.972 135.188C214.254 133.854 214.049 132.343 215.36 130.656C215.477 130.504 215.607 130.357 215.749 130.213C215.897 130.075 216.116 129.916 216.407 129.737C216.705 129.563 217.007 129.448 217.313 129.393C217.631 129.336 218.005 129.363 218.435 129.474C218.872 129.59 219.311 129.82 219.753 130.164ZM217.35 133.493C217.533 133.635 217.75 133.682 218 133.634C218.251 133.585 218.462 133.45 218.634 133.229C218.8 133.014 218.874 132.783 218.854 132.534C218.834 132.286 218.733 132.091 218.55 131.948C218.354 131.796 218.13 131.739 217.878 131.776C217.632 131.818 217.426 131.947 217.259 132.162C217.088 132.383 217.009 132.621 217.024 132.875C217.045 133.135 217.154 133.341 217.35 133.493Z" fill="#EF4B8D"/>
<path d="M224.084 134.208C224.757 134.224 225.331 134.486 225.807 134.994C226.393 135.619 226.484 136.191 226.083 136.71C225.905 136.942 225.698 137.229 225.46 137.572C225.234 137.916 225.049 138.199 224.906 138.42L224.692 138.753L227.545 137.165C227.749 137.149 228.026 137.328 228.376 137.701C228.77 138.122 229.007 138.497 229.087 138.828C229.167 139.159 229.086 139.541 228.846 139.975C228.611 140.414 228.168 140.966 227.519 141.63L230.418 140.196C230.665 140.249 230.912 140.407 231.158 140.67C231.475 141.008 231.653 141.374 231.691 141.765C231.735 142.163 231.599 142.509 231.284 142.805C231.132 142.947 230.883 143.114 230.537 143.307C230.197 143.494 229.787 143.676 229.305 143.853C228.824 144.029 228.342 144.164 227.858 144.255C227.374 144.347 226.895 144.346 226.423 144.251C225.956 144.162 225.578 143.963 225.288 143.654C225.064 143.415 224.891 143.154 224.77 142.873C224.386 141.961 224.712 140.992 225.747 139.967C225.683 140.016 225.599 140.079 225.495 140.154C225.391 140.23 225.183 140.342 224.873 140.491C224.568 140.634 224.265 140.731 223.963 140.784C223.673 140.837 223.337 140.812 222.956 140.709C222.58 140.6 222.242 140.385 221.941 140.064C221.64 139.743 221.507 139.32 221.541 138.795C221.58 138.275 221.733 137.76 221.998 137.248C222.264 136.735 222.552 136.247 222.861 135.781C223.171 135.316 223.452 134.937 223.705 134.646L224.084 134.208Z" fill="#EF4B8D"/>
<path d="M235.546 148.394C236.215 148.468 236.765 148.778 237.195 149.325C237.724 149.998 237.767 150.575 237.322 151.058C237.125 151.274 236.894 151.542 236.628 151.864C236.373 152.187 236.164 152.452 236.003 152.661L235.76 152.974L238.74 151.637C238.945 151.639 239.205 151.841 239.522 152.243C239.878 152.696 240.082 153.09 240.133 153.427C240.184 153.763 240.071 154.137 239.794 154.548C239.522 154.966 239.034 155.478 238.33 156.083L241.341 154.904C241.583 154.978 241.815 155.157 242.038 155.44C242.325 155.804 242.471 156.183 242.475 156.577C242.484 156.977 242.319 157.31 241.98 157.578C241.816 157.706 241.554 157.852 241.193 158.014C240.838 158.171 240.413 158.317 239.919 158.451C239.424 158.586 238.932 158.679 238.442 158.728C237.951 158.778 237.475 158.736 237.013 158.601C236.555 158.472 236.195 158.241 235.933 157.908C235.73 157.65 235.581 157.376 235.484 157.086C235.181 156.144 235.588 155.207 236.708 154.275C236.64 154.318 236.551 154.373 236.44 154.439C236.33 154.506 236.114 154.6 235.792 154.721C235.476 154.837 235.165 154.908 234.86 154.935C234.566 154.962 234.234 154.908 233.863 154.773C233.498 154.633 233.179 154.39 232.907 154.044C232.635 153.698 232.538 153.265 232.617 152.745C232.702 152.231 232.898 151.73 233.207 151.243C233.515 150.755 233.844 150.293 234.192 149.856C234.541 149.419 234.853 149.066 235.13 148.797L235.546 148.394Z" fill="#EF4B8D"/>
<path d="M242.519 165.194C242.113 164.798 241.825 164.388 241.656 163.966C241.498 163.544 241.453 163.143 241.522 162.763C241.591 162.383 241.711 162.036 241.882 161.723C242.054 161.41 242.273 161.116 242.542 160.841C242.799 160.577 243.096 160.359 243.433 160.185C243.782 160.011 244.151 159.896 244.54 159.84C244.93 159.784 245.335 159.827 245.755 159.969C246.182 160.116 246.575 160.366 246.936 160.718C247.663 161.428 248.051 162.107 248.098 162.757C248.152 163.413 247.921 164.004 247.408 164.531C247.184 164.76 246.948 164.904 246.7 164.964C246.463 165.024 246.225 164.998 245.986 164.888C245.759 164.778 245.562 164.664 245.397 164.547C245.242 164.431 245.065 164.274 244.865 164.079C244.687 163.906 244.541 163.724 244.425 163.533C244.315 163.347 244.248 163.204 244.225 163.102L244.189 162.95C243.971 163.185 243.895 163.44 243.961 163.717C244.032 163.987 244.196 164.248 244.454 164.5C244.763 164.801 245.202 165.09 245.772 165.366C245.706 165.57 245.607 165.741 245.473 165.879C245.182 166.177 244.782 166.3 244.272 166.25C243.768 166.194 243.184 165.842 242.519 165.194ZM246.086 161.985C245.931 161.834 245.747 161.771 245.532 161.796C245.329 161.821 245.146 161.917 244.984 162.083C244.911 162.158 244.853 162.223 244.808 162.281C244.874 162.523 245.032 162.767 245.284 163.013C245.433 163.147 245.592 163.213 245.762 163.211C245.937 163.214 246.084 163.156 246.201 163.035C246.335 162.898 246.384 162.728 246.347 162.524C246.322 162.321 246.235 162.141 246.086 161.985Z" fill="#EF4B8D"/>
<path d="M253.624 167.11C254.072 167.185 254.527 167.388 254.989 167.719C255.372 167.994 255.638 168.283 255.785 168.585C255.944 168.886 255.928 169.169 255.737 169.436C255.757 169.421 255.783 169.405 255.815 169.389C255.851 169.366 255.928 169.341 256.044 169.317C256.171 169.29 256.302 169.28 256.434 169.286C256.574 169.298 256.748 169.344 256.956 169.424C257.164 169.504 257.379 169.623 257.6 169.782C258.153 170.178 258.457 170.701 258.513 171.351C258.575 172.006 258.436 172.571 258.096 173.045C257.416 173.995 256.552 174.095 255.505 173.344C255.219 173.139 254.942 172.901 254.673 172.63L255.487 171.412C255.706 171.107 255.685 170.861 255.425 170.674C255.282 170.572 255.155 170.55 255.045 170.608C254.934 170.667 254.82 170.777 254.704 170.94L252.905 173.43C252.857 173.455 252.787 173.478 252.693 173.499C252.61 173.519 252.423 173.498 252.132 173.437C251.852 173.375 251.559 173.234 251.254 173.015C250.955 172.8 250.736 172.59 250.599 172.383C250.468 172.181 250.418 171.963 250.448 171.729C250.485 171.499 250.56 171.277 250.673 171.064C250.787 170.85 250.968 170.571 251.215 170.226C251.471 169.868 251.8 169.43 252.201 168.911C252.603 168.391 252.939 167.963 253.21 167.626L253.624 167.11Z" fill="#EF4B8D"/>
<path d="M264.23 174.061C264.679 174.306 265.049 174.572 265.339 174.859C265.637 175.149 265.839 175.437 265.947 175.724C266.054 176.011 266.122 176.28 266.148 176.532C266.182 176.787 266.161 177.049 266.087 177.319C266.017 177.581 265.95 177.786 265.887 177.934C265.825 178.082 265.749 178.237 265.661 178.399C265.554 178.595 265.439 178.779 265.319 178.95C265.198 179.121 265.003 179.32 264.733 179.546C264.47 179.776 264.189 179.941 263.888 180.041C263.594 180.145 263.215 180.171 262.752 180.118C262.295 180.069 261.811 179.905 261.299 179.624C259.389 178.581 258.947 177.122 259.971 175.248C260.063 175.079 260.168 174.913 260.285 174.749C260.409 174.589 260.6 174.397 260.859 174.174C261.125 173.954 261.405 173.793 261.698 173.689C262.003 173.582 262.376 173.549 262.819 173.59C263.268 173.635 263.739 173.792 264.23 174.061ZM262.388 177.731C262.592 177.842 262.813 177.854 263.053 177.766C263.292 177.678 263.479 177.511 263.613 177.266C263.744 177.027 263.78 176.787 263.72 176.545C263.661 176.303 263.53 176.126 263.326 176.015C263.109 175.896 262.878 175.875 262.636 175.952C262.4 176.033 262.217 176.193 262.087 176.431C261.952 176.677 261.913 176.924 261.968 177.173C262.031 177.426 262.171 177.612 262.388 177.731Z" fill="#EF4B8D"/>
<path d="M269.896 175.037C270.369 174.924 270.908 174.996 271.512 175.251C272.559 175.693 272.898 176.349 272.531 177.218L270.019 183.165C270.005 183.177 269.985 183.194 269.958 183.218C269.933 183.234 269.869 183.263 269.764 183.305C269.67 183.344 269.56 183.367 269.435 183.375C269.318 183.386 269.15 183.372 268.932 183.332C268.722 183.295 268.495 183.225 268.252 183.123C267.618 182.855 267.259 182.482 267.175 182.003C267.101 181.52 267.26 180.815 267.652 179.886C267.876 179.356 268.172 178.686 268.54 177.877C268.915 177.072 269.236 176.395 269.502 175.847L269.896 175.037Z" fill="#EF4B8D"/>
<path d="M274.221 176.856C274.683 176.706 275.226 176.734 275.849 176.941C276.927 177.299 277.317 177.926 277.019 178.822L274.984 184.949C274.971 184.962 274.952 184.981 274.927 185.006C274.904 185.024 274.842 185.058 274.741 185.109C274.65 185.154 274.542 185.186 274.418 185.204C274.302 185.224 274.134 185.223 273.914 185.2C273.701 185.18 273.47 185.129 273.219 185.046C272.566 184.829 272.179 184.485 272.057 184.015C271.945 183.539 272.048 182.823 272.366 181.866C272.548 181.32 272.79 180.629 273.093 179.794C273.403 178.961 273.669 178.261 273.891 177.694L274.221 176.856Z" fill="#EF4B8D"/>
<path d="M282.781 185.515C283.089 185.565 283.34 185.646 283.532 185.759C283.732 185.872 283.866 186 283.932 186.14C284.006 186.282 284.05 186.407 284.065 186.514C284.08 186.622 284.079 186.727 284.062 186.83C284.004 187.185 283.832 187.445 283.546 187.609C283.259 187.781 282.91 187.833 282.499 187.766C282.246 187.725 282.007 187.654 281.78 187.552C281.554 187.45 281.36 187.293 281.201 187.08C281.041 186.868 280.983 186.623 281.028 186.347C281.043 186.26 281.073 186.172 281.12 186.082C281.167 185.993 281.245 185.888 281.354 185.768C281.472 185.641 281.653 185.553 281.896 185.504C282.147 185.456 282.442 185.459 282.781 185.515ZM283.565 179.004C283.659 179.019 283.753 179.043 283.845 179.074C283.946 179.098 284.063 179.154 284.195 179.24C284.328 179.319 284.438 179.414 284.525 179.525C284.622 179.63 284.694 179.784 284.742 179.986C284.799 180.182 284.816 180.403 284.791 180.651C284.751 181.098 284.685 181.598 284.595 182.151C284.556 182.388 284.503 182.691 284.434 183.061C284.374 183.432 284.325 183.732 284.287 183.961C284.187 184.577 284.138 184.925 284.141 185.007C283.911 185.172 283.508 185.208 282.932 185.114C282.261 185.004 281.832 184.825 281.646 184.575C281.46 184.326 281.385 183.965 281.421 183.493C281.434 183.317 281.496 182.889 281.607 182.21C281.677 181.776 281.773 181.216 281.893 180.53C282.013 179.845 282.097 179.356 282.145 179.064C282.452 178.919 282.925 178.899 283.565 179.004Z" fill="#EF4B8D"/>
<defs>
<radialGradient id="paint0_radial_325_145" cx="0" cy="0" r="1" gradientUnits="userSpaceOnUse" gradientTransform="translate(206.435 81.2238) rotate(-39.8933) scale(0.417816 0.363257)">
<stop/>
<stop offset="1" stop-opacity="0.5"/>
</radialGradient>
<radialGradient id="paint1_radial_325_145" cx="0" cy="0" r="1" gradientUnits="userSpaceOnUse" gradientTransform="translate(101.191 241.26) rotate(-48.028) scale(10.449 4.28134)">
<stop stop-color="#B3B3B3"/>
<stop offset="0.32" stop-color="#CCCCCC"/>
<stop offset="1" stop-color="#E6E6E6"/>
</radialGradient>
<radialGradient id="paint2_radial_325_145" cx="0" cy="0" r="1" gradientUnits="userSpaceOnUse" gradientTransform="translate(117.387 223.418) rotate(119.379) scale(10.2393 4.38608)">
<stop stop-color="#B3B3B3"/>
<stop offset="0.32" stop-color="#CCCCCC"/>
<stop offset="1" stop-color="#E6E6E6"/>
</radialGradient>
<radialGradient id="paint3_radial_325_145" cx="0" cy="0" r="1" gradientUnits="userSpaceOnUse" gradientTransform="translate(104.567 217.878) rotate(-29.2603) scale(10.3444 4.28138)">
<stop stop-color="#B3B3B3"/>
<stop offset="0.32" stop-color="#CCCCCC"/>
<stop offset="1" stop-color="#E6E6E6"/>
</radialGradient>
<radialGradient id="paint4_radial_325_145" cx="0" cy="0" r="1" gradientUnits="userSpaceOnUse" gradientTransform="translate(146.341 214.28) rotate(-11.1595) scale(10.0296 4.49082)">
<stop stop-color="#B3B3B3"/>
<stop offset="0.32" stop-color="#CCCCCC"/>
<stop offset="1" stop-color="#E6E6E6"/>
</radialGradient>
<radialGradient id="paint5_radial_325_145" cx="0" cy="0" r="1" gradientUnits="userSpaceOnUse" gradientTransform="translate(129.037 202.101) rotate(-29.2603) scale(10.3444 4.28138)">
<stop stop-color="#B3B3B3"/>
<stop offset="0.32" stop-color="#CCCCCC"/>
<stop offset="1" stop-color="#E6E6E6"/>
</radialGradient>
<radialGradient id="paint6_radial_325_145" cx="0" cy="0" r="1" gradientUnits="userSpaceOnUse" gradientTransform="translate(84.1367 242.543) rotate(-29.2603) scale(10.3444 4.28138)">
<stop stop-color="#B3B3B3"/>
<stop offset="0.32" stop-color="#CCCCCC"/>
<stop offset="1" stop-color="#E6E6E6"/>
</radialGradient>
<radialGradient id="paint7_radial_325_145" cx="0" cy="0" r="1" gradientUnits="userSpaceOnUse" gradientTransform="translate(86.5397 239.234) rotate(-51.0261) scale(10.3444 4.28139)">
<stop stop-color="#B3B3B3"/>
<stop offset="0.32" stop-color="#CCCCCC"/>
<stop offset="1" stop-color="#E6E6E6"/>
</radialGradient>
<radialGradient id="paint8_radial_325_145" cx="0" cy="0" r="1" gradientUnits="userSpaceOnUse" gradientTransform="translate(105.142 182.57) rotate(-51.0261) scale(10.3444 4.28139)">
<stop stop-color="#B3B3B3"/>
<stop offset="0.32" stop-color="#CCCCCC"/>
<stop offset="1" stop-color="#E6E6E6"/>
</radialGradient>
<radialGradient id="paint9_radial_325_145" cx="0" cy="0" r="1" gradientUnits="userSpaceOnUse" gradientTransform="translate(91.9026 214.606) rotate(-21.2949) scale(10.2395 4.38601)">
<stop stop-color="#B3B3B3"/>
<stop offset="0.32" stop-color="#CCCCCC"/>
<stop offset="1" stop-color="#E6E6E6"/>
</radialGradient>
<radialGradient id="paint10_radial_325_145" cx="0" cy="0" r="1" gradientUnits="userSpaceOnUse" gradientTransform="translate(85.9665 200.521) rotate(-21.2949) scale(10.2395 4.38601)">
<stop stop-color="#B3B3B3"/>
<stop offset="0.32" stop-color="#CCCCCC"/>
<stop offset="1" stop-color="#E6E6E6"/>
</radialGradient>
<radialGradient id="paint11_radial_325_145" cx="0" cy="0" r="1" gradientUnits="userSpaceOnUse" gradientTransform="translate(71.9613 207.136) rotate(107.814) scale(10.0293 4.49099)">
<stop stop-color="#B3B3B3"/>
<stop offset="0.32" stop-color="#CCCCCC"/>
<stop offset="1" stop-color="#E6E6E6"/>
</radialGradient>
<radialGradient id="paint12_radial_325_145" cx="0" cy="0" r="1" gradientUnits="userSpaceOnUse" gradientTransform="translate(91.1198 180.852) rotate(107.814) scale(10.0293 4.49098)">
<stop stop-color="#B3B3B3"/>
<stop offset="0.32" stop-color="#CCCCCC"/>
<stop offset="1" stop-color="#E6E6E6"/>
</radialGradient>
<radialGradient id="paint13_radial_325_145" cx="0" cy="0" r="1" gradientUnits="userSpaceOnUse" gradientTransform="translate(113.992 194.382) rotate(-21.2949) scale(10.2395 4.38601)">
<stop stop-color="#B3B3B3"/>
<stop offset="0.32" stop-color="#CCCCCC"/>
<stop offset="1" stop-color="#E6E6E6"/>
</radialGradient>
<radialGradient id="paint14_radial_325_145" cx="0" cy="0" r="1" gradientUnits="userSpaceOnUse" gradientTransform="translate(93.4278 197.595) rotate(-21.2949) scale(10.2395 4.38601)">
<stop stop-color="#B3B3B3"/>
<stop offset="0.32" stop-color="#CCCCCC"/>
<stop offset="1" stop-color="#E6E6E6"/>
</radialGradient>
<radialGradient id="paint15_radial_325_145" cx="0" cy="0" r="1" gradientUnits="userSpaceOnUse" gradientTransform="translate(70.8229 246.678) rotate(-51.0261) scale(10.3444 4.28139)">
<stop stop-color="#B3B3B3"/>
<stop offset="0.32" stop-color="#CCCCCC"/>
<stop offset="1" stop-color="#E6E6E6"/>
</radialGradient>
<radialGradient id="paint16_radial_325_145" cx="0" cy="0" r="1" gradientUnits="userSpaceOnUse" gradientTransform="translate(73.1783 238.94) rotate(-51.0261) scale(10.3444 4.28139)">
<stop stop-color="#B3B3B3"/>
<stop offset="0.32" stop-color="#CCCCCC"/>
<stop offset="1" stop-color="#E6E6E6"/>
</radialGradient>
<radialGradient id="paint17_radial_325_145" cx="0" cy="0" r="1" gradientUnits="userSpaceOnUse" gradientTransform="translate(61.2052 233.462) rotate(156.186) scale(10.3441 4.38593)">
<stop stop-color="#B3B3B3"/>
<stop offset="0.32" stop-color="#CCCCCC"/>
<stop offset="1" stop-color="#E6E6E6"/>
</radialGradient>
<radialGradient id="paint18_radial_325_145" cx="0" cy="0" r="1" gradientUnits="userSpaceOnUse" gradientTransform="translate(83.732 225.135) rotate(-129.893) scale(9.08468 5.01558)">
<stop stop-color="#B3B3B3"/>
<stop offset="0.32" stop-color="#CCCCCC"/>
<stop offset="1" stop-color="#E6E6E6"/>
</radialGradient>
<radialGradient id="paint19_radial_325_145" cx="0" cy="0" r="1" gradientUnits="userSpaceOnUse" gradientTransform="translate(116.733 214.747) rotate(-155.958) scale(9.29472 4.80599)">
<stop stop-color="#B3B3B3"/>
<stop offset="0.32" stop-color="#CCCCCC"/>
<stop offset="1" stop-color="#E6E6E6"/>
</radialGradient>
<radialGradient id="paint20_radial_325_145" cx="0" cy="0" r="1" gradientUnits="userSpaceOnUse" gradientTransform="translate(82.3582 216.979) rotate(-155.958) scale(9.29472 4.80598)">
<stop stop-color="#B3B3B3"/>
<stop offset="0.32" stop-color="#CCCCCC"/>
<stop offset="1" stop-color="#E6E6E6"/>
</radialGradient>
<radialGradient id="paint21_radial_325_145" cx="0" cy="0" r="1" gradientUnits="userSpaceOnUse" gradientTransform="translate(116.989 207.105) rotate(-77.1549) scale(9.81978 4.59568)">
<stop stop-color="#B3B3B3"/>
<stop offset="0.32" stop-color="#CCCCCC"/>
<stop offset="1" stop-color="#E6E6E6"/>
</radialGradient>
<radialGradient id="paint22_radial_325_145" cx="0" cy="0" r="1" gradientUnits="userSpaceOnUse" gradientTransform="translate(107.708 195.871) rotate(-155.958) scale(9.29472 4.80599)">
<stop stop-color="#B3B3B3"/>
<stop offset="0.32" stop-color="#CCCCCC"/>
<stop offset="1" stop-color="#E6E6E6"/>
</radialGradient>
<radialGradient id="paint23_radial_325_145" cx="0" cy="0" r="1" gradientUnits="userSpaceOnUse" gradientTransform="translate(106.36 195.49) rotate(-125.17) scale(9.08471 5.01556)">
<stop stop-color="#B3B3B3"/>
<stop offset="0.32" stop-color="#CCCCCC"/>
<stop offset="1" stop-color="#E6E6E6"/>
</radialGradient>
<radialGradient id="paint24_radial_325_145" cx="0" cy="0" r="1" gradientUnits="userSpaceOnUse" gradientTransform="translate(96.3584 194.879) rotate(-115.144) scale(9.08507 4.91089)">
<stop stop-color="#B3B3B3"/>
<stop offset="0.32" stop-color="#CCCCCC"/>
<stop offset="1" stop-color="#E6E6E6"/>
</radialGradient>
<radialGradient id="paint25_radial_325_145" cx="0" cy="0" r="1" gradientUnits="userSpaceOnUse" gradientTransform="translate(77.9128 245.716) rotate(-74.4755) scale(9.92454 4.4911)">
<stop stop-color="#B3B3B3"/>
<stop offset="0.32" stop-color="#CCCCCC"/>
<stop offset="1" stop-color="#E6E6E6"/>
</radialGradient>
<radialGradient id="paint26_radial_325_145" cx="0" cy="0" r="1" gradientUnits="userSpaceOnUse" gradientTransform="translate(76.0149 220.544) rotate(-74.4754) scale(9.92455 4.4911)">
<stop stop-color="#B3B3B3"/>
<stop offset="0.32" stop-color="#CCCCCC"/>
<stop offset="1" stop-color="#E6E6E6"/>
</radialGradient>
<radialGradient id="paint27_radial_325_145" cx="0" cy="0" r="1" gradientUnits="userSpaceOnUse" gradientTransform="translate(126.784 226.861) rotate(-43.7708) scale(10.4491 4.2813)">
<stop stop-color="#B3B3B3"/>
<stop offset="0.32" stop-color="#CCCCCC"/>
<stop offset="1" stop-color="#E6E6E6"/>
</radialGradient>
<radialGradient id="paint28_radial_325_145" cx="0" cy="0" r="1" gradientUnits="userSpaceOnUse" gradientTransform="translate(94.2728 190.231) rotate(-43.7708) scale(10.4491 4.2813)">
<stop stop-color="#B3B3B3"/>
<stop offset="0.32" stop-color="#CCCCCC"/>
<stop offset="1" stop-color="#E6E6E6"/>
</radialGradient>
<radialGradient id="paint29_radial_325_145" cx="0" cy="0" r="1" gradientUnits="userSpaceOnUse" gradientTransform="translate(123.4 216.615) rotate(16.369) scale(9.39988 4.80562)">
<stop stop-color="#B3B3B3"/>
<stop offset="0.32" stop-color="#CCCCCC"/>
<stop offset="1" stop-color="#E6E6E6"/>
</radialGradient>
<radialGradient id="paint30_radial_325_145" cx="0" cy="0" r="1" gradientUnits="userSpaceOnUse" gradientTransform="translate(122.752 203.588) rotate(-63.9691) scale(10.1345 4.3862)">
<stop stop-color="#B3B3B3"/>
<stop offset="0.32" stop-color="#CCCCCC"/>
<stop offset="1" stop-color="#E6E6E6"/>
</radialGradient>
<radialGradient id="paint31_radial_325_145" cx="0" cy="0" r="1" gradientUnits="userSpaceOnUse" gradientTransform="translate(67.1979 237.311) rotate(-46.5889) scale(10.449 4.28132)">
<stop stop-color="#B3B3B3"/>
<stop offset="0.32" stop-color="#CCCCCC"/>
<stop offset="1" stop-color="#E6E6E6"/>
</radialGradient>
<radialGradient id="paint32_radial_325_145" cx="0" cy="0" r="1" gradientUnits="userSpaceOnUse" gradientTransform="translate(121.039 232.993) rotate(-2.6318) scale(9.81979 4.59568)">
<stop stop-color="#B3B3B3"/>
<stop offset="0.32" stop-color="#CCCCCC"/>
<stop offset="1" stop-color="#E6E6E6"/>
</radialGradient>
<radialGradient id="paint33_radial_325_145" cx="0" cy="0" r="1" gradientUnits="userSpaceOnUse" gradientTransform="translate(97.2588 207.81) rotate(-2.63178) scale(9.81978 4.59568)">
<stop stop-color="#B3B3B3"/>
<stop offset="0.32" stop-color="#CCCCCC"/>
<stop offset="1" stop-color="#E6E6E6"/>
</radialGradient>
<radialGradient id="paint34_radial_325_145" cx="0" cy="0" r="1" gradientUnits="userSpaceOnUse" gradientTransform="translate(108.952 183.896) rotate(-2.63177) scale(0.175291 0.0820364)">
<stop stop-color="#B3B3B3"/>
<stop offset="0.32" stop-color="#CCCCCC"/>
<stop offset="1" stop-color="#E6E6E6"/>
</radialGradient>
<radialGradient id="paint35_radial_325_145" cx="0" cy="0" r="1" gradientUnits="userSpaceOnUse" gradientTransform="translate(99.3665 232.495) rotate(-48.028) scale(0.186523 0.0764253)">
<stop stop-color="#B3B3B3"/>
<stop offset="0.32" stop-color="#CCCCCC"/>
<stop offset="1" stop-color="#E6E6E6"/>
</radialGradient>
<radialGradient id="paint36_radial_325_145" cx="0" cy="0" r="1" gradientUnits="userSpaceOnUse" gradientTransform="translate(109.898 176.641) rotate(-5.31124) scale(9.92455 4.4911)">
<stop stop-color="#B3B3B3"/>
<stop offset="0.32" stop-color="#CCCCCC"/>
<stop offset="1" stop-color="#E6E6E6"/>
</radialGradient>
<radialGradient id="paint37_radial_325_145" cx="0" cy="0" r="1" gradientUnits="userSpaceOnUse" gradientTransform="translate(109.362 189.109) rotate(-48.028) scale(10.449 4.28134)">
<stop stop-color="#B3B3B3"/>
<stop offset="0.32" stop-color="#CCCCCC"/>
<stop offset="1" stop-color="#E6E6E6"/>
</radialGradient>
<radialGradient id="paint38_radial_325_145" cx="0" cy="0" r="1" gradientUnits="userSpaceOnUse" gradientTransform="translate(104.351 225.898) rotate(-2.63178) scale(9.81978 4.59568)">
<stop stop-color="#B3B3B3"/>
<stop offset="0.32" stop-color="#CCCCCC"/>
<stop offset="1" stop-color="#E6E6E6"/>
</radialGradient>
<radialGradient id="paint39_radial_325_145" cx="0" cy="0" r="1" gradientUnits="userSpaceOnUse" gradientTransform="translate(77.4432 240.997) rotate(-21.2949) scale(10.2395 4.38601)">
<stop stop-color="#B3B3B3"/>
<stop offset="0.32" stop-color="#CCCCCC"/>
<stop offset="1" stop-color="#E6E6E6"/>
</radialGradient>
<radialGradient id="paint40_radial_325_145" cx="0" cy="0" r="1" gradientUnits="userSpaceOnUse" gradientTransform="translate(105.252 210.004) rotate(-21.2949) scale(10.2395 4.38601)">
<stop stop-color="#B3B3B3"/>
<stop offset="0.32" stop-color="#CCCCCC"/>
<stop offset="1" stop-color="#E6E6E6"/>
</radialGradient>
<radialGradient id="paint41_radial_325_145" cx="0" cy="0" r="1" gradientUnits="userSpaceOnUse" gradientTransform="translate(119.543 215.401) rotate(125.456) scale(10.3442 4.38589)">
<stop stop-color="#B3B3B3"/>
<stop offset="0.32" stop-color="#CCCCCC"/>
<stop offset="1" stop-color="#E6E6E6"/>
</radialGradient>
<radialGradient id="paint42_radial_325_145" cx="0" cy="0" r="1" gradientUnits="userSpaceOnUse" gradientTransform="translate(71.5316 221.613) rotate(-48.028) scale(10.449 4.28134)">
<stop stop-color="#B3B3B3"/>
<stop offset="0.32" stop-color="#CCCCCC"/>
<stop offset="1" stop-color="#E6E6E6"/>
</radialGradient>
<radialGradient id="paint43_radial_325_145" cx="0" cy="0" r="1" gradientUnits="userSpaceOnUse" gradientTransform="translate(76.2403 240.53) rotate(-146.094) scale(9.08515 4.91084)">
<stop stop-color="#B3B3B3"/>
<stop offset="0.32" stop-color="#CCCCCC"/>
<stop offset="1" stop-color="#E6E6E6"/>
</radialGradient>
<radialGradient id="paint44_radial_325_145" cx="0" cy="0" r="1" gradientUnits="userSpaceOnUse" gradientTransform="translate(116.198 196.464) rotate(127.855) scale(10.3443 4.28142)">
<stop stop-color="#B3B3B3"/>
<stop offset="0.32" stop-color="#CCCCCC"/>
<stop offset="1" stop-color="#E6E6E6"/>
</radialGradient>
<radialGradient id="paint45_radial_325_145" cx="0" cy="0" r="1" gradientUnits="userSpaceOnUse" gradientTransform="translate(112.605 236.759) rotate(-97.6661) scale(9.39973 4.80569)">
<stop stop-color="#B3B3B3"/>
<stop offset="0.32" stop-color="#CCCCCC"/>
<stop offset="1" stop-color="#E6E6E6"/>
</radialGradient>
<radialGradient id="paint46_radial_325_145" cx="0" cy="0" r="1" gradientUnits="userSpaceOnUse" gradientTransform="translate(139.476 224.18) rotate(-97.6661) scale(9.39973 4.80569)">
<stop stop-color="#B3B3B3"/>
<stop offset="0.32" stop-color="#CCCCCC"/>
<stop offset="1" stop-color="#E6E6E6"/>
</radialGradient>
<radialGradient id="paint47_radial_325_145" cx="0" cy="0" r="1" gradientUnits="userSpaceOnUse" gradientTransform="translate(98.6446 189.684) rotate(-60.6207) scale(10.2393 4.38607)">
<stop stop-color="#B3B3B3"/>
<stop offset="0.32" stop-color="#CCCCCC"/>
<stop offset="1" stop-color="#E6E6E6"/>
</radialGradient>
<radialGradient id="paint48_radial_325_145" cx="0" cy="0" r="1" gradientUnits="userSpaceOnUse" gradientTransform="translate(137.07 207.746) rotate(-23.8135) scale(10.3441 4.38593)">
<stop stop-color="#B3B3B3"/>
<stop offset="0.32" stop-color="#CCCCCC"/>
<stop offset="1" stop-color="#E6E6E6"/>
</radialGradient>
<radialGradient id="paint49_radial_325_145" cx="0" cy="0" r="1" gradientUnits="userSpaceOnUse" gradientTransform="translate(113.79 219.44) rotate(-74.4754) scale(9.92455 4.4911)">
<stop stop-color="#B3B3B3"/>
<stop offset="0.32" stop-color="#CCCCCC"/>
<stop offset="1" stop-color="#E6E6E6"/>
</radialGradient>
<radialGradient id="paint50_radial_325_145" cx="0" cy="0" r="1" gradientUnits="userSpaceOnUse" gradientTransform="translate(95.2959 210.432) rotate(-66.418) scale(10.1343 4.38629)">
<stop stop-color="#B3B3B3"/>
<stop offset="0.32" stop-color="#CCCCCC"/>
<stop offset="1" stop-color="#E6E6E6"/>
</radialGradient>
<radialGradient id="paint51_radial_325_145" cx="0" cy="0" r="1" gradientUnits="userSpaceOnUse" gradientTransform="translate(99.1096 240.389) rotate(-26.2122) scale(10.3443 4.38587)">
<stop stop-color="#B3B3B3"/>
<stop offset="0.32" stop-color="#CCCCCC"/>
<stop offset="1" stop-color="#E6E6E6"/>
</radialGradient>
<radialGradient id="paint52_radial_325_145" cx="0" cy="0" r="1" gradientUnits="userSpaceOnUse" gradientTransform="translate(120.066 225.421) rotate(-43.7708) scale(10.4491 4.2813)">
<stop stop-color="#B3B3B3"/>
<stop offset="0.32" stop-color="#CCCCCC"/>
<stop offset="1" stop-color="#E6E6E6"/>
</radialGradient>
<radialGradient id="paint53_radial_325_145" cx="0" cy="0" r="1" gradientUnits="userSpaceOnUse" gradientTransform="translate(167.175 185.966) rotate(129.474) scale(10.3444 4.28139)">
<stop stop-color="#B3B3B3"/>
<stop offset="0.32" stop-color="#CCCCCC"/>
<stop offset="1" stop-color="#E6E6E6"/>
</radialGradient>
<radialGradient id="paint54_radial_325_145" cx="0" cy="0" r="1" gradientUnits="userSpaceOnUse" gradientTransform="translate(149.449 180.503) rotate(129.474) scale(10.3444 4.28138)">
<stop stop-color="#B3B3B3"/>
<stop offset="0.32" stop-color="#CCCCCC"/>
<stop offset="1" stop-color="#E6E6E6"/>
</radialGradient>
<radialGradient id="paint55_radial_325_145" cx="0" cy="0" r="1" gradientUnits="userSpaceOnUse" gradientTransform="translate(136.281 187.222) rotate(129.474) scale(10.3444 4.28138)">
<stop stop-color="#B3B3B3"/>
<stop offset="0.32" stop-color="#CCCCCC"/>
<stop offset="1" stop-color="#E6E6E6"/>
</radialGradient>
<radialGradient id="paint56_radial_325_145" cx="0" cy="0" r="1" gradientUnits="userSpaceOnUse" gradientTransform="translate(132.607 199.264) rotate(129.474) scale(10.3444 4.28138)">
<stop stop-color="#B3B3B3"/>
<stop offset="0.32" stop-color="#CCCCCC"/>
<stop offset="1" stop-color="#E6E6E6"/>
</radialGradient>
<radialGradient id="paint57_radial_325_145" cx="0" cy="0" r="1" gradientUnits="userSpaceOnUse" gradientTransform="translate(135.006 161.162) rotate(129.474) scale(10.3444 4.28138)">
<stop stop-color="#B3B3B3"/>
<stop offset="0.32" stop-color="#CCCCCC"/>
<stop offset="1" stop-color="#E6E6E6"/>
</radialGradient>
<radialGradient id="paint58_radial_325_145" cx="0" cy="0" r="1" gradientUnits="userSpaceOnUse" gradientTransform="translate(177.342 164.772) rotate(129.474) scale(10.3444 4.28138)">
<stop stop-color="#B3B3B3"/>
<stop offset="0.32" stop-color="#CCCCCC"/>
<stop offset="1" stop-color="#E6E6E6"/>
</radialGradient>
<radialGradient id="paint59_radial_325_145" cx="0" cy="0" r="1" gradientUnits="userSpaceOnUse" gradientTransform="translate(173.53 166.382) rotate(151.239) scale(10.3444 4.28139)">
<stop stop-color="#B3B3B3"/>
<stop offset="0.32" stop-color="#CCCCCC"/>
<stop offset="1" stop-color="#E6E6E6"/>
</radialGradient>
<radialGradient id="paint60_radial_325_145" cx="0" cy="0" r="1" gradientUnits="userSpaceOnUse" gradientTransform="translate(153.668 171.365) rotate(151.239) scale(10.3444 4.28139)">
<stop stop-color="#B3B3B3"/>
<stop offset="0.32" stop-color="#CCCCCC"/>
<stop offset="1" stop-color="#E6E6E6"/>
</radialGradient>
<radialGradient id="paint61_radial_325_145" cx="0" cy="0" r="1" gradientUnits="userSpaceOnUse" gradientTransform="translate(148.232 168.374) rotate(121.508) scale(10.2395 4.38601)">
<stop stop-color="#B3B3B3"/>
<stop offset="0.32" stop-color="#CCCCCC"/>
<stop offset="1" stop-color="#E6E6E6"/>
</radialGradient>
<radialGradient id="paint62_radial_325_145" cx="0" cy="0" r="1" gradientUnits="userSpaceOnUse" gradientTransform="translate(124.639 157.026) rotate(-19.5358) scale(8.46312 4.38606)">
<stop stop-color="#B3B3B3"/>
<stop offset="0.32" stop-color="#CCCCCC"/>
<stop offset="1" stop-color="#E6E6E6"/>
</radialGradient>
<radialGradient id="paint63_radial_325_145" cx="0" cy="0" r="1" gradientUnits="userSpaceOnUse" gradientTransform="translate(132.762 181.222) rotate(121.508) scale(10.2395 4.38601)">
<stop stop-color="#B3B3B3"/>
<stop offset="0.32" stop-color="#CCCCCC"/>
<stop offset="1" stop-color="#E6E6E6"/>
</radialGradient>
<radialGradient id="paint64_radial_325_145" cx="0" cy="0" r="1" gradientUnits="userSpaceOnUse" gradientTransform="translate(168.171 142.848) rotate(168.841) scale(10.0296 4.49082)">
<stop stop-color="#B3B3B3"/>
<stop offset="0.32" stop-color="#CCCCCC"/>
<stop offset="1" stop-color="#E6E6E6"/>
</radialGradient>
<radialGradient id="paint65_radial_325_145" cx="0" cy="0" r="1" gradientUnits="userSpaceOnUse" gradientTransform="translate(120.907 167.011) rotate(168.841) scale(10.0296 4.49082)">
<stop stop-color="#B3B3B3"/>
<stop offset="0.32" stop-color="#CCCCCC"/>
<stop offset="1" stop-color="#E6E6E6"/>
</radialGradient>
<radialGradient id="paint66_radial_325_145" cx="0" cy="0" r="1" gradientUnits="userSpaceOnUse" gradientTransform="translate(134.026 159.105) rotate(168.841) scale(10.0296 4.49082)">
<stop stop-color="#B3B3B3"/>
<stop offset="0.32" stop-color="#CCCCCC"/>
<stop offset="1" stop-color="#E6E6E6"/>
</radialGradient>
<radialGradient id="paint67_radial_325_145" cx="0" cy="0" r="1" gradientUnits="userSpaceOnUse" gradientTransform="translate(155.015 149.815) rotate(-166.402) scale(9.50461 4.701)">
<stop stop-color="#B3B3B3"/>
<stop offset="0.32" stop-color="#CCCCCC"/>
<stop offset="1" stop-color="#E6E6E6"/>
</radialGradient>
<radialGradient id="paint68_radial_325_145" cx="0" cy="0" r="1" gradientUnits="userSpaceOnUse" gradientTransform="translate(124.412 186.522) rotate(121.508) scale(10.2395 4.38601)">
<stop stop-color="#B3B3B3"/>
<stop offset="0.32" stop-color="#CCCCCC"/>
<stop offset="1" stop-color="#E6E6E6"/>
</radialGradient>
<radialGradient id="paint69_radial_325_145" cx="0" cy="0" r="1" gradientUnits="userSpaceOnUse" gradientTransform="translate(129.152 165.866) rotate(121.508) scale(10.2395 4.38601)">
<stop stop-color="#B3B3B3"/>
<stop offset="0.32" stop-color="#CCCCCC"/>
<stop offset="1" stop-color="#E6E6E6"/>
</radialGradient>
<radialGradient id="paint70_radial_325_145" cx="0" cy="0" r="1" gradientUnits="userSpaceOnUse" gradientTransform="translate(183.636 152.237) rotate(151.239) scale(10.3444 4.28139)">
<stop stop-color="#B3B3B3"/>
<stop offset="0.32" stop-color="#CCCCCC"/>
<stop offset="1" stop-color="#E6E6E6"/>
</radialGradient>
<radialGradient id="paint71_radial_325_145" cx="0" cy="0" r="1" gradientUnits="userSpaceOnUse" gradientTransform="translate(162.965 153.527) rotate(151.239) scale(10.3444 4.28139)">
<stop stop-color="#B3B3B3"/>
<stop offset="0.32" stop-color="#CCCCCC"/>
<stop offset="1" stop-color="#E6E6E6"/>
</radialGradient>
<radialGradient id="paint72_radial_325_145" cx="0" cy="0" r="1" gradientUnits="userSpaceOnUse" gradientTransform="translate(175.609 153.185) rotate(151.239) scale(10.3444 4.28139)">
<stop stop-color="#B3B3B3"/>
<stop offset="0.32" stop-color="#CCCCCC"/>
<stop offset="1" stop-color="#E6E6E6"/>
</radialGradient>
<radialGradient id="paint73_radial_325_145" cx="0" cy="0" r="1" gradientUnits="userSpaceOnUse" gradientTransform="translate(172.731 140.711) rotate(-55.9732) scale(10.3441 4.38593)">
<stop stop-color="#B3B3B3"/>
<stop offset="0.32" stop-color="#CCCCCC"/>
<stop offset="1" stop-color="#E6E6E6"/>
</radialGradient>
<radialGradient id="paint74_radial_325_145" cx="0" cy="0" r="1" gradientUnits="userSpaceOnUse" gradientTransform="translate(167.853 161.209) rotate(177.368) scale(9.81979 4.59568)">
<stop stop-color="#B3B3B3"/>
<stop offset="0.32" stop-color="#CCCCCC"/>
<stop offset="1" stop-color="#E6E6E6"/>
</radialGradient>
<radialGradient id="paint75_radial_325_145" cx="0" cy="0" r="1" gradientUnits="userSpaceOnUse" gradientTransform="translate(145.416 195.43) rotate(-103.828) scale(9.29473 4.80599)">
<stop stop-color="#B3B3B3"/>
<stop offset="0.32" stop-color="#CCCCCC"/>
<stop offset="1" stop-color="#E6E6E6"/>
</radialGradient>
<radialGradient id="paint76_radial_325_145" cx="0" cy="0" r="1" gradientUnits="userSpaceOnUse" gradientTransform="translate(144.392 174.184) rotate(-19.5358) scale(10.2393 4.38606)">
<stop stop-color="#B3B3B3"/>
<stop offset="0.32" stop-color="#CCCCCC"/>
<stop offset="1" stop-color="#E6E6E6"/>
</radialGradient>
<radialGradient id="paint77_radial_325_145" cx="0" cy="0" r="1" gradientUnits="userSpaceOnUse" gradientTransform="translate(128.631 183.433) rotate(-103.828) scale(9.29472 4.80598)">
<stop stop-color="#B3B3B3"/>
<stop offset="0.32" stop-color="#CCCCCC"/>
<stop offset="1" stop-color="#E6E6E6"/>
</radialGradient>
<radialGradient id="paint78_radial_325_145" cx="0" cy="0" r="1" gradientUnits="userSpaceOnUse" gradientTransform="translate(127.449 176.516) rotate(-134.616) scale(9.08472 5.01556)">
<stop stop-color="#B3B3B3"/>
<stop offset="0.32" stop-color="#CCCCCC"/>
<stop offset="1" stop-color="#E6E6E6"/>
</radialGradient>
<radialGradient id="paint79_radial_325_145" cx="0" cy="0" r="1" gradientUnits="userSpaceOnUse" gradientTransform="translate(178.329 159.054) rotate(174.689) scale(9.92455 4.4911)">
<stop stop-color="#B3B3B3"/>
<stop offset="0.32" stop-color="#CCCCCC"/>
<stop offset="1" stop-color="#E6E6E6"/>
</radialGradient>
<radialGradient id="paint80_radial_325_145" cx="0" cy="0" r="1" gradientUnits="userSpaceOnUse" gradientTransform="translate(153.889 152.725) rotate(174.689) scale(0.177161 0.0801695)">
<stop stop-color="#B3B3B3"/>
<stop offset="0.32" stop-color="#CCCCCC"/>
<stop offset="1" stop-color="#E6E6E6"/>
</radialGradient>
<radialGradient id="paint81_radial_325_145" cx="0" cy="0" r="1" gradientUnits="userSpaceOnUse" gradientTransform="translate(153.269 202.639) rotate(143.984) scale(10.4491 4.2813)">
<stop stop-color="#B3B3B3"/>
<stop offset="0.32" stop-color="#CCCCCC"/>
<stop offset="1" stop-color="#E6E6E6"/>
</radialGradient>
<radialGradient id="paint82_radial_325_145" cx="0" cy="0" r="1" gradientUnits="userSpaceOnUse" gradientTransform="translate(124.738 164.764) rotate(143.984) scale(10.4491 4.2813)">
<stop stop-color="#B3B3B3"/>
<stop offset="0.32" stop-color="#CCCCCC"/>
<stop offset="1" stop-color="#E6E6E6"/>
</radialGradient>
<radialGradient id="paint83_radial_325_145" cx="0" cy="0" r="1" gradientUnits="userSpaceOnUse" gradientTransform="translate(146.401 203.239) rotate(83.8443) scale(9.39988 4.80562)">
<stop stop-color="#B3B3B3"/>
<stop offset="0.32" stop-color="#CCCCCC"/>
<stop offset="1" stop-color="#E6E6E6"/>
</radialGradient>
<radialGradient id="paint84_radial_325_145" cx="0" cy="0" r="1" gradientUnits="userSpaceOnUse" gradientTransform="translate(175.916 146.479) rotate(146.802) scale(10.449 4.28133)">
<stop stop-color="#B3B3B3"/>
<stop offset="0.32" stop-color="#CCCCCC"/>
<stop offset="1" stop-color="#E6E6E6"/>
</radialGradient>
<radialGradient id="paint85_radial_325_145" cx="0" cy="0" r="1" gradientUnits="userSpaceOnUse" gradientTransform="translate(161.134 203.376) rotate(102.845) scale(9.81978 4.59568)">
<stop stop-color="#B3B3B3"/>
<stop offset="0.32" stop-color="#CCCCCC"/>
<stop offset="1" stop-color="#E6E6E6"/>
</radialGradient>
<radialGradient id="paint86_radial_325_145" cx="0" cy="0" r="1" gradientUnits="userSpaceOnUse" gradientTransform="translate(140.773 175.345) rotate(102.845) scale(9.81979 4.59568)">
<stop stop-color="#B3B3B3"/>
<stop offset="0.32" stop-color="#CCCCCC"/>
<stop offset="1" stop-color="#E6E6E6"/>
</radialGradient>
<radialGradient id="paint87_radial_325_145" cx="0" cy="0" r="1" gradientUnits="userSpaceOnUse" gradientTransform="translate(165.476 177.287) rotate(148.241) scale(10.449 4.28134)">
<stop stop-color="#B3B3B3"/>
<stop offset="0.32" stop-color="#CCCCCC"/>
<stop offset="1" stop-color="#E6E6E6"/>
</radialGradient>
<radialGradient id="paint88_radial_325_145" cx="0" cy="0" r="1" gradientUnits="userSpaceOnUse" gradientTransform="translate(121.002 179.434) rotate(148.241) scale(10.449 4.28134)">
<stop stop-color="#B3B3B3"/>
<stop offset="0.32" stop-color="#CCCCCC"/>
<stop offset="1" stop-color="#E6E6E6"/>
</radialGradient>
<radialGradient id="paint89_radial_325_145" cx="0" cy="0" r="1" gradientUnits="userSpaceOnUse" gradientTransform="translate(160.211 171.971) rotate(143.984) scale(10.4491 4.2813)">
<stop stop-color="#B3B3B3"/>
<stop offset="0.32" stop-color="#CCCCCC"/>
<stop offset="1" stop-color="#E6E6E6"/>
</radialGradient>
<radialGradient id="paint90_radial_325_145" cx="0" cy="0" r="1" gradientUnits="userSpaceOnUse" gradientTransform="translate(176.769 158.817) rotate(121.508) scale(10.2395 4.38601)">
<stop stop-color="#B3B3B3"/>
<stop offset="0.32" stop-color="#CCCCCC"/>
<stop offset="1" stop-color="#E6E6E6"/>
</radialGradient>
<radialGradient id="paint91_radial_325_145" cx="0" cy="0" r="1" gradientUnits="userSpaceOnUse" gradientTransform="translate(139.506 179.435) rotate(121.508) scale(10.2395 4.38601)">
<stop stop-color="#B3B3B3"/>
<stop offset="0.32" stop-color="#CCCCCC"/>
<stop offset="1" stop-color="#E6E6E6"/>
</radialGradient>
<radialGradient id="paint92_radial_325_145" cx="0" cy="0" r="1" gradientUnits="userSpaceOnUse" gradientTransform="translate(144.125 194.376) rotate(-25.2427) scale(10.3442 4.38589)">
<stop stop-color="#B3B3B3"/>
<stop offset="0.32" stop-color="#CCCCCC"/>
<stop offset="1" stop-color="#E6E6E6"/>
</radialGradient>
<radialGradient id="paint93_radial_325_145" cx="0" cy="0" r="1" gradientUnits="userSpaceOnUse" gradientTransform="translate(159.704 147.966) rotate(148.241) scale(10.449 4.28134)">
<stop stop-color="#B3B3B3"/>
<stop offset="0.32" stop-color="#CCCCCC"/>
<stop offset="1" stop-color="#E6E6E6"/>
</radialGradient>
<radialGradient id="paint94_radial_325_145" cx="0" cy="0" r="1" gradientUnits="userSpaceOnUse" gradientTransform="translate(170.941 166.93) rotate(-23.8135) scale(10.3441 4.38593)">
<stop stop-color="#B3B3B3"/>
<stop offset="0.32" stop-color="#CCCCCC"/>
<stop offset="1" stop-color="#E6E6E6"/>
</radialGradient>
<radialGradient id="paint95_radial_325_145" cx="0" cy="0" r="1" gradientUnits="userSpaceOnUse" gradientTransform="translate(122.646 186.292) rotate(-21.2949) scale(10.2395 4.38601)">
<stop stop-color="#B3B3B3"/>
<stop offset="0.32" stop-color="#CCCCCC"/>
<stop offset="1" stop-color="#E6E6E6"/>
</radialGradient>
<radialGradient id="paint96_radial_325_145" cx="0" cy="0" r="1" gradientUnits="userSpaceOnUse" gradientTransform="translate(158.537 184.792) rotate(150.74) scale(0.184656 0.076426)">
<stop stop-color="#B3B3B3"/>
<stop offset="0.32" stop-color="#CCCCCC"/>
<stop offset="1" stop-color="#E6E6E6"/>
</radialGradient>
<radialGradient id="paint97_radial_325_145" cx="0" cy="0" r="1" gradientUnits="userSpaceOnUse" gradientTransform="translate(121.133 171.043) rotate(160.464) scale(10.2393 4.38606)">
<stop stop-color="#B3B3B3"/>
<stop offset="0.32" stop-color="#CCCCCC"/>
<stop offset="1" stop-color="#E6E6E6"/>
</radialGradient>
<radialGradient id="paint98_radial_325_145" cx="0" cy="0" r="1" gradientUnits="userSpaceOnUse" gradientTransform="translate(136.71 207.367) rotate(111.163) scale(10.0296 4.49083)">
<stop stop-color="#B3B3B3"/>
<stop offset="0.32" stop-color="#CCCCCC"/>
<stop offset="1" stop-color="#E6E6E6"/>
</radialGradient>
<radialGradient id="paint99_radial_325_145" cx="0" cy="0" r="1" gradientUnits="userSpaceOnUse" gradientTransform="translate(140.565 168.907) rotate(160.464) scale(10.2393 4.38606)">
<stop stop-color="#B3B3B3"/>
<stop offset="0.32" stop-color="#CCCCCC"/>
<stop offset="1" stop-color="#E6E6E6"/>
</radialGradient>
<radialGradient id="paint100_radial_325_145" cx="0" cy="0" r="1" gradientUnits="userSpaceOnUse" gradientTransform="translate(172.789 179.257) rotate(126.425) scale(10.3443 4.38587)">
<stop stop-color="#B3B3B3"/>
<stop offset="0.32" stop-color="#CCCCCC"/>
<stop offset="1" stop-color="#E6E6E6"/>
</radialGradient>
<radialGradient id="paint101_radial_325_145" cx="0" cy="0" r="1" gradientUnits="userSpaceOnUse" gradientTransform="translate(150.3 203.939) rotate(121.508) scale(10.2395 4.386)">
<stop stop-color="#B3B3B3"/>
<stop offset="0.32" stop-color="#CCCCCC"/>
<stop offset="1" stop-color="#E6E6E6"/>
</radialGradient>
</defs>
</svg>
