<svg width="533" height="92" viewBox="0 0 533 92" fill="none" xmlns="http://www.w3.org/2000/svg">
<path d="M477.62 68.24L483.22 73.16L496.014 57" stroke="#999999" stroke-width="2" stroke-miterlimit="10"/>
<path d="M487.215 68.24L492.815 73.16L505.62 57" stroke="#999999" stroke-width="2" stroke-miterlimit="10"/>
<path d="M35.05 37.3899H34.83C33.02 63.6199 18.68 84.9099 0 90.1499C4.29 90.9599 8.73001 91.3899 13.29 91.3899C28.65 91.3899 42.76 86.5199 53.9 78.3999C42.56 68.1599 35.35 53.5699 35.05 37.3799V37.3899Z" fill="#252525"/>
<path d="M486.93 0H80.0504C54.8165 0 34.3604 20.4561 34.3604 45.69V45.7C34.3604 70.9339 54.8165 91.39 80.0504 91.39H486.93C512.164 91.39 532.62 70.9339 532.62 45.7V45.69C532.62 20.4561 512.164 0 486.93 0Z" fill="#252525"/>
<path d="M412.092 73.8276C410.813 73.8276 409.723 73.4795 408.823 72.7832C407.923 72.0813 407.235 71.0653 406.76 69.735C406.284 68.3992 406.047 66.7859 406.047 64.8953C406.047 63.016 406.284 61.4113 406.76 60.081C407.241 58.7452 407.932 57.7263 408.832 57.0244C409.737 56.3168 410.824 55.963 412.092 55.963C413.36 55.963 414.444 56.3168 415.344 57.0244C416.25 57.7263 416.94 58.7452 417.416 60.081C417.897 61.4113 418.137 63.016 418.137 64.8953C418.137 66.7859 417.9 68.3992 417.424 69.735C416.949 71.0653 416.261 72.0813 415.361 72.7832C414.461 73.4795 413.371 73.8276 412.092 73.8276ZM412.092 71.9596C413.36 71.9596 414.345 71.3483 415.047 70.1256C415.749 68.9029 416.1 67.1595 416.1 64.8953C416.1 63.3896 415.938 62.1075 415.616 61.049C415.299 59.9905 414.84 59.1838 414.24 58.6291C413.646 58.0744 412.93 57.797 412.092 57.797C410.835 57.797 409.853 58.4168 409.146 59.6565C408.438 60.8905 408.084 62.6368 408.084 64.8953C408.084 66.401 408.243 67.6803 408.56 68.7331C408.877 69.786 409.332 70.5869 409.927 71.136C410.527 71.6851 411.249 71.9596 412.092 71.9596ZM426.9 55.963C427.613 55.9687 428.326 56.1045 429.04 56.3706C429.753 56.6366 430.404 57.0781 430.992 57.6951C431.581 58.3065 432.054 59.1414 432.41 60.1999C432.767 61.2584 432.945 62.5858 432.945 64.1821C432.945 65.7274 432.798 67.1001 432.504 68.3001C432.215 69.4945 431.796 70.502 431.247 71.3228C430.704 72.1436 430.041 72.7662 429.26 73.1908C428.485 73.6153 427.607 73.8276 426.628 73.8276C425.655 73.8276 424.786 73.6351 424.022 73.2502C423.263 72.8596 422.64 72.3191 422.154 71.6285C421.672 70.9322 421.364 70.1256 421.228 69.2086H423.3C423.487 70.0067 423.857 70.6662 424.412 71.187C424.972 71.7021 425.711 71.9596 426.628 71.9596C427.97 71.9596 429.028 71.3738 429.804 70.202C430.585 69.0303 430.975 67.3746 430.975 65.2349H430.84C430.523 65.7104 430.146 66.1208 429.71 66.4661C429.274 66.8114 428.791 67.0774 428.258 67.2642C427.726 67.451 427.16 67.5444 426.56 67.5444C425.564 67.5444 424.65 67.2982 423.818 66.8057C422.991 66.3076 422.329 65.6255 421.831 64.7594C421.338 63.8877 421.092 62.8915 421.092 61.7707C421.092 60.7065 421.33 59.7329 421.805 58.8499C422.287 57.9612 422.96 57.2536 423.826 56.7272C424.698 56.2008 425.723 55.946 426.9 55.963ZM426.9 57.831C426.187 57.831 425.544 58.0093 424.972 58.3659C424.406 58.7168 423.956 59.1923 423.622 59.7923C423.294 60.3867 423.13 61.0462 423.13 61.7707C423.13 62.4952 423.288 63.1547 423.605 63.749C423.928 64.3377 424.367 64.8076 424.922 65.1585C425.482 65.5038 426.119 65.6764 426.832 65.6764C427.37 65.6764 427.871 65.5717 428.335 65.3623C428.799 65.1472 429.204 64.8557 429.549 64.4877C429.9 64.1141 430.174 63.6924 430.373 63.2226C430.571 62.7471 430.67 62.2518 430.67 61.7367C430.67 61.0575 430.506 60.4207 430.177 59.8263C429.855 59.232 429.407 58.7508 428.836 58.3829C428.27 58.0149 427.624 57.831 426.9 57.831ZM437.779 71.3653C437.36 71.3653 437 71.2153 436.7 70.9153C436.4 70.6152 436.25 70.2558 436.25 69.8369C436.25 69.418 436.4 69.0586 436.7 68.7586C437 68.4586 437.36 68.3086 437.779 68.3086C438.198 68.3086 438.557 68.4586 438.857 68.7586C439.157 69.0586 439.307 69.418 439.307 69.8369C439.307 70.1143 439.236 70.369 439.095 70.6011C438.959 70.8332 438.775 71.02 438.543 71.1615C438.316 71.2973 438.062 71.3653 437.779 71.3653ZM437.779 62.5688C437.36 62.5688 437 62.4188 436.7 62.1188C436.4 61.8188 436.25 61.4594 436.25 61.0405C436.25 60.6216 436.4 60.2622 436.7 59.9622C437 59.6622 437.36 59.5122 437.779 59.5122C438.198 59.5122 438.557 59.6622 438.857 59.9622C439.157 60.2622 439.307 60.6216 439.307 61.0405C439.307 61.3179 439.236 61.5726 439.095 61.8047C438.959 62.0367 438.775 62.2235 438.543 62.365C438.316 62.5009 438.062 62.5688 437.779 62.5688ZM442.869 73.5898V72.0615L448.609 65.7783C449.282 65.0425 449.837 64.4028 450.273 63.8594C450.709 63.3104 451.031 62.7952 451.241 62.3141C451.456 61.8273 451.563 61.3179 451.563 60.7858C451.563 60.1744 451.416 59.6452 451.122 59.198C450.833 58.7508 450.437 58.4055 449.933 58.1621C449.429 57.9187 448.863 57.797 448.235 57.797C447.567 57.797 446.984 57.9357 446.486 58.2131C445.994 58.4848 445.611 58.8669 445.34 59.3593C445.074 59.8518 444.941 60.4292 444.941 61.0914H442.937C442.937 60.0725 443.172 59.1782 443.642 58.4084C444.111 57.6385 444.751 57.0385 445.56 56.6083C446.376 56.1781 447.29 55.963 448.303 55.963C449.322 55.963 450.225 56.1781 451.012 56.6083C451.798 57.0385 452.415 57.6187 452.863 58.3489C453.31 59.0791 453.533 59.8914 453.533 60.7858C453.533 61.4254 453.417 62.0509 453.185 62.6622C452.959 63.2679 452.563 63.9443 451.996 64.6915C451.436 65.433 450.658 66.3387 449.662 67.4086L445.756 71.586V71.7219H453.839V73.5898H442.869ZM456.565 70.0237V68.2916L464.206 56.2008H465.463V58.8838H464.614L458.84 68.0199V68.1558H469.131V70.0237H456.565ZM464.75 73.5898V69.4973V68.6907V56.2008H466.753V73.5898H464.75Z" fill="#999999"/>
<path d="M82.7699 40.2002V22.4475H93.4146V24.3545H84.9196V30.353H92.6171V32.26H84.9196V40.2002H82.7699ZM104.376 34.7565V26.8856H106.421V40.2002H104.376V37.9464H104.237C103.925 38.6226 103.439 39.1976 102.781 39.6714C102.122 40.1395 101.29 40.3736 100.284 40.3736C99.4521 40.3736 98.7124 40.1915 98.0651 39.8275C97.4179 39.4576 96.9093 38.9028 96.5395 38.1631C96.1696 37.4177 95.9847 36.4786 95.9847 35.3459V26.8856H98.0304V35.2072C98.0304 36.1781 98.3021 36.9525 98.8453 37.5304C99.3943 38.1082 100.094 38.3972 100.943 38.3972C101.452 38.3972 101.969 38.2672 102.495 38.0071C103.026 37.7471 103.471 37.3483 103.83 36.8109C104.194 36.2734 104.376 35.5886 104.376 34.7565ZM112.214 22.4475V40.2002H110.168V22.4475H112.214ZM118.007 22.4475V40.2002H115.961V22.4475H118.007ZM138.605 26.8856C138.501 26.0073 138.079 25.3254 137.339 24.8399C136.599 24.3545 135.692 24.1118 134.617 24.1118C133.831 24.1118 133.144 24.2389 132.554 24.4932C131.971 24.7475 131.514 25.0971 131.185 25.5421C130.861 25.987 130.699 26.4927 130.699 27.059C130.699 27.5329 130.812 27.9403 131.037 28.2813C131.268 28.6164 131.563 28.8967 131.921 29.1221C132.28 29.3417 132.655 29.5237 133.048 29.6682C133.441 29.8069 133.802 29.9196 134.132 30.0062L135.935 30.4917C136.397 30.613 136.911 30.7806 137.478 30.9944C138.05 31.2083 138.596 31.5001 139.116 31.8699C139.642 32.234 140.075 32.7021 140.416 33.2742C140.757 33.8463 140.928 34.5484 140.928 35.3806C140.928 36.3399 140.676 37.2067 140.174 37.9811C139.677 38.7555 138.949 39.3709 137.989 39.8275C137.036 40.284 135.877 40.5123 134.513 40.5123C133.242 40.5123 132.141 40.3071 131.211 39.8968C130.286 39.4865 129.558 38.9144 129.026 38.1805C128.5 37.4466 128.203 36.5942 128.133 35.6233H130.352C130.41 36.2937 130.636 36.8484 131.029 37.2876C131.427 37.7211 131.93 38.0447 132.537 38.2585C133.149 38.4665 133.808 38.5706 134.513 38.5706C135.334 38.5706 136.071 38.4376 136.724 38.1718C137.377 37.9002 137.894 37.5246 138.275 37.0449C138.657 36.5595 138.847 35.9932 138.847 35.3459C138.847 34.7565 138.683 34.2768 138.353 33.907C138.024 33.5371 137.591 33.2366 137.053 33.0055C136.516 32.7743 135.935 32.5721 135.311 32.3987L133.126 31.7746C131.739 31.3758 130.641 30.8066 129.832 30.0669C129.023 29.3272 128.619 28.3593 128.619 27.163C128.619 26.1691 128.888 25.3022 129.425 24.5625C129.968 23.8171 130.696 23.2392 131.609 22.8289C132.528 22.4128 133.554 22.2048 134.687 22.2048C135.831 22.2048 136.848 22.4099 137.738 22.8202C138.628 23.2247 139.333 23.7795 139.853 24.4845C140.379 25.1895 140.656 25.9899 140.685 26.8856H138.605ZM149.767 40.4776C148.484 40.4776 147.378 40.1944 146.447 39.6281C145.523 39.056 144.809 38.2585 144.306 37.2356C143.809 36.207 143.561 35.0108 143.561 33.6469C143.561 32.2831 143.809 31.0811 144.306 30.0409C144.809 28.9949 145.508 28.1801 146.404 27.5965C147.306 27.007 148.357 26.7123 149.559 26.7123C150.253 26.7123 150.938 26.8279 151.614 27.059C152.29 27.2902 152.905 27.6658 153.46 28.1859C154.015 28.7002 154.457 29.3821 154.786 30.2316C155.116 31.0811 155.28 32.1271 155.28 33.3696V34.2364H145.017V32.4681H153.2C153.2 31.7168 153.05 31.0464 152.749 30.457C152.455 29.8676 152.033 29.4024 151.484 29.0614C150.94 28.7204 150.299 28.55 149.559 28.55C148.744 28.55 148.039 28.7522 147.444 29.1568C146.855 29.5555 146.401 30.0756 146.083 30.717C145.765 31.3585 145.607 32.0462 145.607 32.7801V33.959C145.607 34.9645 145.78 35.8169 146.127 36.5162C146.479 37.2096 146.967 37.7384 147.592 38.1025C148.216 38.4608 148.941 38.6399 149.767 38.6399C150.305 38.6399 150.79 38.5648 151.224 38.4145C151.663 38.2585 152.041 38.0273 152.359 37.7211C152.677 37.409 152.923 37.0218 153.096 36.5595L155.072 37.1143C154.864 37.7846 154.515 38.3741 154.023 38.8826C153.532 39.3854 152.925 39.7783 152.203 40.0615C151.481 40.3389 150.669 40.4776 149.767 40.4776ZM158.392 40.2002V26.8856H160.369V28.8967H160.507C160.75 28.2379 161.189 27.7034 161.825 27.2931C162.461 26.8828 163.177 26.6776 163.975 26.6776C164.125 26.6776 164.313 26.6805 164.538 26.6863C164.764 26.6921 164.934 26.7007 165.05 26.7123V28.7927C164.98 28.7753 164.821 28.7493 164.573 28.7147C164.33 28.6742 164.073 28.654 163.801 28.654C163.154 28.654 162.576 28.7898 162.068 29.0614C161.565 29.3272 161.166 29.6971 160.871 30.1709C160.583 30.639 160.438 31.1736 160.438 31.7746V40.2002H158.392ZM178.767 26.8856L173.844 40.2002H171.763L166.84 26.8856H169.059L172.734 37.4957H172.873L176.548 26.8856H178.767ZM181.467 40.2002V26.8856H183.513V40.2002H181.467ZM182.508 24.6666C182.109 24.6666 181.765 24.5308 181.476 24.2591C181.193 23.9875 181.051 23.661 181.051 23.2796C181.051 22.8982 181.193 22.5717 181.476 22.3001C181.765 22.0285 182.109 21.8927 182.508 21.8927C182.906 21.8927 183.247 22.0285 183.53 22.3001C183.819 22.5717 183.964 22.8982 183.964 23.2796C183.964 23.661 183.819 23.9875 183.53 24.2591C183.247 24.5308 182.906 24.6666 182.508 24.6666ZM192.669 40.4776C191.421 40.4776 190.346 40.1829 189.444 39.5934C188.543 39.004 187.849 38.192 187.364 37.1576C186.879 36.1232 186.636 34.9414 186.636 33.6123C186.636 32.26 186.884 31.0667 187.381 30.0323C187.884 28.9921 188.583 28.1801 189.479 27.5965C190.381 27.007 191.432 26.7123 192.634 26.7123C193.571 26.7123 194.414 26.8857 195.166 27.2324C195.917 27.5791 196.532 28.0645 197.012 28.6887C197.492 29.3128 197.789 30.0409 197.905 30.8731H195.859C195.703 30.2663 195.356 29.7289 194.819 29.2608C194.287 28.7869 193.571 28.55 192.669 28.55C191.872 28.55 191.172 28.758 190.571 29.1741C189.976 29.5844 189.511 30.1652 189.176 30.9164C188.846 31.6619 188.682 32.5374 188.682 33.5429C188.682 34.5716 188.843 35.4673 189.167 36.2301C189.496 36.9929 189.959 37.5853 190.554 38.0071C191.155 38.429 191.86 38.6399 192.669 38.6399C193.201 38.6399 193.683 38.5474 194.117 38.3625C194.55 38.1776 194.917 37.9118 195.218 37.565C195.518 37.2183 195.732 36.8022 195.859 36.3168H197.905C197.789 37.1027 197.503 37.8106 197.047 38.4405C196.596 39.0646 195.998 39.5616 195.252 39.9315C194.513 40.2955 193.651 40.4776 192.669 40.4776ZM206.478 40.4776C205.195 40.4776 204.088 40.1944 203.158 39.6281C202.233 39.056 201.519 38.2585 201.017 37.2356C200.52 36.207 200.271 35.0108 200.271 33.6469C200.271 32.2831 200.52 31.0811 201.017 30.0409C201.519 28.9949 202.219 28.1801 203.114 27.5965C204.016 27.007 205.068 26.7123 206.27 26.7123C206.963 26.7123 207.648 26.8279 208.324 27.059C209 27.2902 209.616 27.6658 210.17 28.1859C210.725 28.7002 211.167 29.3821 211.497 30.2316C211.826 31.0811 211.991 32.1271 211.991 33.3696V34.2364H201.727V32.4681H209.91C209.91 31.7168 209.76 31.0464 209.46 30.457C209.165 29.8676 208.743 29.4024 208.194 29.0614C207.651 28.7204 207.009 28.55 206.27 28.55C205.455 28.55 204.75 28.7522 204.155 29.1568C203.565 29.5555 203.111 30.0756 202.794 30.717C202.476 31.3585 202.317 32.0462 202.317 32.7801V33.959C202.317 34.9645 202.49 35.8169 202.837 36.5162C203.189 37.2096 203.678 37.7384 204.302 38.1025C204.926 38.4608 205.651 38.6399 206.478 38.6399C207.015 38.6399 207.501 38.5648 207.934 38.4145C208.373 38.2585 208.752 38.0273 209.07 37.7211C209.387 37.409 209.633 37.0218 209.806 36.5595L211.783 37.1143C211.575 37.7846 211.225 38.3741 210.734 38.8826C210.243 39.3854 209.636 39.7783 208.913 40.0615C208.191 40.3389 207.379 40.4776 206.478 40.4776ZM227.377 40.4776C226.175 40.4776 225.12 40.1915 224.213 39.6194C223.312 39.0473 222.607 38.2469 222.098 37.2183C221.595 36.1897 221.344 34.9876 221.344 33.6123C221.344 32.2253 221.595 31.0147 222.098 29.9802C222.607 28.9458 223.312 28.1426 224.213 27.5704C225.12 26.9983 226.175 26.7123 227.377 26.7123C228.579 26.7123 229.631 26.9983 230.532 27.5704C231.44 28.1426 232.145 28.9458 232.647 29.9802C233.156 31.0147 233.41 32.2253 233.41 33.6123C233.41 34.9876 233.156 36.1897 232.647 37.2183C232.145 38.2469 231.44 39.0473 230.532 39.6194C229.631 40.1915 228.579 40.4776 227.377 40.4776ZM227.377 38.6399C228.29 38.6399 229.041 38.4059 229.631 37.9378C230.22 37.4697 230.657 36.8542 230.94 36.0914C231.223 35.3286 231.364 34.5022 231.364 33.6123C231.364 32.7223 231.223 31.8931 230.94 31.1245C230.657 30.3559 230.22 29.7346 229.631 29.2608C229.041 28.7869 228.29 28.55 227.377 28.55C226.464 28.55 225.713 28.7869 225.123 29.2608C224.534 29.7346 224.097 30.3559 223.814 31.1245C223.531 31.8931 223.39 32.7223 223.39 33.6123C223.39 34.5022 223.531 35.3286 223.814 36.0914C224.097 36.8542 224.534 37.4697 225.123 37.9378C225.713 38.4059 226.464 38.6399 227.377 38.6399ZM236.533 40.2002V26.8856H238.509V28.8967H238.648C238.891 28.2379 239.33 27.7034 239.966 27.2931C240.601 26.8828 241.318 26.6776 242.115 26.6776C242.266 26.6776 242.453 26.6805 242.679 26.6863C242.904 26.6921 243.075 26.7007 243.19 26.7123V28.7927C243.121 28.7753 242.962 28.7493 242.713 28.7147C242.471 28.6742 242.214 28.654 241.942 28.654C241.295 28.654 240.717 28.7898 240.208 29.0614C239.706 29.3272 239.307 29.6971 239.012 30.1709C238.723 30.639 238.579 31.1736 238.579 31.7746V40.2002H236.533ZM253.486 40.2002H251.232L257.751 22.4475H259.97L266.488 40.2002H264.235L258.93 25.256H258.791L253.486 40.2002ZM254.318 33.2655H263.403V35.1726H254.318V33.2655ZM276.119 40.2002V22.4475H278.269V38.2932H286.521V40.2002H276.119ZM293.49 40.5123C292.647 40.5123 291.881 40.3533 291.193 40.0355C290.506 39.7119 289.959 39.2467 289.555 38.6399C289.15 38.0273 288.948 37.2876 288.948 36.4208C288.948 35.658 289.098 35.0397 289.399 34.5658C289.699 34.0861 290.101 33.7105 290.604 33.4389C291.107 33.1673 291.661 32.965 292.268 32.8321C292.881 32.6934 293.496 32.5836 294.114 32.5027C294.923 32.3987 295.579 32.3207 296.082 32.2687C296.591 32.2109 296.961 32.1155 297.192 31.9826C297.429 31.8497 297.547 31.6186 297.547 31.2892V31.2198C297.547 30.3645 297.313 29.7 296.845 29.2261C296.383 28.7522 295.681 28.5153 294.739 28.5153C293.762 28.5153 292.996 28.7291 292.441 29.1568C291.887 29.5844 291.497 30.0409 291.271 30.5263L289.33 29.8329C289.676 29.0238 290.139 28.3939 290.716 27.9432C291.3 27.4867 291.936 27.1688 292.623 26.9897C293.317 26.8047 293.999 26.7123 294.669 26.7123C295.097 26.7123 295.588 26.7643 296.143 26.8683C296.703 26.9666 297.244 27.1717 297.764 27.4838C298.29 27.7958 298.726 28.2668 299.073 28.8967C299.419 29.5266 299.593 30.3703 299.593 31.4279V40.2002H297.547V38.3972H297.443C297.304 38.6861 297.073 38.9953 296.75 39.3247C296.426 39.6541 295.995 39.9344 295.458 40.1655C294.921 40.3967 294.265 40.5123 293.49 40.5123ZM293.802 38.6746C294.611 38.6746 295.293 38.5157 295.848 38.1978C296.409 37.88 296.831 37.4697 297.114 36.9669C297.403 36.4641 297.547 35.9354 297.547 35.3806V33.5082C297.46 33.6123 297.27 33.7076 296.975 33.7943C296.686 33.8752 296.351 33.9474 295.969 34.011C295.594 34.0688 295.227 34.1208 294.869 34.167C294.516 34.2075 294.23 34.2422 294.01 34.2711C293.479 34.3404 292.982 34.4531 292.519 34.6091C292.063 34.7594 291.693 34.9876 291.41 35.2939C291.133 35.5944 290.994 36.0047 290.994 36.5248C290.994 37.2356 291.257 37.7731 291.783 38.1371C292.314 38.4954 292.988 38.6746 293.802 38.6746ZM324.755 27.9952H322.605C322.478 27.3769 322.255 26.8336 321.938 26.3656C321.626 25.8975 321.244 25.5045 320.793 25.1867C320.348 24.863 319.854 24.6203 319.311 24.4585C318.768 24.2967 318.202 24.2158 317.612 24.2158C316.537 24.2158 315.563 24.4874 314.691 25.0306C313.824 25.5738 313.133 26.3742 312.619 27.4318C312.111 28.4893 311.856 29.7866 311.856 31.3238C311.856 32.861 312.111 34.1584 312.619 35.2159C313.133 36.2734 313.824 37.0738 314.691 37.617C315.563 38.1602 316.537 38.4319 317.612 38.4319C318.202 38.4319 318.768 38.351 319.311 38.1891C319.854 38.0273 320.348 37.7875 320.793 37.4697C321.244 37.1461 321.626 36.7502 321.938 36.2821C322.255 35.8082 322.478 35.265 322.605 34.6525H324.755C324.593 35.5598 324.298 36.3717 323.871 37.0883C323.443 37.8048 322.911 38.4145 322.276 38.9173C321.64 39.4143 320.926 39.7928 320.135 40.0528C319.349 40.3129 318.508 40.4429 317.612 40.4429C316.098 40.4429 314.752 40.0731 313.573 39.3334C312.394 38.5937 311.466 37.5419 310.79 36.1781C310.114 34.8143 309.776 33.1962 309.776 31.3238C309.776 29.4515 310.114 27.8334 310.79 26.4696C311.466 25.1058 312.394 24.054 313.573 23.3143C314.752 22.5746 316.098 22.2048 317.612 22.2048C318.508 22.2048 319.349 22.3348 320.135 22.5948C320.926 22.8549 321.64 23.2363 322.276 23.739C322.911 24.236 323.443 24.8428 323.871 25.5594C324.298 26.2702 324.593 27.0821 324.755 27.9952ZM331.869 40.5123C331.026 40.5123 330.26 40.3533 329.572 40.0355C328.885 39.7119 328.338 39.2467 327.934 38.6399C327.529 38.0273 327.327 37.2876 327.327 36.4208C327.327 35.658 327.477 35.0397 327.778 34.5658C328.078 34.0861 328.48 33.7105 328.983 33.4389C329.486 33.1673 330.04 32.965 330.647 32.8321C331.26 32.6934 331.875 32.5836 332.493 32.5027C333.302 32.3987 333.958 32.3207 334.461 32.2687C334.97 32.2109 335.34 32.1155 335.571 31.9826C335.808 31.8497 335.926 31.6186 335.926 31.2892V31.2198C335.926 30.3645 335.692 29.7 335.224 29.2261C334.762 28.7522 334.06 28.5153 333.118 28.5153C332.141 28.5153 331.375 28.7291 330.82 29.1568C330.266 29.5844 329.876 30.0409 329.65 30.5263L327.709 29.8329C328.055 29.0238 328.518 28.3939 329.095 27.9432C329.679 27.4867 330.315 27.1688 331.002 26.9897C331.696 26.8047 332.378 26.7123 333.048 26.7123C333.476 26.7123 333.967 26.7643 334.522 26.8683C335.082 26.9666 335.623 27.1717 336.143 27.4838C336.669 27.7958 337.105 28.2668 337.452 28.8967C337.798 29.5266 337.972 30.3703 337.972 31.4279V40.2002H335.926V38.3972H335.822C335.683 38.6861 335.452 38.9953 335.129 39.3247C334.805 39.6541 334.374 39.9344 333.837 40.1655C333.3 40.3967 332.644 40.5123 331.869 40.5123ZM332.181 38.6746C332.99 38.6746 333.672 38.5157 334.227 38.1978C334.788 37.88 335.21 37.4697 335.493 36.9669C335.782 36.4641 335.926 35.9354 335.926 35.3806V33.5082C335.839 33.6123 335.649 33.7076 335.354 33.7943C335.065 33.8752 334.73 33.9474 334.348 34.011C333.973 34.0688 333.606 34.1208 333.248 34.167C332.895 34.2075 332.609 34.2422 332.389 34.2711C331.858 34.3404 331.361 34.4531 330.898 34.6091C330.442 34.7594 330.072 34.9876 329.789 35.2939C329.512 35.5944 329.373 36.0047 329.373 36.5248C329.373 37.2356 329.636 37.7731 330.162 38.1371C330.693 38.4954 331.367 38.6746 332.181 38.6746ZM341.706 40.2002V26.8856H343.682V28.8967H343.821C344.063 28.2379 344.503 27.7034 345.138 27.2931C345.774 26.8828 346.491 26.6776 347.288 26.6776C347.438 26.6776 347.626 26.6805 347.852 26.6863C348.077 26.6921 348.247 26.7007 348.363 26.7123V28.7927C348.294 28.7753 348.135 28.7493 347.886 28.7147C347.644 28.6742 347.386 28.654 347.115 28.654C346.468 28.654 345.89 28.7898 345.381 29.0614C344.878 29.3272 344.48 29.6971 344.185 30.1709C343.896 30.639 343.751 31.1736 343.751 31.7746V40.2002H341.706ZM357.413 26.8856V28.6193H350.513V26.8856H357.413ZM352.524 23.6957H354.569V36.3861C354.569 36.964 354.653 37.3974 354.821 37.6864C354.994 37.9695 355.214 38.1602 355.48 38.2585C355.751 38.351 356.037 38.3972 356.338 38.3972C356.563 38.3972 356.748 38.3856 356.893 38.3625C357.037 38.3336 357.153 38.3105 357.239 38.2932L357.655 40.1308C357.517 40.1829 357.323 40.2349 357.075 40.2869C356.826 40.3447 356.511 40.3736 356.13 40.3736C355.552 40.3736 354.986 40.2493 354.431 40.0008C353.882 39.7523 353.425 39.3738 353.061 38.8653C352.703 38.3567 352.524 37.7153 352.524 36.9409V23.6957ZM365.929 40.4776C364.646 40.4776 363.54 40.1944 362.609 39.6281C361.685 39.056 360.971 38.2585 360.468 37.2356C359.971 36.207 359.723 35.0108 359.723 33.6469C359.723 32.2831 359.971 31.0811 360.468 30.0409C360.971 28.9949 361.67 28.1801 362.566 27.5965C363.468 27.007 364.519 26.7123 365.721 26.7123C366.415 26.7123 367.1 26.8279 367.776 27.059C368.452 27.2902 369.067 27.6658 369.622 28.1859C370.177 28.7002 370.619 29.3821 370.948 30.2316C371.278 31.0811 371.442 32.1271 371.442 33.3696V34.2364H361.179V32.4681H369.362C369.362 31.7168 369.212 31.0464 368.911 30.457C368.617 29.8676 368.195 29.4024 367.646 29.0614C367.102 28.7204 366.461 28.55 365.721 28.55C364.906 28.55 364.201 28.7522 363.606 29.1568C363.017 29.5555 362.563 30.0756 362.245 30.717C361.927 31.3585 361.769 32.0462 361.769 32.7801V33.959C361.769 34.9645 361.942 35.8169 362.289 36.5162C362.641 37.2096 363.129 37.7384 363.754 38.1025C364.378 38.4608 365.103 38.6399 365.929 38.6399C366.467 38.6399 366.952 38.5648 367.386 38.4145C367.825 38.2585 368.203 38.0273 368.521 37.7211C368.839 37.409 369.085 37.0218 369.258 36.5595L371.234 37.1143C371.026 37.7846 370.677 38.3741 370.185 38.8826C369.694 39.3854 369.087 39.7783 368.365 40.0615C367.643 40.3389 366.831 40.4776 365.929 40.4776ZM377.952 32.4334L378.091 28.6193L374.866 30.665L374.034 29.2088L377.432 27.4404L374.034 25.6721L374.866 24.2158L378.091 26.2615L377.952 22.4475H379.617L379.478 26.2615L382.703 24.2158L383.535 25.6721L380.137 27.4404L383.535 29.2088L382.703 30.665L379.478 28.6193L379.617 32.4334H377.952ZM389.429 35.2072V35.1032C389.441 33.9995 389.556 33.1211 389.776 32.4681C389.995 31.815 390.308 31.2863 390.712 30.8817C391.117 30.4772 391.602 30.1045 392.168 29.7635C392.509 29.5555 392.816 29.3099 393.087 29.0267C393.359 28.7378 393.573 28.4055 393.729 28.0299C393.89 27.6542 393.971 27.2382 393.971 26.7816C393.971 26.2153 393.838 25.7241 393.573 25.308C393.307 24.8919 392.951 24.5712 392.506 24.3458C392.061 24.1205 391.567 24.0078 391.024 24.0078C390.55 24.0078 390.094 24.106 389.655 24.3025C389.215 24.499 388.848 24.8081 388.554 25.23C388.259 25.6519 388.088 26.2037 388.042 26.8856H385.858C385.904 25.9032 386.158 25.0624 386.621 24.3632C387.089 23.6639 387.704 23.1294 388.467 22.7595C389.236 22.3897 390.088 22.2048 391.024 22.2048C392.041 22.2048 392.925 22.407 393.677 22.8115C394.434 23.2161 395.017 23.7708 395.428 24.4759C395.844 25.1809 396.052 25.9841 396.052 26.8856C396.052 27.5213 395.954 28.0963 395.757 28.6106C395.566 29.125 395.289 29.5844 394.925 29.9889C394.567 30.3934 394.133 30.7517 393.625 31.0638C393.116 31.3816 392.709 31.7168 392.402 32.0693C392.096 32.416 391.874 32.8292 391.735 33.3089C391.596 33.7885 391.521 34.3866 391.51 35.1032V35.2072H389.429ZM390.539 40.3389C390.111 40.3389 389.744 40.1857 389.438 39.8795C389.132 39.5732 388.978 39.2062 388.978 38.7786C388.978 38.351 389.132 37.984 389.438 37.6777C389.744 37.3714 390.111 37.2183 390.539 37.2183C390.966 37.2183 391.333 37.3714 391.64 37.6777C391.946 37.984 392.099 38.351 392.099 38.7786C392.099 39.0618 392.027 39.3218 391.882 39.5587C391.744 39.7957 391.556 39.9864 391.319 40.1308C391.088 40.2695 390.828 40.3389 390.539 40.3389Z" fill="white"/>
</svg>
