<svg width="639" height="91" viewBox="0 0 639 91" fill="none" xmlns="http://www.w3.org/2000/svg">
<path d="M15.2622 0.0029715L623.365 0.0029715C631.788 0.0029715 638.627 3.14674 638.627 7.01852L638.627 83.9132C638.627 87.7849 631.788 90.9287 623.365 90.9287L15.2622 90.9287C6.83922 90.9287 -3.34451e-07 87.7849 -3.197e-07 83.9132L-2.67285e-08 7.01555C-1.19774e-08 3.14377 6.83922 0 15.2622 0L15.2622 0.0029715Z" fill="white"/>
<path d="M553.052 14.3846L553.052 50.642H541.378L541.378 14.3846L518.003 14.3846L518.003 19.5609H529.69L529.69 40.2777H518.003L518.003 45.4628H529.69L529.69 66.1826H541.378L541.378 55.8183H553.052L553.052 76.544L588.121 76.544L588.121 14.3846L553.052 14.3846Z" fill="black"/>
<path d="M482.934 35.1015H494.622L494.622 14.3846L471.24 14.3846L471.24 35.1015H475.436L475.436 50.642H471.24L471.24 76.5469H494.622L494.622 66.1856H482.934L482.934 35.1044L482.934 35.1015Z" fill="black"/>
<path d="M447.865 45.4658H459.553L459.553 14.3846L447.865 14.3846L447.865 45.4658Z" fill="black"/>
<path d="M424.503 29.9252H436.191L436.191 14.3846L424.503 14.3846L424.503 19.5609H420.534L420.534 24.7371H424.503L424.503 29.9222L424.503 29.9252Z" fill="black"/>
<path d="M447.866 50.6421H436.191L436.191 40.2777H424.504L424.504 55.8183H436.191L436.191 66.1826H447.866L447.866 76.544H459.553L459.553 61.0034L447.866 61.0034L447.866 50.6391L447.866 50.6421Z" fill="black"/>
<path d="M412.816 76.547H436.198L436.198 71.3708H424.51L424.51 55.8213H412.823L412.823 76.547H412.816Z" fill="black"/>
<path d="M401.129 24.7401L401.129 40.2807L396.546 40.2807L396.546 14.3846L392.964 14.3846L392.964 40.2807H389.441L389.441 19.5638L377.754 19.5638L377.754 14.3876L366.066 14.3876L366.066 24.743H377.754L377.754 40.2836H366.066L366.066 55.8242H377.754L377.754 76.5499H389.441L389.441 50.645L377.754 50.645L377.754 45.4658L401.129 45.4658L401.129 76.547H404.781L404.781 55.8212H412.816L412.816 24.7401H401.129Z" fill="black"/>
<path d="M330.991 76.5469H342.679L342.679 66.1855H330.991L330.991 76.5469Z" fill="black"/>
<path d="M319.323 55.8213L319.323 66.1856H330.998L330.998 55.8213H319.323Z" fill="black"/>
<path d="M354.372 45.4658H342.685L342.685 66.1856H366.059L366.059 55.8213H354.372L354.372 45.4658Z" fill="black"/>
<path d="M354.372 14.3846L342.685 14.3846L342.685 40.2807H354.372L354.372 14.3846Z" fill="black"/>
<path d="M284.254 14.3846L272.567 14.3846L272.567 24.7401H284.254L284.254 14.3846Z" fill="black"/>
<path d="M237.498 24.7401L249.185 24.7401L249.185 14.3846L225.811 14.3846L225.811 76.5469H237.498L237.498 71.3707H249.185L249.185 61.0064L237.498 61.0064L237.498 55.8212L249.185 55.8212L249.185 50.642L237.498 50.642L237.498 40.2777H249.185L249.185 35.1015H237.498L237.498 24.7371L237.498 24.7401Z" fill="black"/>
<path d="M202.449 14.3846L190.761 14.3846L190.761 35.1015H202.449L202.449 14.3846Z" fill="black"/>
<path d="M179.067 35.1015L179.067 14.3846L167.38 14.3846L167.38 50.642H162.79L162.79 14.3846H160.282L160.282 50.642H155.692L155.692 55.8212H160.282L160.282 66.1856H155.692L155.692 71.3707H144.005L144.005 35.1044H155.692L155.692 14.3846L132.317 14.3846L132.317 76.5469H167.386L167.386 71.3707H179.074L179.074 76.5469H190.761L190.761 66.1856H179.074L179.074 50.645H190.761L190.761 35.1044L179.074 35.1044L179.067 35.1015ZM167.38 66.1826H162.79L162.79 55.8183H167.38L167.38 66.1826Z" fill="black"/>
<path d="M50.5054 76.5469H85.5742L85.5742 14.3846L50.5054 14.3846L50.5054 76.5469Z" fill="black"/>
<path d="M326.828 14.3846L320.991 14.3846L320.991 52.0237H326.828L326.828 14.3846Z" fill="black"/>
<path d="M310.241 14.3846H306.304L306.304 76.5469H310.241L310.241 14.3846Z" fill="black"/>
<path d="M294.132 55.8212H284.254L284.254 35.1044L272.567 35.1044L272.567 24.7401L249.186 24.7401L249.186 35.1044H260.873L260.873 76.5469H264.764L264.764 45.4658H272.56L272.56 76.5469H284.248L284.248 66.1856H295.935L295.935 14.3846H294.125L294.125 55.8212H294.132Z" fill="black"/>
<path d="M208.551 50.642H190.761L190.761 55.8212H202.449L202.449 76.5469H214.136L214.136 14.3846H208.551L208.551 50.642Z" fill="black"/>
<path d="M302.012 14.3846H299.503L299.503 76.5469H302.012L302.012 14.3846Z" fill="black"/>
<path d="M512.153 14.3846L509.645 14.3846L509.645 45.4658H501.862L501.862 14.3846L499.354 14.3846L499.354 45.4658H494.615L494.615 55.8212H499.354L499.354 76.5469H501.862L501.862 55.8212H506.303L506.303 76.5469H529.678L529.678 71.3707H517.99L517.99 45.4658H512.146L512.146 14.3846H512.153Z" fill="black"/>
<path d="M315.858 14.3846H313.35L313.35 76.5469H315.858L315.858 14.3846Z" fill="black"/>
<path d="M102.911 14.3846H98.9746L98.9746 76.5469H102.911L102.911 14.3846Z" fill="black"/>
<path d="M94.6825 14.3846H92.1743L92.1743 76.5469H94.6825L94.6825 14.3846Z" fill="black"/>
<path d="M108.529 14.3846H106.021L106.021 76.5469H108.529L108.529 14.3846Z" fill="black"/>
<path d="M122.608 14.3846H118.671L118.671 76.5469H122.608L122.608 14.3846Z" fill="black"/>
<path d="M114.372 14.3846H111.864L111.864 76.5469H114.372L114.372 14.3846Z" fill="black"/>
<path d="M128.219 14.3846H125.711L125.711 76.5469H128.219L128.219 14.3846Z" fill="black"/>
<path d="M467.168 14.3846H464.66L464.66 76.5469H467.168L467.168 14.3846Z" fill="black"/>
<path d="M220.368 14.3846H217.859L217.859 76.5469H220.368L220.368 14.3846Z" fill="black"/>
</svg>
