<svg width="27" height="28" viewBox="0 0 27 28" fill="none" xmlns="http://www.w3.org/2000/svg">
<path fill-rule="evenodd" clip-rule="evenodd" d="M7.17986 0.186523H19.4432C23.3829 0.186523 26.623 3.57346 26.623 7.69034V20.4406C26.623 24.558 23.3823 27.9444 19.4432 27.9444H7.17986C3.24017 27.9444 0 24.5575 0 20.4406V7.69034C0 3.57289 3.24071 0.186523 7.17986 0.186523ZM20.4599 5.03392C21.2859 5.03392 21.9849 5.76443 21.9849 6.62777C21.9849 7.4911 21.2859 8.22162 20.4599 8.22162C19.5703 8.22162 18.9348 7.4911 18.9348 6.62777C18.9348 5.76443 19.5703 5.03392 20.4599 5.03392ZM13.2795 6.49495H13.343C17.2827 6.49495 20.5864 9.94829 20.5864 14.0652C20.5864 18.249 17.2822 21.6354 13.343 21.6354H13.2795C9.33979 21.6354 6.09962 18.2485 6.09962 14.0652C6.09962 9.94772 9.34033 6.49495 13.2795 6.49495ZM13.2795 9.08495H13.343C15.9483 9.08495 18.1088 11.3429 18.1088 14.0657C18.1088 16.855 15.9483 19.1129 13.343 19.1129H13.2795C10.6742 19.1129 8.51373 16.855 8.51373 14.0657C8.51373 11.3429 10.6742 9.08495 13.2795 9.08495ZM7.2434 2.57673H19.3796C22.112 2.57673 24.336 4.9011 24.336 7.75675V20.3742C24.336 23.2298 22.112 25.5542 19.3796 25.5542H7.2434C4.51104 25.5542 2.28756 23.2298 2.28756 20.3742V7.75675C2.28756 4.9011 4.51158 2.57673 7.2434 2.57673Z" fill="white"/>
</svg>
