<svg width="461" height="92" viewBox="0 0 461 92" fill="none" xmlns="http://www.w3.org/2000/svg">
<path d="M425.19 37.7799H425.41C427.22 64.0099 441.56 85.2999 460.24 90.5399C455.95 91.3499 451.51 91.7799 446.95 91.7799C431.59 91.7799 417.48 86.9099 406.34 78.7899C417.68 68.5499 424.89 53.9599 425.19 37.7699V37.7799Z" fill="#0078FE"/>
<path d="M39.5922 0.390015H386.648C408.172 0.390015 425.62 20.7588 425.62 45.885V45.895C425.62 71.0212 408.172 91.39 386.648 91.39H39.5922C18.0685 91.39 0.620117 71.0212 0.620117 45.895V45.885C0.620117 20.7588 18.0685 0.390015 39.5922 0.390015Z" fill="#0078FE"/>
<path d="M44.2442 37.6373H46.706L51.6296 45.9242H51.8377L56.7613 37.6373H59.2231L52.8085 48.0739V55.39H50.6588V48.0739L44.2442 37.6373ZM65.2519 55.6674C64.0499 55.6674 62.9953 55.3813 62.088 54.8092C61.1865 54.2371 60.4815 53.4368 59.9729 52.4081C59.4701 51.3795 59.2188 50.1775 59.2188 48.8021C59.2188 47.4152 59.4701 46.2045 59.9729 45.1701C60.4815 44.1356 61.1865 43.3324 62.088 42.7603C62.9953 42.1882 64.0499 41.9021 65.2519 41.9021C66.4539 41.9021 67.5057 42.1882 68.4072 42.7603C69.3145 43.3324 70.0195 44.1356 70.5223 45.1701C71.0308 46.2045 71.2851 47.4152 71.2851 48.8021C71.2851 50.1775 71.0308 51.3795 70.5223 52.4081C70.0195 53.4368 69.3145 54.2371 68.4072 54.8092C67.5057 55.3813 66.4539 55.6674 65.2519 55.6674ZM65.2519 53.8297C66.165 53.8297 66.9162 53.5957 67.5057 53.1276C68.0951 52.6595 68.5314 52.044 68.8146 51.2812C69.0978 50.5184 69.2393 49.692 69.2393 48.8021C69.2393 47.9121 69.0978 47.0829 68.8146 46.3143C68.5314 45.5457 68.0951 44.9245 67.5057 44.4506C66.9162 43.9767 66.165 43.7398 65.2519 43.7398C64.3389 43.7398 63.5876 43.9767 62.9982 44.4506C62.4087 44.9245 61.9724 45.5457 61.6892 46.3143C61.4061 47.0829 61.2645 47.9121 61.2645 48.8021C61.2645 49.692 61.4061 50.5184 61.6892 51.2812C61.9724 52.044 62.4087 52.6595 62.9982 53.1276C63.5876 53.5957 64.3389 53.8297 65.2519 53.8297ZM82.7988 49.9463V42.0755H84.8445V55.39H82.7988V53.1363H82.6601C82.348 53.8124 81.8626 54.3874 81.2038 54.8612C80.545 55.3293 79.7129 55.5634 78.7073 55.5634C77.8752 55.5634 77.1355 55.3813 76.4882 55.0173C75.841 54.6474 75.3325 54.0927 74.9626 53.353C74.5928 52.6075 74.4078 51.6684 74.4078 50.5358V42.0755H76.4536V50.3971C76.4536 51.3679 76.7252 52.1423 77.2684 52.7202C77.8174 53.2981 78.5166 53.587 79.3661 53.587C79.8747 53.587 80.3919 53.457 80.9177 53.1969C81.4494 52.9369 81.8944 52.5381 82.2527 52.0007C82.6167 51.4633 82.7988 50.7785 82.7988 49.9463ZM100.484 55.6674C99.3748 55.6674 98.3953 55.3871 97.5458 54.8266C96.6963 54.2602 96.0317 53.4628 95.552 52.4341C95.0724 51.3997 94.8326 50.1775 94.8326 48.7674C94.8326 47.3689 95.0724 46.1554 95.552 45.1267C96.0317 44.0981 96.6992 43.3035 97.5544 42.7429C98.4097 42.1824 99.3979 41.9021 100.519 41.9021C101.386 41.9021 102.071 42.0466 102.573 42.3355C103.082 42.6187 103.469 42.9423 103.735 43.3064C104.007 43.6647 104.217 43.9594 104.368 44.1905H104.541V37.6373H106.587V55.39H104.61V53.3443H104.368C104.217 53.587 104.004 53.8933 103.726 54.2631C103.449 54.6272 103.053 54.9537 102.539 55.2427C102.024 55.5258 101.34 55.6674 100.484 55.6674ZM100.762 53.8297C101.582 53.8297 102.276 53.6159 102.842 53.1883C103.408 52.7548 103.839 52.1567 104.134 51.3939C104.428 50.6253 104.576 49.7383 104.576 48.7327C104.576 47.7388 104.431 46.8691 104.142 46.1236C103.853 45.3723 103.426 44.7887 102.859 44.3726C102.293 43.9507 101.594 43.7398 100.762 43.7398C99.8949 43.7398 99.1725 43.9623 98.5946 44.4072C98.0225 44.8464 97.592 45.4446 97.303 46.2016C97.0199 46.9528 96.8783 47.7966 96.8783 48.7327C96.8783 49.6805 97.0228 50.5415 97.3117 51.3159C97.6064 52.0845 98.0399 52.6971 98.612 53.1536C99.1899 53.6043 99.9064 53.8297 100.762 53.8297ZM116.2 55.6674C114.917 55.6674 113.81 55.3842 112.88 54.8179C111.955 54.2458 111.242 53.4483 110.739 52.4254C110.242 51.3968 109.993 50.2006 109.993 48.8368C109.993 47.4729 110.242 46.2709 110.739 45.2307C111.242 44.1848 111.941 43.3699 112.837 42.7863C113.738 42.1968 114.79 41.9021 115.992 41.9021C116.685 41.9021 117.37 42.0177 118.046 42.2488C118.722 42.48 119.338 42.8556 119.893 43.3757C120.447 43.89 120.89 44.5719 121.219 45.4214C121.548 46.2709 121.713 47.3169 121.713 48.5594V49.4262H111.45V47.6579H119.633C119.633 46.9066 119.482 46.2363 119.182 45.6468C118.887 45.0574 118.465 44.5922 117.916 44.2512C117.373 43.9103 116.732 43.7398 115.992 43.7398C115.177 43.7398 114.472 43.942 113.877 44.3466C113.287 44.7453 112.834 45.2654 112.516 45.9069C112.198 46.5483 112.039 47.236 112.039 47.9699V49.1488C112.039 50.1543 112.213 51.0067 112.559 51.706C112.912 52.3994 113.4 52.9282 114.024 53.2923C114.648 53.6506 115.374 53.8297 116.2 53.8297C116.737 53.8297 117.223 53.7546 117.656 53.6043C118.095 53.4483 118.474 53.2172 118.792 52.9109C119.11 52.5988 119.355 52.2116 119.529 51.7493L121.505 52.3041C121.297 52.9744 120.947 53.5639 120.456 54.0724C119.965 54.5752 119.358 54.9682 118.636 55.2513C117.913 55.5287 117.101 55.6674 116.2 55.6674ZM130.234 55.6674C128.986 55.6674 127.911 55.3727 127.009 54.7832C126.108 54.1938 125.414 53.3819 124.929 52.3474C124.444 51.313 124.201 50.1312 124.201 48.8021C124.201 47.4498 124.449 46.2565 124.946 45.2221C125.449 44.1819 126.148 43.3699 127.044 42.7863C127.946 42.1968 128.997 41.9021 130.199 41.9021C131.136 41.9021 131.979 42.0755 132.73 42.4222C133.482 42.7689 134.097 43.2544 134.577 43.8785C135.056 44.5026 135.354 45.2307 135.47 46.0629H133.424C133.268 45.4561 132.921 44.9187 132.384 44.4506C131.852 43.9767 131.136 43.7398 130.234 43.7398C129.437 43.7398 128.737 43.9478 128.136 44.3639C127.541 44.7742 127.076 45.355 126.741 46.1062C126.411 46.8517 126.247 47.7272 126.247 48.7327C126.247 49.7614 126.408 50.6571 126.732 51.4199C127.061 52.1827 127.524 52.7751 128.119 53.1969C128.72 53.6188 129.425 53.8297 130.234 53.8297C130.766 53.8297 131.248 53.7373 131.682 53.5523C132.115 53.3674 132.482 53.1016 132.783 52.7548C133.083 52.4081 133.297 51.992 133.424 51.5066H135.47C135.354 52.2925 135.068 53.0004 134.612 53.6303C134.161 54.2545 133.563 54.7514 132.817 55.1213C132.077 55.4854 131.216 55.6674 130.234 55.6674ZM138.46 55.39V42.0755H140.506V55.39H138.46ZM139.5 39.8564C139.102 39.8564 138.758 39.7206 138.469 39.449C138.186 39.1774 138.044 38.8509 138.044 38.4694C138.044 38.088 138.186 37.7615 138.469 37.4899C138.758 37.2183 139.102 37.0825 139.5 37.0825C139.899 37.0825 140.24 37.2183 140.523 37.4899C140.812 37.7615 140.957 38.088 140.957 38.4694C140.957 38.8509 140.812 39.1774 140.523 39.449C140.24 39.7206 139.899 39.8564 139.5 39.8564ZM149.28 55.6674C148.171 55.6674 147.191 55.3871 146.342 54.8266C145.492 54.2602 144.828 53.4628 144.348 52.4341C143.869 51.3997 143.629 50.1775 143.629 48.7674C143.629 47.3689 143.869 46.1554 144.348 45.1267C144.828 44.0981 145.495 43.3035 146.351 42.7429C147.206 42.1824 148.194 41.9021 149.315 41.9021C150.182 41.9021 150.867 42.0466 151.37 42.3355C151.878 42.6187 152.265 42.9423 152.531 43.3064C152.803 43.6647 153.014 43.9594 153.164 44.1905H153.337V37.6373H155.383V55.39H153.407V53.3443H153.164C153.014 53.587 152.8 53.8933 152.522 54.2631C152.245 54.6272 151.849 54.9537 151.335 55.2427C150.821 55.5258 150.136 55.6674 149.28 55.6674ZM149.558 53.8297C150.378 53.8297 151.072 53.6159 151.638 53.1883C152.205 52.7548 152.635 52.1567 152.93 51.3939C153.225 50.6253 153.372 49.7383 153.372 48.7327C153.372 47.7388 153.227 46.8691 152.939 46.1236C152.65 45.3723 152.222 44.7887 151.656 44.3726C151.089 43.9507 150.39 43.7398 149.558 43.7398C148.691 43.7398 147.969 43.9623 147.391 44.4072C146.819 44.8464 146.388 45.4446 146.099 46.2016C145.816 46.9528 145.674 47.7966 145.674 48.7327C145.674 49.6805 145.819 50.5415 146.108 51.3159C146.403 52.0845 146.836 52.6971 147.408 53.1536C147.986 53.6043 148.703 53.8297 149.558 53.8297ZM164.996 55.6674C163.713 55.6674 162.607 55.3842 161.676 54.8179C160.752 54.2458 160.038 53.4483 159.535 52.4254C159.038 51.3968 158.79 50.2006 158.79 48.8368C158.79 47.4729 159.038 46.2709 159.535 45.2307C160.038 44.1848 160.737 43.3699 161.633 42.7863C162.534 42.1968 163.586 41.9021 164.788 41.9021C165.482 41.9021 166.166 42.0177 166.843 42.2488C167.519 42.48 168.134 42.8556 168.689 43.3757C169.244 43.89 169.686 44.5719 170.015 45.4214C170.345 46.2709 170.509 47.3169 170.509 48.5594V49.4262H160.246V47.6579H168.429C168.429 46.9066 168.279 46.2363 167.978 45.6468C167.683 45.0574 167.261 44.5922 166.712 44.2512C166.169 43.9103 165.528 43.7398 164.788 43.7398C163.973 43.7398 163.268 43.942 162.673 44.3466C162.084 44.7453 161.63 45.2654 161.312 45.9069C160.994 46.5483 160.835 47.236 160.835 47.9699V49.1488C160.835 50.1543 161.009 51.0067 161.355 51.706C161.708 52.3994 162.196 52.9282 162.82 53.2923C163.445 53.6506 164.17 53.8297 164.996 53.8297C165.534 53.8297 166.019 53.7546 166.452 53.6043C166.892 53.4483 167.27 53.2172 167.588 52.9109C167.906 52.5988 168.151 52.2116 168.325 51.7493L170.301 52.3041C170.093 52.9744 169.744 53.5639 169.252 54.0724C168.761 54.5752 168.154 54.9682 167.432 55.2513C166.71 55.5287 165.898 55.6674 164.996 55.6674ZM181.977 55.5287C181.55 55.5287 181.183 55.3756 180.877 55.0693C180.57 54.763 180.417 54.396 180.417 53.9684C180.417 53.5408 180.57 53.1738 180.877 52.8675C181.183 52.5613 181.55 52.4081 181.977 52.4081C182.405 52.4081 182.772 52.5613 183.078 52.8675C183.385 53.1738 183.538 53.5408 183.538 53.9684C183.538 54.2516 183.465 54.5116 183.321 54.7486C183.182 54.9855 182.994 55.1762 182.758 55.3207C182.526 55.4594 182.266 55.5287 181.977 55.5287ZM181.977 45.6468C181.55 45.6468 181.183 45.4937 180.877 45.1874C180.57 44.8811 180.417 44.5142 180.417 44.0865C180.417 43.6589 180.57 43.2919 180.877 42.9856C181.183 42.6794 181.55 42.5262 181.977 42.5262C182.405 42.5262 182.772 42.6794 183.078 42.9856C183.385 43.2919 183.538 43.6589 183.538 44.0865C183.538 44.3697 183.465 44.6297 183.321 44.8667C183.182 45.1036 182.994 45.2943 182.758 45.4388C182.526 45.5775 182.266 45.6468 181.977 45.6468ZM191.578 47.9006C191.578 50.085 191.292 52.0961 190.719 53.9337C190.153 55.7656 189.341 57.4531 188.284 58.996H186.481C186.897 58.4239 187.284 57.7189 187.642 56.881C188.006 56.0488 188.324 55.1357 188.596 54.1418C188.867 53.142 189.078 52.1105 189.228 51.0472C189.384 49.9781 189.463 48.9292 189.463 47.9006C189.463 46.5252 189.33 45.1296 189.064 43.7138C188.798 42.298 188.44 40.9833 187.989 39.7697C187.538 38.5561 187.035 37.5679 186.481 36.8051H188.284C189.341 38.3481 190.153 40.0384 190.719 41.8761C191.292 43.708 191.578 45.7162 191.578 47.9006Z" fill="white"/>
</svg>
