<svg width="38" height="36" viewBox="0 0 38 36" fill="none" xmlns="http://www.w3.org/2000/svg">
<path fill-rule="evenodd" clip-rule="evenodd" d="M8.97263 18.2169C14.1459 16.0617 20.4041 12.9948 25.8275 10.9226C30.8337 9.09897 30.7506 9.59638 29.9993 14.57C29.4151 18.5488 28.7478 22.5276 28.08 26.5059C27.8299 28.4125 26.8284 29.4069 24.7425 28.2466L18.2342 23.6879C17.3163 22.942 17.5669 22.3616 18.3177 21.6157L24.3253 15.9792C25.9105 14.4045 25.1597 13.8241 23.3239 15.0674L15.0633 20.6209C13.8953 21.4498 12.6437 21.4498 11.3087 21.0353L8.47191 20.0405C6.63611 19.3776 8.05473 18.6313 8.97263 18.2169Z" fill="white"/>
</svg>
