<svg width="43" height="41" viewBox="0 0 43 41" fill="none" xmlns="http://www.w3.org/2000/svg">
<path fill-rule="evenodd" clip-rule="evenodd" d="M34.3781 15.2381C33.9689 12.2238 32.4359 11.7124 29.4205 11.4572C28.1171 11.3549 26.7248 11.2787 25.3703 11.2276C24.0158 11.1765 22.6991 11.1509 21.5498 11.1509C19.25 11.1509 16.2341 11.2532 13.6774 11.4572C10.6615 11.7124 9.07731 12.2238 8.66917 15.2381C8.59244 15.928 8.5285 16.7463 8.4829 17.6336C8.43842 18.522 8.41284 19.4804 8.41284 20.4516C8.41284 22.3935 8.51515 24.3354 8.66917 25.664C9.07731 28.7306 10.6615 29.1898 13.6774 29.4461C14.9552 29.5734 16.3486 29.6501 17.7098 29.6946C19.071 29.7401 20.3999 29.7524 21.5498 29.7524C23.8495 29.7524 26.8143 29.7012 29.421 29.4461C32.437 29.1898 33.97 28.7306 34.3787 25.664C34.481 24.9997 34.5571 24.1825 34.6083 23.2874C34.6594 22.3935 34.685 21.4223 34.685 20.4516C34.685 18.5098 34.5827 16.6185 34.3787 15.2386L34.3781 15.2381ZM18.8914 24.4377V16.5167L25.7401 20.4516L18.8914 24.4377Z" fill="white"/>
</svg>
