<svg width="613" height="172" viewBox="0 0 613 172" fill="none" xmlns="http://www.w3.org/2000/svg">
<g filter="url(#filter0_d_266_36)">
<path d="M59.43 61.77H59.21C57.4 88 43.06 109.29 24.38 114.53C28.67 115.34 33.11 115.77 37.67 115.77C53.03 115.77 67.14 110.9 78.28 102.78C66.94 92.54 59.73 77.95 59.43 61.76V61.77Z" fill="#252525"/>
<path d="M511.31 24.38H104.43C79.1961 24.38 58.74 44.8361 58.74 70.07V70.08C58.74 95.3139 79.1961 115.77 104.43 115.77H511.31C536.544 115.77 557 95.3139 557 70.08V70.07C557 44.8361 536.544 24.38 511.31 24.38Z" fill="#252525"/>
<path d="M89.0797 64.58V46.8273H99.7244V48.7343H91.2294V54.7328H98.9269V56.6398H91.2294V64.58H89.0797ZM110.685 59.1363V51.2654H112.731V64.58H110.685V62.3262H110.547C110.235 63.0024 109.749 63.5774 109.091 64.0512C108.432 64.5193 107.6 64.7534 106.594 64.7534C105.762 64.7534 105.022 64.5713 104.375 64.2072C103.728 63.8374 103.219 63.2826 102.849 62.5429C102.479 61.7975 102.295 60.8584 102.295 59.7257V51.2654H104.34V59.587C104.34 60.5579 104.612 61.3323 105.155 61.9101C105.704 62.488 106.403 62.777 107.253 62.777C107.761 62.777 108.279 62.647 108.804 62.3869C109.336 62.1269 109.781 61.7281 110.139 61.1907C110.503 60.6532 110.685 59.9684 110.685 59.1363ZM118.524 46.8273V64.58H116.478V46.8273H118.524ZM124.316 46.8273V64.58H122.271V46.8273H124.316ZM144.915 51.2654C144.81 50.3871 144.389 49.7051 143.649 49.2197C142.909 48.7343 142.002 48.4916 140.927 48.4916C140.141 48.4916 139.453 48.6187 138.864 48.873C138.28 49.1273 137.824 49.4769 137.494 49.9219C137.171 50.3668 137.009 50.8725 137.009 51.4388C137.009 51.9127 137.122 52.3201 137.347 52.661C137.578 52.9962 137.873 53.2765 138.231 53.5019C138.59 53.7215 138.965 53.9035 139.358 54.048C139.751 54.1867 140.112 54.2994 140.442 54.386L142.245 54.8715C142.707 54.9928 143.221 55.1604 143.788 55.3742C144.36 55.588 144.906 55.8799 145.426 56.2497C145.952 56.6138 146.385 57.0819 146.726 57.654C147.067 58.2261 147.238 58.9282 147.238 59.7604C147.238 60.7197 146.986 61.5865 146.483 62.3609C145.987 63.1353 145.258 63.7507 144.299 64.2072C143.346 64.6638 142.187 64.892 140.823 64.892C139.552 64.892 138.451 64.6869 137.52 64.2766C136.596 63.8663 135.868 63.2942 135.336 62.5603C134.81 61.8263 134.513 60.974 134.443 60.0031H136.662C136.72 60.6735 136.945 61.2282 137.338 61.6674C137.737 62.1008 138.24 62.4245 138.847 62.6383C139.459 62.8463 140.118 62.9503 140.823 62.9503C141.644 62.9503 142.38 62.8174 143.033 62.5516C143.687 62.28 144.204 61.9044 144.585 61.4247C144.967 60.9393 145.157 60.373 145.157 59.7257C145.157 59.1363 144.993 58.6566 144.663 58.2868C144.334 57.9169 143.9 57.6164 143.363 57.3853C142.825 57.1541 142.245 56.9519 141.621 56.7785L139.436 56.1544C138.049 55.7556 136.951 55.1864 136.142 54.4467C135.333 53.707 134.929 52.7391 134.929 51.5428C134.929 50.5489 135.197 49.682 135.735 48.9423C136.278 48.1969 137.006 47.619 137.919 47.2087C138.838 46.7926 139.864 46.5845 140.996 46.5845C142.141 46.5845 143.158 46.7897 144.048 47.2C144.938 47.6045 145.643 48.1593 146.163 48.8643C146.689 49.5693 146.966 50.3697 146.995 51.2654H144.915ZM156.077 64.8574C154.794 64.8574 153.688 64.5742 152.757 64.0079C151.833 63.4358 151.119 62.6383 150.616 61.6154C150.119 60.5868 149.871 59.3906 149.871 58.0267C149.871 56.6629 150.119 55.4609 150.616 54.4207C151.119 53.3747 151.818 52.5599 152.714 51.9762C153.615 51.3868 154.667 51.0921 155.869 51.0921C156.563 51.0921 157.247 51.2077 157.924 51.4388C158.6 51.67 159.215 52.0456 159.77 52.5657C160.325 53.08 160.767 53.7619 161.096 54.6114C161.426 55.4609 161.59 56.5069 161.59 57.7493V58.6162H151.327V56.8478H159.51C159.51 56.0966 159.36 55.4262 159.059 54.8368C158.764 54.2473 158.342 53.7821 157.793 53.4412C157.25 53.1002 156.609 52.9298 155.869 52.9298C155.054 52.9298 154.349 53.132 153.754 53.5365C153.165 53.9353 152.711 54.4554 152.393 55.0968C152.075 55.7383 151.916 56.426 151.916 57.1599V58.3388C151.916 59.3443 152.09 60.1967 152.436 60.8959C152.789 61.5894 153.277 62.1182 153.901 62.4823C154.526 62.8405 155.251 63.0197 156.077 63.0197C156.615 63.0197 157.1 62.9446 157.533 62.7943C157.973 62.6383 158.351 62.4071 158.669 62.1008C158.987 61.7888 159.232 61.4016 159.406 60.9393L161.382 61.4941C161.174 62.1644 160.825 62.7539 160.333 63.2624C159.842 63.7652 159.235 64.1581 158.513 64.4413C157.791 64.7187 156.979 64.8574 156.077 64.8574ZM164.702 64.58V51.2654H166.679V53.2765H166.817C167.06 52.6177 167.499 52.0832 168.135 51.6729C168.77 51.2626 169.487 51.0574 170.285 51.0574C170.435 51.0574 170.623 51.0603 170.848 51.0661C171.073 51.0718 171.244 51.0805 171.359 51.0921V53.1725C171.29 53.1551 171.131 53.1291 170.883 53.0945C170.64 53.054 170.383 53.0338 170.111 53.0338C169.464 53.0338 168.886 53.1696 168.378 53.4412C167.875 53.707 167.476 54.0769 167.181 54.5507C166.892 55.0188 166.748 55.5534 166.748 56.1544V64.58H164.702ZM185.077 51.2654L180.153 64.58H178.073L173.149 51.2654H175.369L179.044 61.8755H179.183L182.858 51.2654H185.077ZM187.777 64.58V51.2654H189.823V64.58H187.777ZM188.817 49.0464C188.419 49.0464 188.075 48.9105 187.786 48.6389C187.503 48.3673 187.361 48.0408 187.361 47.6594C187.361 47.278 187.503 46.9515 187.786 46.6799C188.075 46.4083 188.419 46.2725 188.817 46.2725C189.216 46.2725 189.557 46.4083 189.84 46.6799C190.129 46.9515 190.274 47.278 190.274 47.6594C190.274 48.0408 190.129 48.3673 189.84 48.6389C189.557 48.9105 189.216 49.0464 188.817 49.0464ZM198.979 64.8574C197.731 64.8574 196.656 64.5626 195.754 63.9732C194.853 63.3838 194.159 62.5718 193.674 61.5374C193.188 60.503 192.946 59.3212 192.946 57.9921C192.946 56.6398 193.194 55.4465 193.691 54.412C194.194 53.3718 194.893 52.5599 195.789 51.9762C196.69 51.3868 197.742 51.0921 198.944 51.0921C199.88 51.0921 200.724 51.2654 201.475 51.6122C202.227 51.9589 202.842 52.4443 203.322 53.0685C203.801 53.6926 204.099 54.4207 204.215 55.2529H202.169C202.013 54.6461 201.666 54.1087 201.129 53.6406C200.597 53.1667 199.88 52.9298 198.979 52.9298C198.181 52.9298 197.482 53.1378 196.881 53.5539C196.286 53.9642 195.821 54.545 195.486 55.2962C195.156 56.0417 194.991 56.9172 194.991 57.9227C194.991 58.9514 195.153 59.8471 195.477 60.6099C195.806 61.3727 196.269 61.965 196.864 62.3869C197.465 62.8088 198.17 63.0197 198.979 63.0197C199.511 63.0197 199.993 62.9272 200.426 62.7423C200.86 62.5574 201.227 62.2915 201.527 61.9448C201.828 61.5981 202.042 61.182 202.169 60.6966H204.215C204.099 61.4825 203.813 62.1904 203.356 62.8203C202.906 63.4444 202.307 63.9414 201.562 64.3113C200.822 64.6753 199.961 64.8574 198.979 64.8574ZM212.787 64.8574C211.505 64.8574 210.398 64.5742 209.468 64.0079C208.543 63.4358 207.829 62.6383 207.326 61.6154C206.829 60.5868 206.581 59.3906 206.581 58.0267C206.581 56.6629 206.829 55.4609 207.326 54.4207C207.829 53.3747 208.528 52.5599 209.424 51.9762C210.326 51.3868 211.377 51.0921 212.579 51.0921C213.273 51.0921 213.958 51.2077 214.634 51.4388C215.31 51.67 215.925 52.0456 216.48 52.5657C217.035 53.08 217.477 53.7619 217.806 54.6114C218.136 55.4609 218.301 56.5069 218.301 57.7493V58.6162H208.037V56.8478H216.22C216.22 56.0966 216.07 55.4262 215.769 54.8368C215.475 54.2473 215.053 53.7821 214.504 53.4412C213.961 53.1002 213.319 52.9298 212.579 52.9298C211.765 52.9298 211.06 53.132 210.464 53.5365C209.875 53.9353 209.421 54.4554 209.103 55.0968C208.786 55.7383 208.627 56.426 208.627 57.1599V58.3388C208.627 59.3443 208.8 60.1967 209.147 60.8959C209.499 61.5894 209.988 62.1182 210.612 62.4823C211.236 62.8405 211.961 63.0197 212.787 63.0197C213.325 63.0197 213.81 62.9446 214.244 62.7943C214.683 62.6383 215.061 62.4071 215.379 62.1008C215.697 61.7888 215.943 61.4016 216.116 60.9393L218.093 61.4941C217.884 62.1644 217.535 62.7539 217.044 63.2624C216.552 63.7652 215.946 64.1581 215.223 64.4413C214.501 64.7187 213.689 64.8574 212.787 64.8574ZM233.687 64.8574C232.485 64.8574 231.43 64.5713 230.523 63.9992C229.621 63.4271 228.916 62.6267 228.408 61.5981C227.905 60.5694 227.654 59.3674 227.654 57.9921C227.654 56.6051 227.905 55.3945 228.408 54.36C228.916 53.3256 229.621 52.5223 230.523 51.9502C231.43 51.3781 232.485 51.0921 233.687 51.0921C234.889 51.0921 235.941 51.3781 236.842 51.9502C237.749 52.5223 238.454 53.3256 238.957 54.36C239.466 55.3945 239.72 56.6051 239.72 57.9921C239.72 59.3674 239.466 60.5694 238.957 61.5981C238.454 62.6267 237.749 63.4271 236.842 63.9992C235.941 64.5713 234.889 64.8574 233.687 64.8574ZM233.687 63.0197C234.6 63.0197 235.351 62.7856 235.941 62.3176C236.53 61.8495 236.966 61.234 237.249 60.4712C237.533 59.7084 237.674 58.882 237.674 57.9921C237.674 57.1021 237.533 56.2728 237.249 55.5043C236.966 54.7357 236.53 54.1144 235.941 53.6406C235.351 53.1667 234.6 52.9298 233.687 52.9298C232.774 52.9298 232.022 53.1667 231.433 53.6406C230.844 54.1144 230.407 54.7357 230.124 55.5043C229.841 56.2728 229.699 57.1021 229.699 57.9921C229.699 58.882 229.841 59.7084 230.124 60.4712C230.407 61.234 230.844 61.8495 231.433 62.3176C232.022 62.7856 232.774 63.0197 233.687 63.0197ZM242.843 64.58V51.2654H244.819V53.2765H244.958C245.201 52.6177 245.64 52.0832 246.275 51.6729C246.911 51.2626 247.628 51.0574 248.425 51.0574C248.575 51.0574 248.763 51.0603 248.989 51.0661C249.214 51.0718 249.384 51.0805 249.5 51.0921V53.1725C249.431 53.1551 249.272 53.1291 249.023 53.0945C248.781 53.054 248.523 53.0338 248.252 53.0338C247.605 53.0338 247.027 53.1696 246.518 53.4412C246.015 53.707 245.617 54.0769 245.322 54.5507C245.033 55.0188 244.888 55.5534 244.888 56.1544V64.58H242.843ZM259.796 64.58H257.542L264.061 46.8273H266.28L272.798 64.58H270.545L265.24 49.6358H265.101L259.796 64.58ZM260.628 57.6453H269.712V59.5524H260.628V57.6453ZM282.429 64.58V46.8273H284.579V62.673H292.831V64.58H282.429ZM299.8 64.892C298.956 64.892 298.191 64.7331 297.503 64.4153C296.815 64.0917 296.269 63.6265 295.865 63.0197C295.46 62.4071 295.258 61.6674 295.258 60.8006C295.258 60.0378 295.408 59.4194 295.709 58.9456C296.009 58.4659 296.411 58.0903 296.914 57.8187C297.416 57.5471 297.971 57.3448 298.578 57.2119C299.19 57.0732 299.806 56.9634 300.424 56.8825C301.233 56.7785 301.889 56.7005 302.392 56.6485C302.901 56.5907 303.27 56.4953 303.502 56.3624C303.738 56.2295 303.857 55.9983 303.857 55.6689V55.5996C303.857 54.7443 303.623 54.0798 303.155 53.6059C302.692 53.132 301.99 52.8951 301.048 52.8951C300.072 52.8951 299.306 53.1089 298.751 53.5365C298.196 53.9642 297.806 54.4207 297.581 54.9061L295.639 54.2127C295.986 53.4036 296.448 52.7737 297.026 52.323C297.61 51.8664 298.246 51.5486 298.933 51.3695C299.627 51.1845 300.309 51.0921 300.979 51.0921C301.407 51.0921 301.898 51.1441 302.453 51.2481C303.013 51.3463 303.554 51.5515 304.074 51.8636C304.599 52.1756 305.036 52.6466 305.383 53.2765C305.729 53.9064 305.903 54.7501 305.903 55.8076V64.58H303.857V62.777H303.753C303.614 63.0659 303.383 63.3751 303.059 63.7045C302.736 64.0339 302.305 64.3142 301.768 64.5453C301.23 64.7765 300.575 64.892 299.8 64.892ZM300.112 63.0544C300.921 63.0544 301.603 62.8954 302.158 62.5776C302.718 62.2598 303.14 61.8495 303.423 61.3467C303.712 60.8439 303.857 60.3152 303.857 59.7604V57.888C303.77 57.9921 303.58 58.0874 303.285 58.1741C302.996 58.255 302.661 58.3272 302.279 58.3908C301.904 58.4486 301.537 58.5006 301.178 58.5468C300.826 58.5873 300.54 58.622 300.32 58.6509C299.789 58.7202 299.292 58.8329 298.829 58.9889C298.373 59.1392 298.003 59.3674 297.72 59.6737C297.442 59.9742 297.304 60.3845 297.304 60.9046C297.304 61.6154 297.567 62.1529 298.092 62.5169C298.624 62.8752 299.297 63.0544 300.112 63.0544ZM331.065 52.375H328.915C328.788 51.7566 328.565 51.2134 328.247 50.7453C327.935 50.2773 327.554 49.8843 327.103 49.5664C326.658 49.2428 326.164 49.0001 325.621 48.8383C325.078 48.6765 324.511 48.5956 323.922 48.5956C322.847 48.5956 321.873 48.8672 321.001 49.4104C320.134 49.9536 319.443 50.754 318.929 51.8115C318.42 52.8691 318.166 54.1664 318.166 55.7036C318.166 57.2408 318.42 58.5382 318.929 59.5957C319.443 60.6532 320.134 61.4536 321.001 61.9968C321.873 62.54 322.847 62.8116 323.922 62.8116C324.511 62.8116 325.078 62.7307 325.621 62.5689C326.164 62.4071 326.658 62.1673 327.103 61.8495C327.554 61.5258 327.935 61.13 328.247 60.6619C328.565 60.188 328.788 59.6448 328.915 59.0323H331.065C330.903 59.9395 330.608 60.7515 330.18 61.4681C329.753 62.1846 329.221 62.7943 328.585 63.2971C327.95 63.7941 327.236 64.1726 326.444 64.4326C325.658 64.6927 324.818 64.8227 323.922 64.8227C322.408 64.8227 321.061 64.4529 319.882 63.7132C318.704 62.9735 317.776 61.9217 317.1 60.5579C316.424 59.1941 316.086 57.576 316.086 55.7036C316.086 53.8313 316.424 52.2132 317.1 50.8494C317.776 49.4855 318.704 48.4338 319.882 47.6941C321.061 46.9544 322.408 46.5845 323.922 46.5845C324.818 46.5845 325.658 46.7146 326.444 46.9746C327.236 47.2347 327.95 47.6161 328.585 48.1188C329.221 48.6158 329.753 49.2226 330.18 49.9392C330.608 50.65 330.903 51.4619 331.065 52.375ZM338.179 64.892C337.335 64.892 336.57 64.7331 335.882 64.4153C335.194 64.0917 334.648 63.6265 334.244 63.0197C333.839 62.4071 333.637 61.6674 333.637 60.8006C333.637 60.0378 333.787 59.4194 334.088 58.9456C334.388 58.4659 334.79 58.0903 335.293 57.8187C335.795 57.5471 336.35 57.3448 336.957 57.2119C337.569 57.0732 338.185 56.9634 338.803 56.8825C339.612 56.7785 340.268 56.7005 340.771 56.6485C341.279 56.5907 341.649 56.4953 341.881 56.3624C342.117 56.2295 342.236 55.9983 342.236 55.6689V55.5996C342.236 54.7443 342.002 54.0798 341.534 53.6059C341.071 53.132 340.369 52.8951 339.427 52.8951C338.451 52.8951 337.685 53.1089 337.13 53.5365C336.575 53.9642 336.185 54.4207 335.96 54.9061L334.018 54.2127C334.365 53.4036 334.827 52.7737 335.405 52.323C335.989 51.8664 336.625 51.5486 337.312 51.3695C338.006 51.1845 338.688 51.0921 339.358 51.0921C339.786 51.0921 340.277 51.1441 340.832 51.2481C341.392 51.3463 341.933 51.5515 342.453 51.8636C342.978 52.1756 343.415 52.6466 343.762 53.2765C344.108 53.9064 344.282 54.7501 344.282 55.8076V64.58H342.236V62.777H342.132C341.993 63.0659 341.762 63.3751 341.438 63.7045C341.115 64.0339 340.684 64.3142 340.147 64.5453C339.609 64.7765 338.953 64.892 338.179 64.892ZM338.491 63.0544C339.3 63.0544 339.982 62.8954 340.537 62.5776C341.097 62.2598 341.519 61.8495 341.802 61.3467C342.091 60.8439 342.236 60.3152 342.236 59.7604V57.888C342.149 57.9921 341.959 58.0874 341.664 58.1741C341.375 58.255 341.04 58.3272 340.658 58.3908C340.283 58.4486 339.916 58.5006 339.557 58.5468C339.205 58.5873 338.919 58.622 338.699 58.6509C338.168 58.7202 337.671 58.8329 337.208 58.9889C336.752 59.1392 336.382 59.3674 336.099 59.6737C335.821 59.9742 335.683 60.3845 335.683 60.9046C335.683 61.6154 335.946 62.1529 336.471 62.5169C337.003 62.8752 337.676 63.0544 338.491 63.0544ZM348.016 64.58V51.2654H349.992V53.2765H350.131C350.373 52.6177 350.812 52.0832 351.448 51.6729C352.084 51.2626 352.8 51.0574 353.598 51.0574C353.748 51.0574 353.936 51.0603 354.161 51.0661C354.387 51.0718 354.557 51.0805 354.673 51.0921V53.1725C354.603 53.1551 354.445 53.1291 354.196 53.0945C353.953 53.054 353.696 53.0338 353.425 53.0338C352.777 53.0338 352.199 53.1696 351.691 53.4412C351.188 53.707 350.789 54.0769 350.495 54.5507C350.206 55.0188 350.061 55.5534 350.061 56.1544V64.58H348.016ZM363.723 51.2654V52.9991H356.823V51.2654H363.723ZM358.834 48.0755H360.879V60.7659C360.879 61.3438 360.963 61.7772 361.131 62.0662C361.304 62.3493 361.524 62.54 361.789 62.6383C362.061 62.7307 362.347 62.777 362.648 62.777C362.873 62.777 363.058 62.7654 363.202 62.7423C363.347 62.7134 363.462 62.6903 363.549 62.673L363.965 64.5106C363.827 64.5626 363.633 64.6147 363.384 64.6667C363.136 64.7245 362.821 64.7534 362.44 64.7534C361.862 64.7534 361.295 64.6291 360.741 64.3806C360.192 64.1321 359.735 63.7536 359.371 63.2451C359.013 62.7365 358.834 62.0951 358.834 61.3207V48.0755ZM372.239 64.8574C370.956 64.8574 369.85 64.5742 368.919 64.0079C367.995 63.4358 367.281 62.6383 366.778 61.6154C366.281 60.5868 366.033 59.3906 366.033 58.0267C366.033 56.6629 366.281 55.4609 366.778 54.4207C367.281 53.3747 367.98 52.5599 368.876 51.9762C369.777 51.3868 370.829 51.0921 372.031 51.0921C372.725 51.0921 373.409 51.2077 374.086 51.4388C374.762 51.67 375.377 52.0456 375.932 52.5657C376.487 53.08 376.929 53.7619 377.258 54.6114C377.588 55.4609 377.752 56.5069 377.752 57.7493V58.6162H367.489V56.8478H375.672C375.672 56.0966 375.522 55.4262 375.221 54.8368C374.926 54.2473 374.504 53.7821 373.955 53.4412C373.412 53.1002 372.771 52.9298 372.031 52.9298C371.216 52.9298 370.511 53.132 369.916 53.5365C369.327 53.9353 368.873 54.4554 368.555 55.0968C368.237 55.7383 368.078 56.426 368.078 57.1599V58.3388C368.078 59.3443 368.252 60.1967 368.598 60.8959C368.951 61.5894 369.439 62.1182 370.063 62.4823C370.688 62.8405 371.413 63.0197 372.239 63.0197C372.777 63.0197 373.262 62.9446 373.695 62.7943C374.135 62.6383 374.513 62.4071 374.831 62.1008C375.149 61.7888 375.394 61.4016 375.568 60.9393L377.544 61.4941C377.336 62.1644 376.987 62.7539 376.495 63.2624C376.004 63.7652 375.397 64.1581 374.675 64.4413C373.953 64.7187 373.141 64.8574 372.239 64.8574ZM383.534 59.587V59.483C383.546 58.3792 383.661 57.5009 383.881 56.8478C384.1 56.1948 384.412 55.6661 384.817 55.2615C385.221 54.857 385.707 54.4843 386.273 54.1433C386.614 53.9353 386.92 53.6897 387.192 53.4065C387.464 53.1176 387.677 52.7853 387.833 52.4097C387.995 52.034 388.076 51.618 388.076 51.1614C388.076 50.5951 387.943 50.1039 387.677 49.6878C387.412 49.2717 387.056 48.951 386.611 48.7256C386.166 48.5002 385.672 48.3876 385.129 48.3876C384.655 48.3876 384.199 48.4858 383.759 48.6823C383.32 48.8788 382.953 49.1879 382.658 49.6098C382.364 50.0316 382.193 50.5835 382.147 51.2654H379.963C380.009 50.283 380.263 49.4422 380.725 48.743C381.194 48.0437 381.809 47.5092 382.572 47.1393C383.34 46.7695 384.193 46.5845 385.129 46.5845C386.146 46.5845 387.03 46.7868 387.781 47.1913C388.538 47.5959 389.122 48.1506 389.532 48.8556C389.949 49.5607 390.157 50.3639 390.157 51.2654C390.157 51.9011 390.058 52.4761 389.862 52.9904C389.671 53.5048 389.394 53.9642 389.03 54.3687C388.671 54.7732 388.238 55.1315 387.729 55.4436C387.221 55.7614 386.813 56.0966 386.507 56.4491C386.201 56.7958 385.978 57.209 385.84 57.6887C385.701 58.1683 385.626 58.7664 385.614 59.483V59.587H383.534ZM384.644 64.7187C384.216 64.7187 383.849 64.5655 383.543 64.2593C383.236 63.953 383.083 63.586 383.083 63.1584C383.083 62.7307 383.236 62.3638 383.543 62.0575C383.849 61.7512 384.216 61.5981 384.644 61.5981C385.071 61.5981 385.438 61.7512 385.744 62.0575C386.051 62.3638 386.204 62.7307 386.204 63.1584C386.204 63.4415 386.132 63.7016 385.987 63.9385C385.848 64.1755 385.661 64.3662 385.424 64.5106C385.193 64.6493 384.932 64.7187 384.644 64.7187Z" fill="white"/>
<path d="M454.382 98.2077C453.103 98.2077 452.013 97.8596 451.113 97.1634C450.213 96.4615 449.525 95.4454 449.05 94.1152C448.574 92.7793 448.336 91.1661 448.336 89.2755C448.336 87.3962 448.574 85.7914 449.05 84.4612C449.531 83.1253 450.221 82.1064 451.121 81.4045C452.027 80.697 453.114 80.3432 454.382 80.3432C455.65 80.3432 456.734 80.697 457.634 81.4045C458.539 82.1064 459.23 83.1253 459.706 84.4612C460.187 85.7914 460.427 87.3962 460.427 89.2755C460.427 91.1661 460.19 92.7793 459.714 94.1152C459.239 95.4454 458.551 96.4615 457.651 97.1634C456.751 97.8596 455.661 98.2077 454.382 98.2077ZM454.382 96.3398C455.65 96.3398 456.635 95.7284 457.337 94.5058C458.039 93.2831 458.389 91.5397 458.389 89.2755C458.389 87.7698 458.228 86.4877 457.906 85.4291C457.589 84.3706 457.13 83.564 456.53 83.0093C455.936 82.4545 455.22 82.1772 454.382 82.1772C453.125 82.1772 452.143 82.797 451.436 84.0367C450.728 85.2706 450.374 87.0169 450.374 89.2755C450.374 90.7812 450.533 92.0604 450.85 93.1133C451.167 94.1661 451.622 94.9671 452.217 95.5162C452.817 96.0652 453.538 96.3398 454.382 96.3398ZM469.19 80.3432C469.903 80.3488 470.616 80.4847 471.329 80.7507C472.043 81.0168 472.694 81.4583 473.282 82.0753C473.871 82.6866 474.344 83.5215 474.7 84.5801C475.057 85.6386 475.235 86.966 475.235 88.5622C475.235 90.1076 475.088 91.4802 474.794 92.6803C474.505 93.8746 474.086 94.8822 473.537 95.703C472.994 96.5237 472.331 97.1464 471.55 97.5709C470.775 97.9955 469.897 98.2077 468.918 98.2077C467.944 98.2077 467.076 98.0153 466.311 97.6304C465.553 97.2398 464.93 96.6992 464.443 96.0086C463.962 95.3124 463.654 94.5058 463.518 93.5888H465.59C465.776 94.3869 466.147 95.0463 466.702 95.5671C467.262 96.0822 468.001 96.3398 468.918 96.3398C470.26 96.3398 471.318 95.7539 472.094 94.5822C472.875 93.4105 473.265 91.7548 473.265 89.6151H473.129C472.812 90.0906 472.436 90.501 472 90.8462C471.564 91.1915 471.08 91.4576 470.548 91.6444C470.016 91.8312 469.45 91.9246 468.85 91.9246C467.854 91.9246 466.94 91.6783 466.108 91.1859C465.281 90.6878 464.619 90.0057 464.121 89.1396C463.628 88.2679 463.382 87.2716 463.382 86.1509C463.382 85.0867 463.62 84.1131 464.095 83.23C464.576 82.3413 465.25 81.6338 466.116 81.1073C466.988 80.5809 468.012 80.3262 469.19 80.3432ZM469.19 82.2111C468.477 82.2111 467.834 82.3894 467.262 82.7461C466.696 83.097 466.246 83.5725 465.912 84.1725C465.584 84.7669 465.42 85.4263 465.42 86.1509C465.42 86.8754 465.578 87.5348 465.895 88.1292C466.218 88.7179 466.657 89.1877 467.211 89.5387C467.772 89.884 468.409 90.0566 469.122 90.0566C469.66 90.0566 470.161 89.9519 470.625 89.7424C471.089 89.5273 471.494 89.2358 471.839 88.8679C472.19 88.4943 472.464 88.0726 472.662 87.6028C472.861 87.1273 472.96 86.632 472.96 86.1169C472.96 85.4376 472.795 84.8008 472.467 84.2065C472.145 83.6121 471.697 83.131 471.126 82.763C470.56 82.3951 469.914 82.2111 469.19 82.2111ZM480.069 95.7454C479.65 95.7454 479.29 95.5954 478.99 95.2954C478.69 94.9954 478.54 94.636 478.54 94.2171C478.54 93.7982 478.69 93.4388 478.99 93.1388C479.29 92.8387 479.65 92.6887 480.069 92.6887C480.487 92.6887 480.847 92.8387 481.147 93.1388C481.447 93.4388 481.597 93.7982 481.597 94.2171C481.597 94.4944 481.526 94.7492 481.385 94.9813C481.249 95.2133 481.065 95.4001 480.833 95.5416C480.606 95.6775 480.352 95.7454 480.069 95.7454ZM480.069 86.949C479.65 86.949 479.29 86.799 478.99 86.499C478.69 86.199 478.54 85.8395 478.54 85.4206C478.54 85.0018 478.69 84.6423 478.99 84.3423C479.29 84.0423 479.65 83.8923 480.069 83.8923C480.487 83.8923 480.847 84.0423 481.147 84.3423C481.447 84.6423 481.597 85.0018 481.597 85.4206C481.597 85.698 481.526 85.9527 481.385 86.1848C481.249 86.4169 481.065 86.6037 480.833 86.7452C480.606 86.8811 480.352 86.949 480.069 86.949ZM485.159 97.97V96.4417L490.899 90.1585C491.572 89.4226 492.127 88.783 492.563 88.2396C492.999 87.6905 493.321 87.1754 493.531 86.6943C493.746 86.2075 493.853 85.698 493.853 85.1659C493.853 84.5546 493.706 84.0253 493.412 83.5782C493.123 83.131 492.727 82.7857 492.223 82.5423C491.719 82.2989 491.153 82.1772 490.525 82.1772C489.857 82.1772 489.274 82.3159 488.776 82.5932C488.283 82.8649 487.901 83.247 487.63 83.7395C487.364 84.2319 487.231 84.8093 487.231 85.4716H485.227C485.227 84.4527 485.462 83.5583 485.931 82.7885C486.401 82.0187 487.041 81.4187 487.85 80.9885C488.665 80.5583 489.58 80.3432 490.593 80.3432C491.612 80.3432 492.515 80.5583 493.301 80.9885C494.088 81.4187 494.705 81.9989 495.152 82.7291C495.6 83.4593 495.823 84.2716 495.823 85.1659C495.823 85.8056 495.707 86.431 495.475 87.0424C495.249 87.6481 494.852 88.3245 494.286 89.0717C493.726 89.8132 492.948 90.7189 491.951 91.7887L488.046 95.9662V96.102H496.129V97.97H485.159ZM498.854 94.4039V92.6718L506.496 80.5809H507.753V83.264H506.904L501.13 92.4001V92.5359H511.421V94.4039H498.854ZM507.039 97.97V93.8775V93.0708V80.5809H509.043V97.97H507.039Z" fill="#999999"/>
<path d="M512.65 93.4L517.57 98.32L528.81 82.16" stroke="#999999" stroke-width="2" stroke-miterlimit="10"/>
<path d="M521.08 93.4L526 98.32L537.25 82.16" stroke="#999999" stroke-width="2" stroke-miterlimit="10"/>
</g>
<defs>
<filter id="filter0_d_266_36" x="0.380005" y="0.380005" width="612.62" height="171.39" filterUnits="userSpaceOnUse" color-interpolation-filters="sRGB">
<feFlood flood-opacity="0" result="BackgroundImageFix"/>
<feColorMatrix in="SourceAlpha" type="matrix" values="0 0 0 0 0 0 0 0 0 0 0 0 0 0 0 0 0 0 127 0" result="hardAlpha"/>
<feOffset dx="16" dy="16"/>
<feGaussianBlur stdDeviation="20"/>
<feColorMatrix type="matrix" values="0 0 0 0 0.290196 0 0 0 0 0.231373 0 0 0 0 0.160784 0 0 0 0.5 0"/>
<feBlend mode="normal" in2="BackgroundImageFix" result="effect1_dropShadow_266_36"/>
<feBlend mode="normal" in="SourceGraphic" in2="effect1_dropShadow_266_36" result="shape"/>
</filter>
</defs>
</svg>
