<svg width="92" height="640" viewBox="0 0 92 640" fill="none" xmlns="http://www.w3.org/2000/svg">
<path d="M0.454143 624.084L0.454115 15.981C0.454115 7.55804 3.59789 0.718872 7.46966 0.718872L84.3643 0.718869C88.2361 0.718868 91.3799 7.55804 91.3799 15.981L91.3799 624.084C91.3799 632.507 88.2361 639.346 84.3643 639.346L7.46672 639.346C3.59494 639.346 0.451172 632.507 0.451171 624.084L0.454143 624.084Z" fill="white"/>
<path d="M14.8359 86.2932L51.0933 86.2932L51.0933 97.9677L14.8359 97.9677L14.8359 121.343L20.0122 121.343L20.0122 109.655L40.729 109.655L40.729 121.343L45.9141 121.343L45.9141 109.655L66.6339 109.655L66.6339 97.9677L56.2695 97.9677L56.2695 86.2932L76.9953 86.2932L76.9953 51.2244L14.8359 51.2244L14.8359 86.2932Z" fill="black"/>
<path d="M35.5527 156.411L35.5527 144.724L14.8359 144.724L14.8359 168.105L35.5527 168.105L35.5527 163.91L51.0933 163.91L51.0933 168.105L76.9982 168.105L76.9982 144.724L66.6369 144.724L66.6369 156.411L35.5557 156.411L35.5527 156.411Z" fill="black"/>
<path d="M45.9171 191.48L45.9171 179.793L14.8359 179.793L14.8359 191.48L45.9171 191.48Z" fill="black"/>
<path d="M30.3765 214.842L30.3765 203.155L14.8359 203.155L14.8359 214.842L20.0122 214.842L20.0122 218.811L25.1884 218.811L25.1884 214.842L30.3735 214.842L30.3765 214.842Z" fill="black"/>
<path d="M51.0929 191.48L51.0929 203.155L40.7285 203.155L40.7285 214.842L56.2691 214.842L56.2691 203.155L66.6334 203.155L66.6334 191.48L76.9948 191.48L76.9948 179.793L61.4542 179.793L61.4542 191.48L51.0899 191.48L51.0929 191.48Z" fill="black"/>
<path d="M76.9982 226.53L76.9982 203.148L71.822 203.148L71.822 214.836L56.2725 214.836L56.2725 226.523L76.9982 226.523L76.9982 226.53Z" fill="black"/>
<path d="M25.1914 238.217L40.7319 238.217L40.7319 242.8L14.8359 242.8L14.8359 246.381L40.7319 246.381L40.7319 249.904L20.0151 249.904L20.0151 261.592L14.8389 261.592L14.8389 273.279L25.1943 273.279L25.1943 261.592L40.7349 261.592L40.7349 273.279L56.2755 273.279L56.2755 261.592L77.0012 261.592L77.0012 249.904L51.0963 249.904L51.0963 261.592L45.9171 261.592L45.9171 238.217L76.9982 238.217L76.9982 234.565L56.2725 234.565L56.2725 226.53L25.1914 226.53L25.1914 238.217Z" fill="black"/>
<path d="M76.9981 308.355L76.9981 296.667L66.6367 296.667L66.6367 308.355L76.9981 308.355Z" fill="black"/>
<path d="M56.2725 320.023L66.6368 320.023L66.6368 308.348L56.2725 308.348L56.2725 320.023Z" fill="black"/>
<path d="M45.917 284.973L45.917 296.661L66.6368 296.661L66.6368 273.286L56.2724 273.286L56.2724 284.973L45.917 284.973Z" fill="black"/>
<path d="M14.8359 284.973L14.8359 296.661L40.7319 296.661L40.7319 284.973L14.8359 284.973Z" fill="black"/>
<path d="M14.8359 355.091L14.8359 366.779L25.1914 366.779L25.1914 355.091L14.8359 355.091Z" fill="black"/>
<path d="M25.1914 401.848L25.1914 390.16L14.8359 390.16L14.8359 413.535L76.9982 413.535L76.9982 401.848L71.822 401.848L71.822 390.16L61.4577 390.16L61.4577 401.848L56.2725 401.848L56.2725 390.16L51.0933 390.16L51.0933 401.848L40.729 401.848L40.729 390.16L35.5527 390.16L35.5527 401.848L25.1884 401.848L25.1914 401.848Z" fill="black"/>
<path d="M14.8359 436.897L14.8359 448.585L35.5527 448.585L35.5527 436.897L14.8359 436.897Z" fill="black"/>
<path d="M35.5527 460.278L14.8359 460.278L14.8359 471.966L51.0933 471.966L51.0933 476.556L14.8359 476.556L14.8359 479.064L51.0933 479.064L51.0933 483.653L56.2725 483.653L56.2725 479.064L66.6369 479.064L66.6369 483.653L71.822 483.653L71.822 495.341L35.5557 495.341L35.5557 483.653L14.8359 483.653L14.8359 507.028L76.9982 507.028L76.9982 471.959L71.822 471.959L71.822 460.272L76.9982 460.272L76.9982 448.585L66.6369 448.585L66.6369 460.272L51.0963 460.272L51.0963 448.585L35.5557 448.585L35.5557 460.272L35.5527 460.278ZM66.6339 471.966L66.6339 476.556L56.2695 476.556L56.2695 471.966L66.6339 471.966Z" fill="black"/>
<path d="M76.9982 588.84L76.9982 553.772L14.8359 553.772L14.8359 588.84L76.9982 588.84Z" fill="black"/>
<path d="M14.8359 312.518L14.8359 318.355L52.475 318.355L52.475 312.518L14.8359 312.518Z" fill="black"/>
<path d="M14.8359 329.105L14.8359 333.042L76.9982 333.042L76.9982 329.105L14.8359 329.105Z" fill="black"/>
<path d="M56.2725 345.214L56.2725 355.091L35.5557 355.091L35.5557 366.779L25.1914 366.779L25.1914 390.16L35.5557 390.16L35.5557 378.473L76.9982 378.473L76.9982 374.581L45.9171 374.581L45.9171 366.785L76.9982 366.785L76.9982 355.098L66.6369 355.098L66.6369 343.41L14.8359 343.41L14.8359 345.22L56.2725 345.22L56.2725 345.214Z" fill="black"/>
<path d="M51.0933 430.795L51.0933 448.585L56.2725 448.585L56.2725 436.897L76.9982 436.897L76.9982 425.21L14.8359 425.21L14.8359 430.795L51.0933 430.795Z" fill="black"/>
<path d="M14.8359 337.334L14.8359 339.842L76.9982 339.842L76.9982 337.334L14.8359 337.334Z" fill="black"/>
<path d="M14.8359 127.193L14.8359 129.701L45.9171 129.701L45.9171 137.484L14.8359 137.484L14.8359 139.992L45.9171 139.992L45.9171 144.73L56.2725 144.73L56.2725 139.992L76.9982 139.992L76.9982 137.484L56.2725 137.484L56.2725 133.043L76.9982 133.043L76.9982 109.668L71.822 109.668L71.822 121.355L45.9171 121.355L45.9171 127.199L14.8359 127.199L14.8359 127.193Z" fill="black"/>
<path d="M14.8359 323.487L14.8359 325.996L76.9982 325.996L76.9982 323.487L14.8359 323.487Z" fill="black"/>
<path d="M14.8359 536.434L14.8359 540.371L76.9982 540.371L76.9982 536.434L14.8359 536.434Z" fill="black"/>
<path d="M14.8359 544.663L14.8359 547.172L76.9982 547.172L76.9982 544.663L14.8359 544.663Z" fill="black"/>
<path d="M14.8359 530.817L14.8359 533.325L76.9982 533.325L76.9982 530.817L14.8359 530.817Z" fill="black"/>
<path d="M14.8359 516.738L14.8359 520.674L76.9982 520.674L76.9982 516.738L14.8359 516.738Z" fill="black"/>
<path d="M14.8359 524.973L14.8359 527.481L76.9982 527.481L76.9982 524.973L14.8359 524.973Z" fill="black"/>
<path d="M14.8359 511.127L14.8359 513.635L76.9982 513.635L76.9982 511.127L14.8359 511.127Z" fill="black"/>
<path d="M14.8359 172.178L14.8359 174.686L76.9982 174.686L76.9982 172.178L14.8359 172.178Z" fill="black"/>
<path d="M14.8359 418.978L14.8359 421.486L76.9982 421.486L76.9982 418.978L14.8359 418.978Z" fill="black"/>
</svg>
