<svg width="560" height="192" viewBox="0 0 560 192" fill="none" xmlns="http://www.w3.org/2000/svg">
<g filter="url(#filter0_d_274_3)">
<path d="M458.57 71.3899H458.79C460.6 97.6199 474.94 118.91 493.62 124.15C489.33 124.96 484.89 125.39 480.33 125.39C464.97 125.39 450.86 120.52 439.72 112.4C451.06 102.16 458.27 87.5699 458.57 71.3799V71.3899Z" fill="#0078FE"/>
<path d="M72.9721 34H420.028C441.552 34 459 54.3688 459 79.495V79.505C459 104.631 441.552 125 420.028 125H72.9721C51.4484 125 34 104.631 34 79.505V79.495C34 54.3688 51.4484 34 72.9721 34Z" fill="#0078FE"/>
<path d="M77.6241 71.2473H80.0859L85.0095 79.5342H85.2176L90.1412 71.2473H92.603L86.1884 81.6839V89H84.0387V81.6839L77.6241 71.2473ZM98.6318 89.2774C97.4298 89.2774 96.3751 88.9913 95.4679 88.4192C94.5664 87.8471 93.8613 87.0467 93.3528 86.0181C92.85 84.9895 92.5986 83.7874 92.5986 82.4121C92.5986 81.0251 92.85 79.8145 93.3528 78.78C93.8613 77.7456 94.5664 76.9424 95.4679 76.3703C96.3751 75.7981 97.4298 75.5121 98.6318 75.5121C99.8338 75.5121 100.886 75.7981 101.787 76.3703C102.694 76.9424 103.399 77.7456 103.902 78.78C104.411 79.8145 104.665 81.0251 104.665 82.4121C104.665 83.7874 104.411 84.9895 103.902 86.0181C103.399 87.0467 102.694 87.8471 101.787 88.4192C100.886 88.9913 99.8338 89.2774 98.6318 89.2774ZM98.6318 87.4397C99.5449 87.4397 100.296 87.2057 100.886 86.7376C101.475 86.2695 101.911 85.654 102.194 84.8912C102.478 84.1284 102.619 83.302 102.619 82.4121C102.619 81.5221 102.478 80.6929 102.194 79.9243C101.911 79.1557 101.475 78.5344 100.886 78.0606C100.296 77.5867 99.5449 77.3498 98.6318 77.3498C97.7187 77.3498 96.9675 77.5867 96.378 78.0606C95.7886 78.5344 95.3523 79.1557 95.0691 79.9243C94.786 80.6929 94.6444 81.5221 94.6444 82.4121C94.6444 83.302 94.786 84.1284 95.0691 84.8912C95.3523 85.654 95.7886 86.2695 96.378 86.7376C96.9675 87.2057 97.7187 87.4397 98.6318 87.4397ZM116.179 83.5563V75.6855H118.224V89H116.179V86.7462H116.04C115.728 87.4224 115.242 87.9974 114.584 88.4712C113.925 88.9393 113.093 89.1734 112.087 89.1734C111.255 89.1734 110.515 88.9913 109.868 88.6273C109.221 88.2574 108.712 87.7026 108.342 86.9629C107.973 86.2175 107.788 85.2784 107.788 84.1457V75.6855H109.833V84.007C109.833 84.9779 110.105 85.7523 110.648 86.3302C111.197 86.908 111.897 87.197 112.746 87.197C113.255 87.197 113.772 87.067 114.298 86.8069C114.829 86.5469 115.274 86.1481 115.633 85.6107C115.997 85.0732 116.179 84.3885 116.179 83.5563ZM133.864 89.2774C132.755 89.2774 131.775 88.9971 130.926 88.4366C130.076 87.8702 129.412 87.0727 128.932 86.0441C128.452 85.0097 128.212 83.7874 128.212 82.3774C128.212 80.9789 128.452 79.7653 128.932 78.7367C129.412 77.7081 130.079 76.9135 130.934 76.3529C131.79 75.7924 132.778 75.5121 133.899 75.5121C134.766 75.5121 135.451 75.6566 135.953 75.9455C136.462 76.2287 136.849 76.5523 137.115 76.9164C137.386 77.2746 137.597 77.5694 137.748 77.8005H137.921V71.2473H139.967V89H137.99V86.9543H137.748C137.597 87.197 137.384 87.5033 137.106 87.8731C136.829 88.2372 136.433 88.5637 135.919 88.8526C135.404 89.1358 134.719 89.2774 133.864 89.2774ZM134.142 87.4397C134.962 87.4397 135.656 87.2259 136.222 86.7982C136.788 86.3648 137.219 85.7667 137.514 85.0039C137.808 84.2353 137.956 83.3483 137.956 82.3427C137.956 81.3488 137.811 80.479 137.522 79.7336C137.233 78.9823 136.806 78.3986 136.239 77.9826C135.673 77.5607 134.974 77.3498 134.142 77.3498C133.275 77.3498 132.552 77.5723 131.975 78.0172C131.402 78.4564 130.972 79.0545 130.683 79.8116C130.4 80.5628 130.258 81.4065 130.258 82.3427C130.258 83.2905 130.403 84.1515 130.692 84.9259C130.986 85.6945 131.42 86.307 131.992 86.7636C132.57 87.2143 133.286 87.4397 134.142 87.4397ZM149.58 89.2774C148.297 89.2774 147.19 88.9942 146.26 88.4279C145.335 87.8558 144.622 87.0583 144.119 86.0354C143.622 85.0068 143.373 83.8106 143.373 82.4467C143.373 81.0829 143.622 79.8809 144.119 78.8407C144.622 77.7947 145.321 76.9799 146.217 76.3963C147.118 75.8068 148.17 75.5121 149.372 75.5121C150.065 75.5121 150.75 75.6277 151.426 75.8588C152.102 76.09 152.718 76.4656 153.273 76.9857C153.827 77.5 154.269 78.1819 154.599 79.0314C154.928 79.8809 155.093 80.9269 155.093 82.1694V83.0362H144.83V81.2679H153.013C153.013 80.5166 152.862 79.8462 152.562 79.2568C152.267 78.6674 151.845 78.2022 151.296 77.8612C150.753 77.5202 150.112 77.3498 149.372 77.3498C148.557 77.3498 147.852 77.552 147.257 77.9566C146.667 78.3553 146.214 78.8754 145.896 79.5169C145.578 80.1583 145.419 80.846 145.419 81.5799V82.7588C145.419 83.7643 145.592 84.6167 145.939 85.316C146.292 86.0094 146.78 86.5382 147.404 86.9023C148.028 87.2606 148.753 87.4397 149.58 87.4397C150.117 87.4397 150.603 87.3646 151.036 87.2143C151.475 87.0583 151.854 86.8271 152.172 86.5209C152.49 86.2088 152.735 85.8216 152.909 85.3593L154.885 85.9141C154.677 86.5844 154.327 87.1739 153.836 87.6824C153.345 88.1852 152.738 88.5781 152.016 88.8613C151.293 89.1387 150.481 89.2774 149.58 89.2774ZM163.614 89.2774C162.366 89.2774 161.291 88.9827 160.389 88.3932C159.488 87.8038 158.794 86.9918 158.309 85.9574C157.823 84.923 157.581 83.7412 157.581 82.4121C157.581 81.0598 157.829 79.8665 158.326 78.8321C158.829 77.7919 159.528 76.9799 160.424 76.3963C161.325 75.8068 162.377 75.5121 163.579 75.5121C164.515 75.5121 165.359 75.6855 166.11 76.0322C166.862 76.3789 167.477 76.8643 167.957 77.4885C168.436 78.1126 168.734 78.8407 168.85 79.6729H166.804C166.648 79.0661 166.301 78.5287 165.764 78.0606C165.232 77.5867 164.515 77.3498 163.614 77.3498C162.816 77.3498 162.117 77.5578 161.516 77.9739C160.921 78.3842 160.456 78.965 160.121 79.7162C159.791 80.4617 159.626 81.3372 159.626 82.3427C159.626 83.3714 159.788 84.2671 160.112 85.0299C160.441 85.7927 160.904 86.3851 161.499 86.8069C162.1 87.2288 162.805 87.4397 163.614 87.4397C164.146 87.4397 164.628 87.3472 165.062 87.1623C165.495 86.9774 165.862 86.7116 166.162 86.3648C166.463 86.0181 166.677 85.602 166.804 85.1166H168.85C168.734 85.9025 168.448 86.6104 167.991 87.2403C167.541 87.8644 166.943 88.3614 166.197 88.7313C165.457 89.0954 164.596 89.2774 163.614 89.2774ZM171.84 89V75.6855H173.886V89H171.84ZM172.88 73.4664C172.482 73.4664 172.138 73.3306 171.849 73.059C171.566 72.7873 171.424 72.4608 171.424 72.0794C171.424 71.698 171.566 71.3715 171.849 71.0999C172.138 70.8283 172.482 70.6925 172.88 70.6925C173.279 70.6925 173.62 70.8283 173.903 71.0999C174.192 71.3715 174.337 71.698 174.337 72.0794C174.337 72.4608 174.192 72.7873 173.903 73.059C173.62 73.3306 173.279 73.4664 172.88 73.4664ZM182.66 89.2774C181.551 89.2774 180.571 88.9971 179.722 88.4366C178.872 87.8702 178.208 87.0727 177.728 86.0441C177.248 85.0097 177.009 83.7874 177.009 82.3774C177.009 80.9789 177.248 79.7653 177.728 78.7367C178.208 77.7081 178.875 76.9135 179.73 76.3529C180.586 75.7924 181.574 75.5121 182.695 75.5121C183.562 75.5121 184.247 75.6566 184.749 75.9455C185.258 76.2287 185.645 76.5523 185.911 76.9164C186.183 77.2746 186.394 77.5694 186.544 77.8005H186.717V71.2473H188.763V89H186.786V86.9543H186.544C186.394 87.197 186.18 87.5033 185.902 87.8731C185.625 88.2372 185.229 88.5637 184.715 88.8526C184.2 89.1358 183.516 89.2774 182.66 89.2774ZM182.938 87.4397C183.758 87.4397 184.452 87.2259 185.018 86.7982C185.584 86.3648 186.015 85.7667 186.31 85.0039C186.604 84.2353 186.752 83.3483 186.752 82.3427C186.752 81.3488 186.607 80.479 186.318 79.7336C186.029 78.9823 185.602 78.3986 185.035 77.9826C184.469 77.5607 183.77 77.3498 182.938 77.3498C182.071 77.3498 181.349 77.5723 180.771 78.0172C180.199 78.4564 179.768 79.0545 179.479 79.8116C179.196 80.5628 179.054 81.4065 179.054 82.3427C179.054 83.2905 179.199 84.1515 179.488 84.9259C179.782 85.6945 180.216 86.307 180.788 86.7636C181.366 87.2143 182.082 87.4397 182.938 87.4397ZM198.376 89.2774C197.093 89.2774 195.986 88.9942 195.056 88.4279C194.131 87.8558 193.418 87.0583 192.915 86.0354C192.418 85.0068 192.17 83.8106 192.17 82.4467C192.17 81.0829 192.418 79.8809 192.915 78.8407C193.418 77.7947 194.117 76.9799 195.013 76.3963C195.914 75.8068 196.966 75.5121 198.168 75.5121C198.861 75.5121 199.546 75.6277 200.222 75.8588C200.899 76.09 201.514 76.4656 202.069 76.9857C202.624 77.5 203.066 78.1819 203.395 79.0314C203.724 79.8809 203.889 80.9269 203.889 82.1694V83.0362H193.626V81.2679H201.809C201.809 80.5166 201.658 79.8462 201.358 79.2568C201.063 78.6674 200.641 78.2022 200.092 77.8612C199.549 77.5202 198.908 77.3498 198.168 77.3498C197.353 77.3498 196.648 77.552 196.053 77.9566C195.463 78.3553 195.01 78.8754 194.692 79.5169C194.374 80.1583 194.215 80.846 194.215 81.5799V82.7588C194.215 83.7643 194.389 84.6167 194.735 85.316C195.088 86.0094 195.576 86.5382 196.2 86.9023C196.824 87.2606 197.55 87.4397 198.376 87.4397C198.913 87.4397 199.399 87.3646 199.832 87.2143C200.272 87.0583 200.65 86.8271 200.968 86.5209C201.286 86.2088 201.531 85.8216 201.705 85.3593L203.681 85.9141C203.473 86.5844 203.123 87.1739 202.632 87.6824C202.141 88.1852 201.534 88.5781 200.812 88.8613C200.089 89.1387 199.278 89.2774 198.376 89.2774ZM215.357 89.1387C214.93 89.1387 214.563 88.9856 214.256 88.6793C213.95 88.373 213.797 88.006 213.797 87.5784C213.797 87.1508 213.95 86.7838 214.256 86.4775C214.563 86.1712 214.93 86.0181 215.357 86.0181C215.785 86.0181 216.152 86.1712 216.458 86.4775C216.764 86.7838 216.918 87.1508 216.918 87.5784C216.918 87.8616 216.845 88.1216 216.701 88.3585C216.562 88.5955 216.374 88.7862 216.137 88.9307C215.906 89.0693 215.646 89.1387 215.357 89.1387ZM215.357 79.2568C214.93 79.2568 214.563 79.1037 214.256 78.7974C213.95 78.4911 213.797 78.1241 213.797 77.6965C213.797 77.2689 213.95 76.9019 214.256 76.5956C214.563 76.2893 214.93 76.1362 215.357 76.1362C215.785 76.1362 216.152 76.2893 216.458 76.5956C216.764 76.9019 216.918 77.2689 216.918 77.6965C216.918 77.9797 216.845 78.2397 216.701 78.4767C216.562 78.7136 216.374 78.9043 216.137 79.0488C215.906 79.1875 215.646 79.2568 215.357 79.2568ZM224.957 81.5106C224.957 83.695 224.671 85.706 224.099 87.5437C223.533 89.3756 222.721 91.0631 221.663 92.606H219.86C220.277 92.0339 220.664 91.3289 221.022 90.491C221.386 89.6588 221.704 88.7457 221.976 87.7518C222.247 86.752 222.458 85.7205 222.608 84.6572C222.764 83.5881 222.842 82.5392 222.842 81.5106C222.842 80.1352 222.709 78.7396 222.444 77.3238C222.178 75.9079 221.82 74.5932 221.369 73.3797C220.918 72.1661 220.415 71.1779 219.86 70.4151H221.663C222.721 71.9581 223.533 73.6484 224.099 75.4861C224.671 77.318 224.957 79.3262 224.957 81.5106Z" fill="white"/>
</g>
<defs>
<filter id="filter0_d_274_3" x="0" y="0" width="559.62" height="191.39" filterUnits="userSpaceOnUse" color-interpolation-filters="sRGB">
<feFlood flood-opacity="0" result="BackgroundImageFix"/>
<feColorMatrix in="SourceAlpha" type="matrix" values="0 0 0 0 0 0 0 0 0 0 0 0 0 0 0 0 0 0 127 0" result="hardAlpha"/>
<feOffset dx="16" dy="16"/>
<feGaussianBlur stdDeviation="25"/>
<feComposite in2="hardAlpha" operator="out"/>
<feColorMatrix type="matrix" values="0 0 0 0 0.290196 0 0 0 0 0.231373 0 0 0 0 0.160784 0 0 0 0.5 0"/>
<feBlend mode="normal" in2="BackgroundImageFix" result="effect1_dropShadow_274_3"/>
<feBlend mode="normal" in="SourceGraphic" in2="effect1_dropShadow_274_3" result="shape"/>
</filter>
</defs>
</svg>
